ply
format ascii 1.0
comment Created in Blender version 4.4.0
element vertex 22
property float x
property float y
property float z
property float nx
property float ny
property float nz
property float s
property float t
element face 12
property list uchar uint vertex_indices
end_header
0 3.1 0 0.5773567 0.5773471 -0.5773471 0.11866593 0.48417768
0 3 2 0.5773567 -0.5773471 0.5773471 0.14235663 0.00863298
0 3 0 0.5773362 -0.5773689 -0.5773458 0.14062473 0.4824458
0 3.1 2 0.5773362 0.5773689 0.5773458 0.1685437 0.4824458
-2 3 2 -0.5773362 -0.5773689 0.5773458 0.19223434 0.010364853
0 3 2 0.5773567 -0.5773471 0.5773471 0.19223434 0.4824458
-2 3.1 2 -0.5773567 0.5773471 0.5773471 0.16681185 0.9824459
-2 3 0 -0.5773567 -0.5773471 -0.5773471 0.19050255 0.5103649
-2 3 2 -0.5773362 -0.5773689 0.5773458 0.19223434 0.98417777
-2 3.1 0 -0.5773362 0.5773689 -0.5773458 0.11693409 0.9579906
-2 3 0 -0.5773567 -0.5773471 -0.5773471 0.14062473 0.9579906
-2 3 2 -0.5773362 -0.5773689 0.5773458 0.99998796 0.99999946
0 3 0 0.5773362 -0.5773689 -0.5773458 -7.2419643e-06 4.261732e-06
0 3 2 0.5773567 -0.5773471 0.5773471 0.99998784 4.23193e-06
0 3.1 2 0.5773362 0.5773689 0.5773458 0.9999931 4.261732e-06
-2 3.1 0 -0.5773362 0.5773689 -0.5773458 -1.8775463e-06 0.9999997
-2 3.1 2 -0.5773567 0.5773471 0.5773471 -1.9967556e-06 4.5597553e-06
0 3.1 2 0.5773362 0.5773689 0.5773458 0.11866599 0.008632973
-2 3.1 2 -0.5773567 0.5773471 0.5773471 0.16681185 0.00863298
-2 3.1 0 -0.5773362 0.5773689 -0.5773458 0.16681191 0.5103649
-2 3 0 -0.5773567 -0.5773471 -0.5773471 -7.1525574e-06 0.99999946
0 3.1 0 0.5773567 0.5773471 -0.5773471 0.9999932 0.99999946
3 0 1 2
3 3 4 5
3 6 7 8
3 9 2 10
3 11 12 13
3 14 15 16
3 0 17 1
3 3 18 4
3 6 19 7
3 9 0 2
3 11 20 12
3 14 21 15
