ply
format ascii 1.0
comment Created in Blender version 4.4.0
element vertex 216
property float x
property float y
property float z
property float nx
property float ny
property float nz
property float s
property float t
element face 130
property list uchar uint vertex_indices
end_header
-0.20780337 -0.27669185 -0.5954565 -0.42542917 -0.8293233 -0.36226115 0.252071 0.7107948
0.19015303 -0.27674055 -0.577789 0.0010276568 -0.999999 -0.0010063525 0.016426416 0.7003333
-0.19012031 -0.2767062 -0.5777203 -0.00034972688 -0.99999994 -0.00027726864 0.24159983 0.70029247
0.09002702 -0.087479055 0.6465644 -3.6679274e-05 -0.034214642 0.9994145 0.8747666 0.6282355
-0.15600756 -0.000110144305 0.6495631 2.4359691e-05 -0.034238335 0.9994138 0.92653114 0.77392185
-0.09002865 -0.087479055 0.6465644 3.6680598e-05 -0.034215238 0.9994145 0.8747666 0.734853
0.18583167 -0.24741651 0.6292607 0.38540933 -0.8159241 0.43096107 0.95350856 0.62075186
0.3715488 -0.0001101443 0.6495328 0.679014 -0.5273821 0.5106937 0.94177824 0.8039021
0.18577768 -0.24779265 0.64108986 0.3501934 -0.72247064 0.596155 0.946503 0.62056494
-0.1858333 -0.24741651 0.6292607 -0.385444 -0.8157886 0.43118653 0.4203205 0.70151585
0.18577768 -0.24779265 0.64108986 0.3501934 -0.72247064 0.596155 0.64036477 0.7085238
-0.1857793 -0.24779265 0.64108986 -0.35019854 -0.7224669 0.5961566 0.42035237 0.70852387
-0.3715488 -0.0001101443 0.6495328 -0.6820661 -0.5292129 0.50469756 0.9417776 0.4229621
-0.1858333 -0.24741651 0.6292607 -0.385444 -0.8157886 0.43118653 0.95193756 0.6062062
-0.1857793 -0.24779265 0.64108986 -0.35019854 -0.7224669 0.5961566 0.9449306 0.606333
0.15351553 -0.18242916 0.64332193 -3.3507455e-05 -0.03415551 0.9994166 0.8185104 0.59064245
0.15600756 -0.000110144305 0.6495631 -2.435919e-05 -0.034237783 0.9994138 0.92653114 0.58916646
-0.15351553 -0.18242916 0.64332193 3.3505945e-05 -0.03415561 0.99941653 0.8185104 0.772446
0.20776246 -0.27674052 0.5953983 0.42475194 -0.82988286 0.3617738 0.0063211713 0.93850243
0.3715979 -0.00011034553 0.6292608 0.71607226 -0.53790534 0.4448577 0.19555432 0.9674075
0.18583167 -0.24741651 0.6292607 0.38540933 -0.8159241 0.43096107 0.012404063 0.9674021
-0.1858333 -0.24741651 0.6292607 -0.385444 -0.8157886 0.43118653 0.5025264 0.90004057
0.20776246 -0.27674052 0.5953983 0.42475194 -0.82988286 0.3617738 0.2694607 0.92653114
0.18583167 -0.24741651 0.6292607 0.38540933 -0.8159241 0.43096107 0.28245085 0.9000085
-0.37159953 0.000107072505 0.6292608 -0.7167106 -0.53793615 0.44379133 0.6932756 0.73264873
-0.20774283 -0.27671802 0.59545887 -0.42483732 -0.82962805 0.36225763 0.7221493 0.92198944
-0.1858333 -0.24741651 0.6292607 -0.385444 -0.8157886 0.43118653 0.693289 0.91590226
0.18577768 -0.24779265 0.64108986 0.3501934 -0.72247064 0.596155 0.77978384 0.57153815
0.22410215 -0.25507072 0.5683583 0.50707376 -0.8136936 0.28421652 0.5333446 0.93322814
0.415574 -0.00011034001 0.59539837 0.7578752 -0.5709095 0.31573325 0.7221493 0.94922954
0.20776246 -0.27674052 0.5953983 0.42475194 -0.82988286 0.3617738 0.51727504 0.9492404
-0.41475588 -0.023957392 0.5756806 -0.8185804 0.094439015 0.56657535 0.66050446 0.97194946
-0.21929155 -0.26142532 0.57628435 -0.5478694 -0.77747595 0.30882096 0.47856665 0.96377444
-0.40408745 -0.015253308 0.5762484 -0.9034245 -0.31596985 0.28980547 0.6608348 0.96379656
-0.23498 -0.2635545 0.5674387 -0.9089854 -0.29897365 -0.29044887 0.97194445 0.3879888
-0.41475588 -0.023957392 0.5756806 -0.8185804 0.094439015 0.56657535 0.96706927 0.21061859
-0.40985692 -0.030542316 0.5674388 -0.53024036 -0.7884924 -0.31164876 0.97194946 0.21547881
0.24444413 -0.25888708 0.56473726 0.88702935 -0.34922585 -0.302027 0.9834282 0.3855136
0.39483115 -0.027583547 0.56083566 0.18970661 -0.83779615 -0.511966 0.9946584 0.54851073
0.4107405 -0.03730682 0.5647373 0.59847677 -0.7570293 -0.26216826 0.9834282 0.5495602
0.23996897 -0.2648488 0.57219124 0.10717291 -0.7563942 0.6452766 0.96525306 0.77791333
0.3993603 -0.021494208 0.56838536 0.9137852 -0.23367375 0.33225495 0.9764913 0.60600936
0.22410215 -0.25507072 0.5683583 0.50707376 -0.8136936 0.28421652 0.976475 0.7789221
0.24444413 -0.25888708 0.56473726 0.88702935 -0.34922585 -0.302027 0.9856982 0.36347347
0.41521403 -0.031345107 0.5721913 0.7558162 0.17329115 0.6314366 0.9901167 0.19501296
0.23996897 -0.2648488 0.57219124 0.10717291 -0.7563942 0.6452766 0.9901118 0.36788738
0.29083866 -0.000110144305 0.6495631 0.00023007247 -0.034294046 0.99941176 0.92653114 0.50932837
0.20776246 -0.27674052 0.5953983 0.42475194 -0.82988286 0.3617738 0.005999206 0.005647713
-0.18852659 -0.27670616 0.5777545 0.00020216982 -0.99999994 -0.0002811204 0.24065652 0.016095152
0.19008431 -0.27670616 0.5777545 -0.000700861 -0.9999996 -0.0007384279 0.01646709 0.016095152
-0.21929155 -0.26142532 0.57628435 -0.5478694 -0.77747595 0.30882096 0.7902465 0.547297
-0.4155413 0.00010707801 0.5954564 -0.758811 -0.5683332 0.31812465 0.77890337 0.35368192
-0.40408745 -0.015253308 0.5762484 -0.9034245 -0.31596985 0.28980547 0.7902766 0.36502835
-0.40985692 -0.030542316 0.5674388 -0.53024036 -0.7884924 -0.31164876 0.19537762 0.9901167
-0.22432795 -0.25477394 0.56797373 -0.7994422 0.10153756 -0.5921 0.36751562 0.98194426
-0.23498 -0.2635545 0.5674387 -0.9089854 -0.29897365 -0.29044887 0.36788747 0.99011666
-0.29083866 -0.000110144305 0.6495631 -0.00023006943 -0.034293808 0.99941176 0.92653114 0.85376
-0.1857793 -0.24779265 0.64108986 -0.35019854 -0.7224669 0.5961566 0.77978384 0.7915502
0.23991987 -0.26485842 -0.57218313 0.10552744 -0.7564204 -0.645517 0.6407149 0.68354386
0.22410215 -0.25507072 0.5683583 0.50707376 -0.8136936 0.28421652 0.6517511 0.0081881825
0.22410215 -0.25507075 -0.5683584 0.50686884 -0.8136697 -0.28465033 0.6517291 0.6812795
0.22410215 -0.25507075 -0.5683584 0.50686884 -0.8136697 -0.28465033 0.26328793 0.69474995
0.20776246 -0.27674052 0.5953983 0.42475194 -0.82988286 0.3617738 0.2793219 0.0056481273
0.20780337 -0.27669185 -0.5954565 0.42541113 -0.829209 -0.36254358 0.2793219 0.7107948
0.24444413 -0.25888708 0.56473726 0.88702935 -0.34922585 -0.302027 0.7448584 0.0056602866
0.2285986 -0.24908203 -0.5608005 0.8515965 0.13450862 0.50664675 0.73382443 0.6721289
0.22861823 -0.24905397 0.5608356 0.85131663 0.13382697 -0.50729716 0.7338258 0.007970631
0.3993685 -0.021539837 -0.56832314 0.9138683 -0.23171338 -0.3333971 0.30657285 0.6947616
0.415574 -0.00011034001 0.59539837 0.7578752 -0.5709095 0.31573325 0.29062733 0.005680184
0.3993603 -0.021494208 0.56838536 0.9137852 -0.23367375 0.33225495 0.30651885 0.021674756
0.41521403 -0.031345107 0.5721913 0.7558162 0.17329115 0.6314366 0.629042 0.0059149303
0.3993685 -0.021539837 -0.56832314 0.9138683 -0.23171338 -0.3333971 0.61800796 0.68125343
0.3993603 -0.021494208 0.56838536 0.9137852 -0.23367375 0.33225495 0.6179894 0.00816858
0.41068977 -0.03731645 -0.5646604 0.5959312 -0.75808465 0.26490334 0.7565275 0.67446023
0.39483115 -0.027583547 0.56083566 0.18970661 -0.83779615 -0.511966 0.76756746 0.008012932
0.3948524 -0.02755657 -0.56080043 0.18779641 -0.83795905 0.5124033 0.7675431 0.672175
-0.39911976 -0.021871774 0.5679738 -0.09422416 -0.8037587 -0.587447 0.60633296 0.0063868426
-0.22430015 -0.25475228 -0.5679411 -0.8000369 0.101223685 0.5913499 0.43390444 0.67900187
-0.22432795 -0.25477394 0.56797373 -0.7994422 0.10153756 -0.5921 0.43390444 0.0063866302
-0.4097882 -0.030575672 -0.5674052 -0.5259856 -0.78956556 0.3161101 0.7028466 0.7036644
-0.39911976 -0.021871774 0.5679738 -0.09422416 -0.8037587 -0.587447 0.6946736 0.031365223
-0.40985692 -0.030542316 0.5674388 -0.53024036 -0.7884924 -0.31164876 0.70284504 0.03168177
-0.21929155 -0.26142555 -0.57628447 -0.54887027 -0.7772747 -0.3075475 0.32924896 0.6994429
-0.20774283 -0.27671802 0.59545887 -0.42483732 -0.82962805 0.36225763 0.31793505 0.005611643
-0.21929155 -0.26142532 0.57628435 -0.5478694 -0.77747595 0.30882096 0.32928193 0.01696604
-0.23000741 -0.2701237 0.57564616 -0.10682918 -0.820706 0.5612747 0.3712742 0.00598626
-0.21929155 -0.26142555 -0.57628447 -0.54887027 -0.7772747 -0.3075475 0.363102 0.6880857
-0.21929155 -0.26142532 0.57628435 -0.5478694 -0.77747595 0.30882096 0.363102 0.005608395
0.22861823 -0.24905397 0.5608356 0.85131663 0.13382697 -0.50729716 0.005758043 0.7239404
0.3948524 -0.02755657 -0.56080043 0.18779641 -0.83795905 0.5124033 0.6699184 0.8879256
0.39483115 -0.027583547 0.56083566 0.18970661 -0.83779615 -0.511966 0.00575805 0.8879052
-0.15600756 -0.00011034171 -0.6495631 2.5121743e-05 -0.03423885 -0.99941367 0.9265311 0.13498448
0.09002702 -0.087479055 -0.6465642 -3.782667e-05 -0.034214575 -0.9994145 0.8747665 0.28067088
-0.09002865 -0.087479055 -0.6465642 3.782803e-05 -0.03421517 -0.9994145 0.8747665 0.17405346
-0.40408745 -0.015253308 0.5762484 -0.9034245 -0.31596985 0.28980547 0.34064466 0.017019494
-0.41557565 0.000110749075 -0.59539837 -0.7587602 -0.56871384 -0.31756532 0.35197076 0.7107948
-0.40408745 -0.01525353 -0.5762484 -0.90322727 -0.31716442 -0.28911453 0.3406117 0.699455
0.18577768 -0.24779284 -0.64108974 0.35080472 -0.72204864 -0.5963068 0.73638153 0.96012956
0.3715979 -0.00011034502 -0.6292608 0.71633446 -0.5376355 -0.4447617 0.9197184 0.9674076
0.1857744 -0.24744657 -0.62925917 0.38404563 -0.81658524 -0.43092647 0.7365335 0.9671363
0.18577768 -0.24779284 -0.64108974 0.35080472 -0.72204864 -0.5963068 0.7403166 0.908364
-0.1857744 -0.24744657 -0.62925917 -0.384361 -0.81634355 -0.4311031 0.73330814 0.6883547
-0.1857793 -0.24779284 -0.64108974 -0.35130963 -0.7219018 -0.5961875 0.7403165 0.6883521
-0.3715488 -0.000110341716 -0.6495328 -0.6820375 -0.52928615 -0.50465935 0.95378214 0.22539273
-0.1857744 -0.24744657 -0.62925917 -0.384361 -0.81634355 -0.4311031 0.9436214 0.40867168
-0.37159953 0.00010686847 -0.6292608 -0.71679926 -0.53796595 -0.44361186 0.9417775 0.22539273
-0.41478205 -0.02397909 -0.5756446 -0.8199335 0.092544414 -0.5649289 0.38242346 0.6877282
-0.40408745 -0.015253308 0.5762484 -0.9034245 -0.31596985 0.28980547 0.39059654 0.00565402
-0.40408745 -0.01525353 -0.5762484 -0.90322727 -0.31716442 -0.28911453 0.39059654 0.6880857
-0.23498 -0.2635545 0.5674387 -0.9089854 -0.29897365 -0.29044887 0.7139745 0.006704462
-0.22430015 -0.25475228 -0.5679411 -0.8000369 0.101223685 0.5913499 0.7221494 0.6790021
-0.23498 -0.26355454 -0.56743884 -0.9089293 -0.2977751 0.29185197 0.71395427 0.67870444
0.15600756 -0.00011034171 -0.6495631 -2.5121239e-05 -0.034238283 -0.9994138 0.92653114 0.31973997
0.15351553 -0.18242937 -0.64332193 -3.2917807e-05 -0.034156818 -0.9994165 0.8185104 0.31826407
-0.15351553 -0.18242937 -0.64332193 3.291759e-05 -0.03415659 -0.9994165 0.8185104 0.13646053
-0.29083866 -0.00011034171 -0.6495631 -0.00023029748 -0.034294147 -0.9994118 0.9265311 0.055146452
0.24444413 -0.25888708 0.56473726 0.88702935 -0.34922585 -0.302027 0.6791267 0.0103384275
0.23991987 -0.26485842 -0.57218313 0.10552744 -0.7564204 -0.645517 0.68354386 0.68354386
0.24444413 -0.25888732 -0.5647374 0.88659656 -0.35156325 0.30058268 0.67910784 0.6791348
0.20780337 -0.27669185 -0.5954565 0.42541113 -0.829209 -0.36254358 0.2584292 0.9674076
0.3715979 -0.00011034502 -0.6292608 0.71633446 -0.5376355 -0.4447617 0.4476221 0.9385042
0.415574 -0.000110350535 -0.59539837 0.7580445 -0.5705014 -0.31606454 0.46326563 0.9674076
0.1857744 -0.24744657 -0.62925917 0.38404563 -0.81658524 -0.43092647 0.23902678 0.9000639
-0.20780337 -0.27669185 -0.5954565 -0.42542917 -0.8293233 -0.36226115 0.0059755077 0.9265312
-0.1857744 -0.24744657 -0.62925917 -0.384361 -0.81634355 -0.4311031 0.019019669 0.90006393
-0.20780337 -0.27669185 -0.5954565 -0.42542917 -0.8293233 -0.36226115 0.9446986 0.94469845
-0.37159953 0.00010686847 -0.6292608 -0.71679926 -0.53796595 -0.44361186 0.75539464 0.91579175
-0.1857744 -0.24744657 -0.62925917 -0.384361 -0.81634355 -0.4311031 0.93868285 0.9158111
0.18577768 -0.24779284 -0.64108974 0.35080472 -0.72204864 -0.5963068 0.7797838 0.3373684
-0.1857793 -0.24779284 -0.64108974 -0.35130963 -0.7219018 -0.5961875 0.7797838 0.11735614
0.22410215 -0.25507075 -0.5683584 0.50686884 -0.8136697 -0.28465033 0.95831215 0.19516061
0.415574 -0.000110350535 -0.59539837 0.7580445 -0.5705014 -0.31606454 0.9422909 0.006358134
0.3993685 -0.021539837 -0.56832314 0.9138683 -0.23171338 -0.3333971 0.9583241 0.022266347
-0.23498 -0.26355454 -0.56743884 -0.9089293 -0.2977751 0.29185197 0.42236993 0.6832268
-0.23000741 -0.2701237 0.57564616 -0.10682918 -0.820706 0.5612747 0.41751066 0.0063613276
-0.23498 -0.2635545 0.5674387 -0.9089854 -0.29897365 -0.29044887 0.42238924 0.011221417
-0.41478205 -0.02397909 -0.5756446 -0.8199335 0.092544414 -0.5649289 0.9741992 0.976161
-0.21929155 -0.26142555 -0.57628447 -0.54887027 -0.7772747 -0.3075475 0.966025 0.79422337
-0.23005487 -0.270118 -0.5756447 -0.10877022 -0.8206347 -0.56100607 0.97422034 0.7939329
-0.4097882 -0.030575672 -0.5674052 -0.5259856 -0.78956556 0.3161101 0.97194946 0.58553755
-0.23005487 -0.270118 -0.5756447 -0.10877022 -0.8206347 -0.56100607 0.96707577 0.40820748
-0.23498 -0.26355454 -0.56743884 -0.9089293 -0.2977751 0.29185197 0.97193456 0.41306672
-0.40985692 -0.030542316 0.5674388 -0.53024036 -0.7884924 -0.31164876 0.40163267 0.011226945
-0.41478205 -0.02397909 -0.5756446 -0.8199335 0.092544414 -0.5649289 0.4064725 0.6880857
-0.4097882 -0.030575672 -0.5674052 -0.5259856 -0.78956556 0.3161101 0.40157357 0.68320674
0.41068977 -0.03731645 -0.5646604 0.5959312 -0.75808465 0.26490334 0.66764754 0.6790847
0.41521403 -0.031345107 0.5721913 0.7558162 0.17329115 0.6314366 0.6632305 0.005918464
0.4107405 -0.03730682 0.5647373 0.59847677 -0.7570293 -0.26216826 0.6676442 0.010332306
0.3948524 -0.02755657 -0.56080043 0.18779641 -0.83795905 0.5124033 0.5462823 0.9946586
0.24444413 -0.25888732 -0.5647374 0.88659656 -0.35156325 0.30058268 0.38326496 0.98342437
0.41068977 -0.03731645 -0.5646604 0.5959312 -0.75808465 0.26490334 0.5472893 0.9834536
0.23991987 -0.26485842 -0.57218313 0.10552744 -0.7564204 -0.645517 0.96983194 0.0065059024
0.3993685 -0.021539837 -0.56832314 0.9138683 -0.23171338 -0.3333971 0.9810331 0.17841366
0.41521403 -0.031345125 -0.5721913 0.7553553 0.17349032 -0.63193303 0.9698072 0.17940192
0.24444413 -0.25888732 -0.5647374 0.88659656 -0.35156325 0.30058268 0.8403424 0.9811658
0.41521403 -0.031345125 -0.5721913 0.7553553 0.17349032 -0.63193303 0.67188174 0.9855749
0.41068977 -0.03731645 -0.5646604 0.5959312 -0.75808465 0.26490334 0.6763178 0.9811157
0.29083866 -0.00011034171 -0.6495631 0.00023029803 -0.03429458 -0.9994118 0.9265312 0.39957806
-0.40408745 -0.01525353 -0.5762484 -0.90322727 -0.31716442 -0.28911453 0.75166136 0.7011558
-0.20780337 -0.27669185 -0.5954565 -0.42542917 -0.8293233 -0.36226115 0.7630257 0.8947386
-0.21929155 -0.26142555 -0.57628447 -0.54887027 -0.7772747 -0.3075475 0.7516739 0.88342464
-0.22430015 -0.25475228 -0.5679411 -0.8000369 0.101223685 0.5913499 0.006973377 0.9819248
-0.4097882 -0.030575672 -0.5674052 -0.5259856 -0.78956556 0.3161101 0.17906974 0.9901168
-0.23498 -0.26355454 -0.56743884 -0.9089293 -0.2977751 0.29185197 0.006599758 0.9901168
-0.3715488 -0.000110341716 -0.6495328 -0.6820375 -0.52928615 -0.50465935 0.9265306 0.007355267
-0.20774283 -0.27671802 0.59545887 -0.42483732 -0.82962805 0.36225763 0.25203508 0.005611772
0.20780337 -0.27669185 -0.5954565 0.42541113 -0.829209 -0.36254358 0.005975529 0.7107948
0.3715979 -0.00011034553 0.6292608 0.71607226 -0.53790534 0.4448577 0.95378214 0.8039021
0.18583167 -0.24741651 0.6292607 0.38540933 -0.8159241 0.43096107 0.6403966 0.70151573
-0.37159953 0.000107072505 0.6292608 -0.7167106 -0.53793615 0.44379133 0.95378214 0.422962
0.415574 -0.00011034001 0.59539837 0.7578752 -0.5709095 0.31573325 0.21119457 0.93850243
-0.20774283 -0.27671802 0.59545887 -0.42483732 -0.82962805 0.36225763 0.5154966 0.92653114
-0.4155413 0.00010707801 0.5954564 -0.758811 -0.5683332 0.31812465 0.7221493 0.717028
0.3993603 -0.021494208 0.56838536 0.9137852 -0.23367375 0.33225495 0.70625776 0.93323493
-0.23000741 -0.2701237 0.57564616 -0.10682918 -0.820706 0.5612747 0.47825578 0.97194946
-0.23000741 -0.2701237 0.57564616 -0.10682918 -0.820706 0.5612747 0.9670844 0.3928674
0.22861823 -0.24905397 0.5608356 0.85131663 0.13382697 -0.50729716 0.99465847 0.38454556
0.41521403 -0.031345107 0.5721913 0.7558162 0.17329115 0.6314366 0.96525306 0.60503936
0.4107405 -0.03730682 0.5647373 0.59847677 -0.7570293 -0.26216826 0.9857028 0.19942679
0.3715488 -0.0001101443 0.6495328 0.679014 -0.5273821 0.5106937 0.9265306 0.46153718
-0.20774283 -0.27671802 0.59545887 -0.42483732 -0.82962805 0.36225763 0.77889204 0.55864394
-0.39911976 -0.021871774 0.5679738 -0.09422416 -0.8037587 -0.587447 0.19508705 0.98194426
-0.3715488 -0.0001101443 0.6495328 -0.6820661 -0.5292129 0.50469756 0.9265306 0.9015512
0.23996897 -0.2648488 0.57219124 0.10717291 -0.7563942 0.6452766 0.6407149 0.0059181964
0.22410215 -0.25507072 0.5683583 0.50707376 -0.8136936 0.28421652 0.2632524 0.021660313
0.24444413 -0.25888732 -0.5647374 0.88659656 -0.35156325 0.30058268 0.7448584 0.6744602
0.415574 -0.000110350535 -0.59539837 0.7580445 -0.5705014 -0.31606454 0.29066464 0.7107948
0.41521403 -0.031345125 -0.5721913 0.7553553 0.17349032 -0.63193303 0.629042 0.68354386
0.4107405 -0.03730682 0.5647373 0.59847677 -0.7570293 -0.26216826 0.7565275 0.005702262
-0.3990936 -0.021850113 -0.56794107 -0.09228404 -0.80418074 0.58717716 0.60633296 0.67900205
-0.3990936 -0.021850113 -0.56794107 -0.09228404 -0.80418074 0.58717716 0.69467366 0.703982
-0.20780337 -0.27669185 -0.5954565 -0.42542917 -0.8293233 -0.36226115 0.31793505 0.7107948
-0.23005487 -0.270118 -0.5756447 -0.10877022 -0.8206347 -0.56100607 0.37129375 0.6877068
0.2285986 -0.24908203 -0.5608005 0.8515965 0.13450862 0.50664675 0.6699184 0.72391987
-0.4155413 0.00010707801 0.5954564 -0.758811 -0.5683332 0.31812465 0.35199103 0.0056462474
0.3715488 -0.000110341716 -0.6495328 0.6792206 -0.5268579 -0.51096004 0.9197185 0.9554037
0.1857744 -0.24744657 -0.62925917 0.38404563 -0.81658524 -0.43092647 0.73330814 0.90836155
-0.1857793 -0.24779284 -0.64108974 -0.35130963 -0.7219018 -0.5961875 0.9506292 0.4087638
-0.41475588 -0.023957392 0.5756806 -0.8185804 0.094439015 0.56657535 0.38244382 0.005990236
-0.22432795 -0.25477394 0.56797373 -0.7994422 0.10153756 -0.5921 0.7221493 0.0063879155
0.23996897 -0.2648488 0.57219124 0.10717291 -0.7563942 0.6452766 0.6835406 0.0059248395
0.1857744 -0.24744657 -0.62925917 0.38404563 -0.81658524 -0.43092647 0.26443696 0.9385186
0.20780337 -0.27669185 -0.5954565 0.42541113 -0.829209 -0.36254358 0.25207096 0.9265312
-0.41557565 0.000110749075 -0.59539837 -0.7587602 -0.56871384 -0.31756532 0.7397575 0.94469845
0.20780337 -0.27669185 -0.5954565 0.42541113 -0.829209 -0.36254358 0.9422673 0.21119462
-0.23005487 -0.270118 -0.5756447 -0.10877022 -0.8206347 -0.56100607 0.41751066 0.6880857
-0.40408745 -0.01525353 -0.5762484 -0.90322727 -0.31716442 -0.28911453 0.966025 0.9764913
-0.41478205 -0.02397909 -0.5756446 -0.8199335 0.092544414 -0.5649289 0.9670705 0.5904366
-0.41475588 -0.023957392 0.5756806 -0.8185804 0.094439015 0.56657535 0.4064929 0.006346738
0.41521403 -0.031345125 -0.5721913 0.7553553 0.17349032 -0.63193303 0.66321146 0.68354386
0.2285986 -0.24908203 -0.5608005 0.8515965 0.13450862 0.50664675 0.38227645 0.9946586
0.22410215 -0.25507075 -0.5683584 0.50686884 -0.8136697 -0.28465033 0.9810331 0.005519609
0.23991987 -0.26485842 -0.57218313 0.10552744 -0.7564204 -0.645517 0.8447784 0.9855749
0.3715488 -0.000110341716 -0.6495328 0.6792206 -0.5268579 -0.51096004 0.9265306 0.44736925
-0.41557565 0.000110749075 -0.59539837 -0.7587602 -0.56871384 -0.31756532 0.7630012 0.6897966
-0.3990936 -0.021850113 -0.56794107 -0.09228404 -0.80418074 0.58717716 0.17940187 0.9819443
3 0 1 2
3 3 4 5
3 6 7 8
3 9 10 11
3 12 13 14
3 15 16 3
3 17 3 5
3 4 17 5
3 18 19 20
3 21 22 23
3 24 25 26
3 17 27 15
3 28 29 30
3 31 32 33
3 34 35 36
3 37 38 39
3 40 41 42
3 43 44 45
3 27 46 15
3 47 48 49
3 50 51 52
3 53 54 55
3 56 57 17
3 58 59 60
3 61 62 63
3 64 65 66
3 67 68 69
3 70 71 72
3 73 74 75
3 76 77 78
3 79 80 81
3 82 83 84
3 85 86 87
3 88 89 90
3 91 92 93
3 94 95 96
3 97 98 99
3 100 101 102
3 103 104 105
3 106 107 108
3 109 110 111
3 112 113 92
3 92 114 93
3 91 114 115
3 116 117 118
3 119 120 121
3 122 123 124
3 125 126 127
3 114 128 129
3 130 131 132
3 133 134 135
3 136 137 138
3 139 140 141
3 142 143 144
3 145 146 147
3 148 149 150
3 151 152 153
3 154 155 156
3 157 128 113
3 158 159 160
3 161 162 163
3 115 129 164
3 165 2 48
3 48 1 49
3 0 166 1
3 3 16 4
3 6 167 7
3 9 168 10
3 12 169 13
3 15 46 16
3 17 15 3
3 4 56 17
3 18 170 19
3 21 171 22
3 24 172 25
3 17 57 27
3 28 173 29
3 31 174 32
3 34 175 35
3 37 176 38
3 40 177 41
3 43 178 44
3 27 179 46
3 49 1 166
3 47 165 48
3 49 166 47
3 50 180 51
3 53 181 54
3 56 182 57
3 58 183 59
3 61 184 62
3 64 185 65
3 67 186 68
3 70 187 71
3 73 188 74
3 76 189 77
3 79 190 80
3 82 191 83
3 85 192 86
3 88 193 89
3 91 112 92
3 94 194 95
3 97 195 98
3 100 196 101
3 103 197 104
3 106 198 107
3 109 199 110
3 112 157 113
3 92 113 114
3 91 93 114
3 116 200 117
3 119 201 120
3 122 202 123
3 125 203 126
3 114 113 128
3 130 204 131
3 133 205 134
3 136 206 137
3 139 207 140
3 142 208 143
3 145 209 146
3 148 210 149
3 151 211 152
3 154 212 155
3 157 213 128
3 158 214 159
3 161 215 162
3 115 114 129
3 165 0 2
3 48 2 1
