ply
format ascii 1.0
comment Created in Blender version 4.4.0
element vertex 363
property float x
property float y
property float z
property float nx
property float ny
property float nz
property float s
property float t
element face 246
property list uchar uint vertex_indices
end_header
0.082270384 0.0020543209 -0.011227153 0 1 2.9036667e-07 0.57586575 0.57916224
0.08958171 0.0020543162 0.0044083414 0 1 3.1455227e-07 0.6487709 0.54507095
0.096488364 0.0020543162 0.0044083414 0 1 3.092538e-07 0.6487709 0.5128666
0.08645843 0.0020543223 -0.015894836 0 1 2.839352e-07 0.5541012 0.55963415
0.082270384 0.0020543116 0.020043835 0 1 3.029463e-07 0.72167623 0.5791622
0.08645843 0.0020543102 0.024711518 0 1 3.029463e-07 0.7434406 0.55963415
0.05353828 0.00205432 -0.008114236 0 1 2.4535092e-07 0.59038067 0.7131344
0.082270384 0.0020543209 -0.011227153 0 1 3.6505384e-07 0.57586575 0.57916224
0.08645843 0.0020543223 -0.015894836 0 1 3.4366073e-07 0.5541012 0.55963415
0.049367502 0.002054321 -0.011856446 0 1 2.38529e-07 0.57293147 0.732582
0.05353828 0.0020543125 0.016930923 -2.7184258e-08 1 3.029463e-07 0.7071613 0.7131344
0.05353828 0.00205432 -0.008114236 0 1 3.029463e-07 0.59038067 0.7131344
0.049367502 0.002054321 -0.011856446 -4.9683635e-09 1 3.029463e-07 0.57293147 0.732582
0.049367502 0.0020543113 0.020673128 -2.8996123e-08 1 3.029463e-07 0.7246105 0.732582
0.082270384 0.0020543116 0.020043835 -4.054145e-09 1 3.0130187e-07 0.72167623 0.5791622
0.05353828 0.0020543125 0.016930923 -3.5301846e-09 1 2.717455e-07 0.7071613 0.7131344
0.049367502 0.0020543113 0.020673128 -3.614192e-09 1 2.7648437e-07 0.7246105 0.732582
0.08645843 0.0020543102 0.024711518 -4.0832964e-09 1 3.029463e-07 0.7434406 0.55963415
0.08958171 0.0020543162 0.0044083414 -0.5919867 0.756849 0.27700406 0.6487709 0.54507095
0.082270384 0.0020543209 -0.011227153 -0.59035635 0.7584667 0.27605754 0.57586575 0.57916224
0.08164643 0.0013155635 -0.010531744 -0.5904175 0.7584061 0.27609304 0.5791083 0.5820716
0.08863749 0.0013155589 0.0044083414 -0.5920804 0.75675577 0.27705848 0.6487709 0.54947364
0.082270384 0.0020543209 -0.011227153 0.082488336 0.6454296 0.7593525 0.50816727 0.50840616
0.05353828 0.00205432 -0.008114236 0.0818324 0.65023786 0.75531065 0.50816727 0.6400269
0.05417074 0.0013155625 -0.0075467713 0.08184348 0.65015703 0.75537896 0.51161206 0.63680947
0.08164643 0.0013155635 -0.010531744 0.082512915 0.64524853 0.7595038 0.51161194 0.5109483
0.05353828 0.00205432 -0.008114236 0.75963897 0.650345 1.9701962e-07 0.50816727 0.6400269
0.05353828 0.0020543125 0.016930923 0.7596475 0.650335 1.9701658e-07 0.5081673 0.7447394
0.05417074 0.0013155553 0.016363453 0.7596473 0.65033525 1.9701662e-07 0.51161206 0.7436724
0.05417074 0.0013155625 -0.0075467713 0.7596386 0.65034544 1.9701974e-07 0.51161206 0.6437051
0.05353828 0.0020543125 0.016930923 0.08205305 0.65017587 -0.75534004 0.50472254 0.50840616
0.082270384 0.0020543116 0.020043835 0.08227823 0.6453717 -0.75942457 0.50472254 0.6400269
0.08164643 0.0013155544 0.019348426 0.0822746 0.6454499 -0.75935847 0.50816727 0.6374848
0.05417074 0.0013155553 0.016363453 0.08204534 0.6503387 -0.7552006 0.50816727 0.51162386
0.09744495 0.0013155589 0.0044083414 0.5850667 0.7577359 -0.28902128 0.6487709 0.50840616
0.08707889 0.0013155653 -0.01658635 0.5832988 0.75948507 -0.28800175 0.55087686 0.5567411
0.08645843 0.0020543223 -0.015894836 0.58334726 0.75943726 -0.28802967 0.5541012 0.55963415
0.096488364 0.0020543162 0.0044083414 0.5851413 0.7576619 -0.28906435 0.6487709 0.5128666
0.08707889 0.0013155653 -0.01658635 -0.08287518 0.6431782 -0.7612184 0.5403483 0.68823284
0.048738282 0.001315564 -0.01242101 -0.082223125 0.6484117 -0.75683653 0.5403483 0.50840616
0.049367502 0.002054321 -0.011856446 -0.08223125 0.6483469 -0.75689125 0.5369035 0.51103866
0.08645843 0.0020543223 -0.015894836 -0.08289315 0.64303315 -0.761339 0.5369035 0.6850084
0.048738282 0.001315564 -0.01242101 -0.761294 0.64840674 1.9643241e-07 0.5238801 0.50840616
0.048738282 0.0013155536 0.021237692 -0.76128554 0.64841676 1.9643544e-07 0.52388 0.6653501
0.049367502 0.0020543113 0.020673128 -0.76128566 0.64841664 1.9643541e-07 0.5273248 0.66271764
0.049367502 0.002054321 -0.011856446 -0.7612943 0.64840657 1.9643234e-07 0.5273248 0.51103866
0.048738282 0.0013155536 0.021237692 -0.08240123 0.6483596 0.75686187 0.5334589 0.50840616
0.08707889 0.0013155525 0.025403032 -0.0827054 0.6431314 0.76127636 0.5334589 0.68823284
0.08645843 0.0020543102 0.024711518 -0.082701795 0.64319414 0.76122373 0.5369035 0.6850084
0.049367502 0.0020543113 0.020673128 -0.08239357 0.6484899 0.756751 0.5369035 0.51103866
0.082270384 0.0020543116 0.020043835 -0.5903405 0.7584148 -0.27623367 0.72167623 0.5791622
0.08958171 0.0020543162 0.0044083414 -0.592113 0.75679624 -0.27687845 0.6487709 0.54507095
0.08863749 0.0013155589 0.0044083414 -0.59204733 0.7568563 -0.27685457 0.6487709 0.54947364
0.08164643 0.0013155544 0.019348426 -0.59024096 0.75850546 -0.2761974 0.7184337 0.58207154
0.08707889 0.0013155525 0.025403032 0.58328927 0.7594383 0.28814408 0.74666506 0.55674106
0.09744495 0.0013155589 0.0044083414 0.5851602 0.7577018 0.28892118 0.6487709 0.50840616
0.096488364 0.0020543162 0.0044083414 0.5851105 0.7577481 0.28890058 0.6487709 0.5128666
0.08645843 0.0020543102 0.024711518 0.58321416 0.7595079 0.28811288 0.7434406 0.55963415
0.08707889 0.0013155653 -0.01658635 0.89665866 1.3412114e-07 -0.44272253 0.51774603 0.68396145
0.09744495 0.0013155589 0.0044083414 0.89665866 1.3412112e-07 -0.44272247 0.51774603 0.5747849
0.09744495 2.4235707e-08 0.004408341 0.89665866 1.3412114e-07 -0.44272253 0.51161206 0.5747849
0.08707889 3.059597e-08 -0.01658635 0.89665866 1.3412112e-07 -0.44272247 0.51161206 0.68396145
0.048738282 0.0013155536 0.021237692 -1 0 0 0.52388 0.6653501
0.048738282 0.001315564 -0.01242101 -1 0 0 0.5238801 0.50840616
0.048738282 2.9334096e-08 -0.01242101 -1 0 0 0.51774603 0.50840616
0.048738282 1.9137318e-08 0.021237692 -1 0 0 0.51774603 0.6653501
0.048738282 0.001315564 -0.01242101 -0.10800495 3.0117414e-07 -0.99415034 0.5403483 0.50840616
0.08707889 0.0013155653 -0.01658635 -0.108004935 3.0117414e-07 -0.99415034 0.5403483 0.68823284
0.08707889 3.059597e-08 -0.01658635 -0.10800495 3.0117414e-07 -0.99415034 0.5464823 0.68823284
0.048738282 2.9334096e-08 -0.01242101 -0.108004935 3.0117414e-07 -0.99415034 0.5464823 0.50840616
0.08707889 0.0013155525 0.025403032 -0.10800495 -3.0117414e-07 0.99415034 0.5334589 0.68823284
0.048738282 0.0013155536 0.021237692 -0.108004965 -3.0117414e-07 0.99415034 0.5334589 0.50840616
0.048738282 1.9137318e-08 0.021237692 -0.10800496 -3.0117414e-07 0.99415034 0.5273248 0.50840616
0.08707889 1.7875443e-08 0.025403032 -0.108004935 -3.0117414e-07 0.99415034 0.5273248 0.68823284
0.09744495 0.0013155589 0.0044083414 0.89665866 -1.3412114e-07 0.44272253 0.51774603 0.5747849
0.08707889 0.0013155525 0.025403032 0.89665866 -1.3412112e-07 0.44272247 0.51774603 0.50840616
0.08707889 1.7875443e-08 0.025403032 0.89665866 -1.3412114e-07 0.44272253 0.51161194 0.50840616
0.09744495 2.4235707e-08 0.004408341 0.89665866 -1.3412112e-07 0.44272247 0.51161206 0.5747849
0.05417074 0.0013155625 -0.0075467713 1 -0 0 0.65900797 0.5829114
0.05417074 0.0013155553 0.016363453 1 -0 0 0.65900797 0.70808506
0.05417074 2.061395e-08 0.016363453 1 -0 0 0.66621035 0.70808506
0.05417074 2.7857464e-08 -0.0075467713 1 -0 0 0.66621035 0.5829114
0.08164643 0.0013155544 0.019348426 -0.90574056 1.283985e-07 -0.42383257 0.6518055 0.5664025
0.08863749 0.0013155589 0.0044083414 -0.90574056 1.2839851e-07 -0.4238326 0.6518055 0.6217318
0.08863749 2.4235707e-08 0.004408341 -0.90574056 1.283985e-07 -0.42383257 0.65900797 0.6217318
0.08164643 1.9709663e-08 0.019348426 -0.90574056 1.2839851e-07 -0.4238326 0.65900797 0.5664025
0.08863749 0.0013155589 0.0044083414 -0.90574056 -1.283985e-07 0.42383257 0.6518055 0.6217318
0.08164643 0.0013155635 -0.010531744 -0.90574056 -1.2839851e-07 0.4238326 0.6518055 0.70808506
0.08164643 2.876175e-08 -0.010531744 -0.90574056 -1.283985e-07 0.42383257 0.65900797 0.70808506
0.08863749 2.4235707e-08 0.004408341 -0.90574056 -1.2839851e-07 0.4238326 0.65900797 0.6217318
0.05417074 0.0013155553 0.016363453 0.10800501 3.0117414e-07 -0.99415034 0.6374007 0.5633992
0.08164643 0.0013155544 0.019348426 0.10800494 3.0117414e-07 -0.99415034 0.6374007 0.70808506
0.08164643 1.9709663e-08 0.019348426 0.10800494 3.0117414e-07 -0.99415034 0.6446031 0.70808506
0.05417074 2.061395e-08 0.016363453 0.10800501 3.0117414e-07 -0.99415034 0.6446031 0.5633992
0.08164643 0.0013155635 -0.010531744 0.10800501 -3.0117414e-07 0.99415034 0.6446031 0.5633992
0.05417074 0.0013155625 -0.0075467713 0.10800501 -3.0117414e-07 0.99415034 0.6446031 0.70808506
0.05417074 2.7857464e-08 -0.0075467713 0.10800501 -3.0117414e-07 0.99415034 0.6518055 0.70808506
0.08164643 2.876175e-08 -0.010531744 0.10800501 -3.0117414e-07 0.99415034 0.6518055 0.5633992
0.082270384 -0.0020542631 -0.011227153 -0 -1 -3.155259e-07 0.57586575 0.57916224
0.08645843 -0.0020542617 -0.015894836 -0 -1 -3.2195737e-07 0.5541012 0.55963415
0.096488364 -0.0020542678 0.0044083404 0 -1 -2.9663877e-07 0.6487709 0.5128666
0.08958171 -0.0020542678 0.0044083404 0 -1 -2.913403e-07 0.6487709 0.54507095
0.08645843 -0.0020542738 0.024711518 0 -1 -3.029463e-07 0.7434406 0.55963415
0.082270384 -0.0020542725 0.020043835 0 -1 -3.029463e-07 0.72167623 0.5791622
0.05353828 -0.002054264 -0.008114238 -0 -1 -3.6054166e-07 0.59038067 0.7131344
0.049367502 -0.002054263 -0.011856446 -0 -1 -3.6736358e-07 0.57293147 0.732582
0.08645843 -0.0020542617 -0.015894836 0 -1 -2.6223185e-07 0.5541012 0.55963415
0.082270384 -0.0020542631 -0.011227153 0 -1 -2.4083874e-07 0.57586575 0.57916224
0.05353828 -0.0020542715 0.01693092 -2.7184258e-08 -1 -3.029463e-07 0.7071613 0.7131344
0.049367502 -0.0020542727 0.020673128 -2.8996123e-08 -1 -3.029463e-07 0.7246105 0.732582
0.049367502 -0.002054263 -0.011856446 -4.9683635e-09 -1 -3.029463e-07 0.57293147 0.732582
0.05353828 -0.002054264 -0.008114238 0 -1 -3.029463e-07 0.59038067 0.7131344
0.082270384 -0.0020542725 0.020043835 -4.054145e-09 -1 -3.045907e-07 0.72167623 0.5791622
0.08645843 -0.0020542738 0.024711518 -4.0832964e-09 -1 -3.029463e-07 0.7434406 0.55963415
0.049367502 -0.0020542727 0.020673128 -3.614192e-09 -1 -3.294082e-07 0.7246105 0.732582
0.05353828 -0.0020542715 0.01693092 -3.5301846e-09 -1 -3.3414707e-07 0.7071613 0.7131344
0.08958171 -0.0020542678 0.0044083404 -0.5919867 -0.7568491 0.27700362 0.6487709 0.54507095
0.08863749 -0.0013155105 0.0044083404 -0.5920805 -0.756756 0.27705806 0.6487709 0.54947364
0.08164643 -0.001315506 -0.010531744 -0.5904175 -0.7584063 0.2760926 0.5791083 0.5820716
0.082270384 -0.0020542631 -0.011227153 -0.59035635 -0.75846684 0.27605706 0.57586575 0.57916224
0.082270384 -0.0020542631 -0.011227153 0.08248834 -0.6454301 0.75935215 0.50816727 0.50840616
0.08164643 -0.001315506 -0.010531744 0.082512915 -0.64524895 0.75950336 0.51161194 0.5109483
0.05417074 -0.0013155069 -0.0075467713 0.08184349 -0.6501575 0.75537866 0.51161206 0.63680947
0.05353828 -0.002054264 -0.008114238 0.08183242 -0.65023834 0.7553103 0.50816727 0.6400269
0.05353828 -0.002054264 -0.008114238 0.75963897 -0.650345 -1.9701962e-07 0.50816727 0.6400269
0.05417074 -0.0013155069 -0.0075467713 0.7596386 -0.65034544 -1.9701974e-07 0.51161206 0.6437051
0.05417074 -0.0013155141 0.016363453 0.7596473 -0.65033525 -1.9701662e-07 0.51161206 0.7436724
0.05353828 -0.0020542715 0.01693092 0.7596475 -0.650335 -1.9701658e-07 0.5081673 0.7447394
0.05353828 -0.0020542715 0.01693092 0.08205305 -0.65017545 -0.75534046 0.50472254 0.50840616
0.05417074 -0.0013155141 0.016363453 0.08204534 -0.6503383 -0.75520104 0.50816727 0.51162386
0.08164643 -0.001315515 0.019348426 0.0822746 -0.64544946 -0.7593589 0.50816727 0.6374848
0.082270384 -0.0020542725 0.020043835 0.08227823 -0.6453712 -0.759425 0.50472254 0.6400269
0.09744495 -0.0013155105 0.0044083404 0.5850667 -0.7577357 -0.28902173 0.6487709 0.50840616
0.096488364 -0.0020542678 0.0044083404 0.5851413 -0.7576617 -0.2890648 0.6487709 0.5128666
0.08645843 -0.0020542617 -0.015894836 0.5833472 -0.759437 -0.2880301 0.5541012 0.55963415
0.08707889 -0.0013155041 -0.01658635 0.5832988 -0.7594849 -0.2880022 0.55087686 0.5567411
0.08707889 -0.0013155041 -0.01658635 -0.08287517 -0.6431777 -0.7612188 0.5403483 0.68823284
0.08645843 -0.0020542617 -0.015894836 -0.08289314 -0.64303267 -0.76133937 0.5369035 0.6850084
0.049367502 -0.002054263 -0.011856446 -0.082231246 -0.6483464 -0.75689155 0.5369035 0.51103866
0.048738282 -0.0013155054 -0.01242101 -0.082223125 -0.6484113 -0.75683695 0.5403483 0.50840616
0.048738282 -0.0013155054 -0.01242101 -0.761294 -0.64840674 -1.9643241e-07 0.5238801 0.50840616
0.049367502 -0.002054263 -0.011856446 -0.7612943 -0.64840657 -1.9643234e-07 0.5273248 0.51103866
0.049367502 -0.0020542727 0.020673128 -0.76128566 -0.64841664 -1.9643541e-07 0.5273248 0.66271764
0.048738282 -0.0013155154 0.021237692 -0.76128554 -0.64841676 -1.9643544e-07 0.52388 0.6653501
0.048738282 -0.0013155154 0.021237692 -0.08240123 -0.64836 0.75686145 0.5334589 0.50840616
0.049367502 -0.0020542727 0.020673128 -0.08239358 -0.64849037 0.75675064 0.5369035 0.51103866
0.08645843 -0.0020542738 0.024711518 -0.0827018 -0.6431946 0.76122344 0.5369035 0.6850084
0.08707889 -0.0013155169 0.025403032 -0.082705416 -0.64313185 0.761276 0.5334589 0.68823284
0.082270384 -0.0020542725 0.020043835 -0.5903405 -0.7584146 -0.27623412 0.72167623 0.5791622
0.08164643 -0.001315515 0.019348426 -0.59024096 -0.75850534 -0.27619785 0.7184337 0.58207154
0.08863749 -0.0013155105 0.0044083404 -0.59204733 -0.7568562 -0.27685502 0.6487709 0.54947364
0.08958171 -0.0020542678 0.0044083404 -0.592113 -0.75679606 -0.27687892 0.6487709 0.54507095
0.08707889 -0.0013155169 0.025403032 0.5832893 -0.7594385 0.28814366 0.74666506 0.55674106
0.08645843 -0.0020542738 0.024711518 0.58321416 -0.7595081 0.28811243 0.7434406 0.55963415
0.096488364 -0.0020542678 0.0044083404 0.5851105 -0.7577483 0.28890014 0.6487709 0.5128666
0.09744495 -0.0013155105 0.0044083404 0.58516026 -0.75770205 0.28892076 0.6487709 0.50840616
0.08707889 -0.0013155041 -0.01658635 0.89665866 1.3412114e-07 -0.44272253 0.51774603 0.68396145
0.09744495 -0.0013155105 0.0044083404 0.89665866 1.3412112e-07 -0.44272247 0.51774603 0.5747849
0.048738282 -0.0013155154 0.021237692 -1 0 0 0.52388 0.6653501
0.048738282 -0.0013155054 -0.01242101 -1 0 0 0.5238801 0.50840616
0.048738282 -0.0013155054 -0.01242101 -0.10800495 3.0117414e-07 -0.99415034 0.5403483 0.50840616
0.08707889 -0.0013155041 -0.01658635 -0.108004935 3.0117414e-07 -0.99415034 0.5403483 0.68823284
0.08707889 -0.0013155169 0.025403032 -0.10800495 -3.0117414e-07 0.99415034 0.5334589 0.68823284
0.048738282 -0.0013155154 0.021237692 -0.108004965 -3.0117414e-07 0.99415034 0.5334589 0.50840616
0.09744495 -0.0013155105 0.0044083404 0.89665866 -1.3412114e-07 0.44272253 0.51774603 0.5747849
0.08707889 -0.0013155169 0.025403032 0.89665866 -1.3412112e-07 0.44272247 0.51774603 0.50840616
0.05417074 -0.0013155069 -0.0075467713 1 -0 0 0.65900797 0.5829114
0.05417074 -0.0013155141 0.016363453 1 -0 0 0.65900797 0.70808506
0.08164643 -0.001315515 0.019348426 -0.90574056 1.283985e-07 -0.42383257 0.6518055 0.5664025
0.08863749 -0.0013155105 0.0044083404 -0.90574056 1.2839851e-07 -0.4238326 0.6518055 0.6217318
0.08863749 -0.0013155105 0.0044083404 -0.90574056 -1.283985e-07 0.42383257 0.6518055 0.6217318
0.08164643 -0.001315506 -0.010531744 -0.90574056 -1.2839851e-07 0.4238326 0.6518055 0.70808506
0.05417074 -0.0013155141 0.016363453 0.10800501 3.0117414e-07 -0.99415034 0.6374007 0.5633992
0.08164643 -0.001315515 0.019348426 0.10800494 3.0117414e-07 -0.99415034 0.6374007 0.70808506
0.08164643 -0.001315506 -0.010531744 0.10800501 -3.0117414e-07 0.99415034 0.6446031 0.5633992
0.05417074 -0.0013155069 -0.0075467713 0.10800501 -3.0117414e-07 0.99415034 0.6446031 0.70808506
-0.034667764 0.001760851 -0.0075732935 0 1 3.029463e-07 0.39550292 0.38579696
-0.03780412 0.001760851 -0.0075732935 0 1 3.0796173e-07 0.39550292 0.36073732
-0.028395057 0.0017608459 0.009167104 0 1 3.121405e-07 0.2617461 0.43591624
-0.04094047 0.001760851 -0.0075732935 0 1 3.029463e-07 0.39550292 0.33567768
-0.044076826 0.001760851 -0.0075732935 0 1 3.029463e-07 0.39550292 0.31061804
-0.05034953 0.0017608459 0.009167104 0 1 3.1207932e-07 0.2617461 0.2604987
-0.04721318 0.001760851 -0.0075732935 0 1 3.029463e-07 0.39550292 0.28555828
-0.034667764 -0.0017607926 -0.0075732935 0 -1 -3.029463e-07 0.39550292 0.38579696
-0.028395057 -0.0017607977 0.009167103 0 -1 -2.910334e-07 0.2617461 0.43591624
-0.03780412 -0.0017607926 -0.0075732935 0 -1 -2.996027e-07 0.39550292 0.36073732
-0.04094047 -0.0017607926 -0.0075732935 0 -1 -3.029463e-07 0.39550292 0.33567768
-0.05034953 -0.0017607977 0.009167103 0 -1 -2.9381323e-07 0.2617461 0.2604987
-0.044076826 -0.0017607926 -0.0075732935 0 -1 -3.029463e-07 0.39550292 0.31061804
-0.04721318 -0.0017607926 -0.0075732935 0 -1 -3.029463e-07 0.39550292 0.28555828
-0.034667764 0.0017608522 -0.011606554 0 1 3.029463e-07 0.4277289 0.38579696
-0.028395057 0.0017608525 -0.012718219 0 1 3.029463e-07 0.43661118 0.43591624
-0.05034953 0.0017608459 0.009167104 0 1 3.029463e-07 0.2617461 0.2604987
-0.04721318 0.001760851 -0.0075732935 0 1 3.029463e-07 0.39550292 0.28555828
-0.04721318 0.0017608516 -0.009775719 0 1 3.029463e-07 0.41310036 0.28555828
-0.05034953 0.0017608516 -0.009775719 0 1 3.029463e-07 0.41310036 0.2604987
-0.04094047 0.0017608531 -0.014587086 0 1 3.029463e-07 0.4515435 0.33567768
-0.044076826 0.0017608531 -0.014587086 0 1 3.029463e-07 0.4515435 0.31061804
-0.03780412 0.001760851 -0.0075732935 0 1 3.029463e-07 0.39550292 0.36073732
-0.034667764 0.001760851 -0.0075732935 0 1 3.029463e-07 0.39550292 0.38579696
-0.034667764 0.0017608522 -0.011606554 0 1 3.029463e-07 0.4277289 0.38579696
-0.03780412 0.0017608522 -0.011608135 0 1 3.029463e-07 0.42774153 0.36073732
-0.03153141 0.0017608525 -0.012718219 0 1 3.029463e-07 0.43661118 0.4108566
-0.028395057 0.0017608538 -0.01713337 0 1 3.029463e-07 0.47188848 0.43591624
-0.03153141 0.0017608538 -0.01713337 0 1 3.029463e-07 0.47188848 0.4108566
-0.034667764 0.0017608525 -0.012718219 0 1 3.029463e-07 0.43661118 0.3857969
-0.028395057 0.0017608525 -0.012718219 1 -0 0 0.43661118 0.43591624
-0.028395057 0.0017608459 0.009167104 1 -0 0 0.2617461 0.43591624
-0.028395057 2.4122281e-08 0.009167103 1 -0 0 0.2617461 0.44998538
-0.028395057 3.075236e-08 -0.012718219 1 -0 0 0.43661118 0.44998538
-0.04094047 0.001760851 -0.0075732935 -0 3.029463e-07 -1 0.31186545 0.4781235
-0.03780412 0.001760851 -0.0075732935 -0 3.029463e-07 -1 0.2868058 0.4781235
-0.03780412 2.9193723e-08 -0.0075732935 -0 3.029463e-07 -1 0.2868058 0.49219257
-0.04094047 2.9193723e-08 -0.0075732935 -0 3.029463e-07 -1 0.31186545 0.49219257
-0.04721318 0.001760851 -0.0075732935 -0 3.029463e-07 -1 0.41310036 0.4781235
-0.044076826 0.001760851 -0.0075732935 -0 3.029463e-07 -1 0.38804078 0.4781235
-0.044076826 2.9193723e-08 -0.0075732935 -0 3.029463e-07 -1 0.38804078 0.49219257
-0.04721318 2.9193723e-08 -0.0075732935 -0 3.029463e-07 -1 0.41310042 0.49219257
-0.05034953 0.0017608516 -0.009775719 -0 3.029463e-07 -1 0.49420065 0.4640544
-0.04721318 0.0017608516 -0.009775719 -0 3.029463e-07 -1 0.469141 0.4640544
-0.04721318 2.986094e-08 -0.009775719 -0 3.029463e-07 -1 0.469141 0.4781235
-0.05034953 2.986094e-08 -0.009775719 -0 3.029463e-07 -1 0.49420065 0.4781235
-0.034667764 0.0017608525 -0.012718219 -0 3.029463e-07 -1 0.38804078 0.4781235
-0.03153141 0.0017608525 -0.012718219 -0 3.029463e-07 -1 0.36298114 0.4781235
-0.03153141 3.075236e-08 -0.012718219 -0 3.029463e-07 -1 0.36298114 0.49219257
-0.034667764 3.075236e-08 -0.012718219 -0 3.029463e-07 -1 0.38804078 0.49219257
-0.044076826 0.0017608531 -0.014587086 -0 3.029463e-07 -1 0.36298114 0.4781235
-0.04094047 0.0017608531 -0.014587086 -0 3.029463e-07 -1 0.33792144 0.4781235
-0.04094047 3.1318525e-08 -0.014587086 -0 3.029463e-07 -1 0.33792144 0.49219257
-0.044076826 3.1318525e-08 -0.014587086 -0 3.029463e-07 -1 0.36298114 0.49219257
-0.028395057 0.0017608538 -0.01713337 1 -0 0 0.47188848 0.43591624
-0.028395057 3.208991e-08 -0.01713337 1 -0 0 0.47188848 0.44998538
-0.05034953 0.0017608459 0.009167104 -1 0 0 0.41310036 0.4640544
-0.05034953 0.0017608516 -0.009775719 -1 0 0 0.2617461 0.4640544
-0.05034953 2.986094e-08 -0.009775719 -1 0 0 0.2617461 0.4781235
-0.05034953 2.4122281e-08 0.009167103 -1 0 0 0.41310036 0.4781235
-0.04721318 0.0017608516 -0.009775719 1 -0 0 0.48948604 0.43591624
-0.04721318 0.001760851 -0.0075732935 1 -0 0 0.47188848 0.43591624
-0.04721318 2.9193723e-08 -0.0075732935 1 -0 0 0.47188848 0.44998538
-0.04721318 2.986094e-08 -0.009775719 1 -0 0 0.48948604 0.44998538
-0.044076826 0.001760851 -0.0075732935 -1 0 0 0.469141 0.4640544
-0.044076826 0.0017608531 -0.014587086 -1 0 0 0.41310036 0.4640544
-0.044076826 3.1318525e-08 -0.014587086 -1 0 0 0.41310036 0.4781235
-0.044076826 2.9193723e-08 -0.0075732935 -1 0 0 0.469141 0.4781235
-0.04094047 0.0017608531 -0.014587086 1 -0 0 0.4932043 0.44998538
-0.04094047 0.001760851 -0.0075732935 1 -0 0 0.4371637 0.44998538
-0.04094047 2.9193723e-08 -0.0075732935 1 -0 0 0.4371637 0.4640544
-0.04094047 3.1318525e-08 -0.014587086 1 -0 0 0.4932043 0.4640544
-0.03780412 0.001760851 -0.0075732935 -1 0 0 0.44837773 0.49219257
-0.03780412 0.0017608522 -0.011608135 -1 0 0 0.48061633 0.49219257
-0.03780412 3.0416064e-08 -0.011608135 -1 0 0 0.48061633 0.4781235
-0.03780412 2.9193723e-08 -0.0075732935 -1 0 0 0.44837773 0.4781235
-0.03153141 0.0017608538 -0.01713337 -0 3.029463e-07 -1 0.2868058 0.4781235
-0.028395057 0.0017608538 -0.01713337 -0 3.029463e-07 -1 0.2617461 0.4781235
-0.028395057 3.208991e-08 -0.01713337 -0 3.029463e-07 -1 0.2617461 0.49219257
-0.03153141 3.208991e-08 -0.01713337 -0 3.029463e-07 -1 0.2868058 0.49219257
-0.03153141 0.0017608525 -0.012718219 -1 0 0 0.44837773 0.4781235
-0.03153141 0.0017608538 -0.01713337 -1 0 0 0.41310036 0.4781235
-0.03153141 3.208991e-08 -0.01713337 -1 0 0 0.41310042 0.49219257
-0.03153141 3.075236e-08 -0.012718219 -1 0 0 0.44837773 0.49219257
-0.034667764 0.0017608522 -0.011606554 -1 0 0 0.48595756 0.26938093
-0.034667764 0.0017608525 -0.012718219 -1 0 0 0.48595756 0.2604987
-0.034667764 3.075236e-08 -0.012718219 -1 0 0 0.47188848 0.2604987
-0.034667764 3.0415585e-08 -0.011606554 -1 0 0 0.47188848 0.26938093
-0.03780412 0.0017608522 -0.011608135 0.0005040987 3.0294623e-07 -0.9999998 0.3369251 0.4781235
-0.034667764 0.0017608522 -0.011606554 0.0005047109 3.0294623e-07 -0.9999998 0.31186545 0.4781235
-0.034667764 3.0415585e-08 -0.011606554 0.0005044152 3.0294623e-07 -0.9999998 0.31186545 0.49219257
-0.03780412 3.0416064e-08 -0.011608135 0.00050380314 3.0294623e-07 -0.9999998 0.33692515 0.49219257
-0.028395057 0.0017608459 0.009167104 0 -3.029463e-07 1 0.4371637 0.44998538
-0.05034953 0.0017608459 0.009167104 0 -3.029463e-07 1 0.2617461 0.44998538
-0.05034953 2.4122281e-08 0.009167103 0 -3.029463e-07 1 0.2617461 0.46405447
-0.028395057 2.4122281e-08 0.009167103 0 -3.029463e-07 1 0.4371637 0.4640544
-0.034667764 -0.0017607914 -0.011606554 0 -1 -3.029463e-07 0.4277289 0.38579696
-0.028395057 -0.001760791 -0.012718219 0 -1 -3.029463e-07 0.43661118 0.43591624
-0.028395057 -0.0017607977 0.009167103 0 -1 -3.029463e-07 0.2617461 0.43591624
-0.034667764 -0.0017607926 -0.0075732935 0 -1 -3.029463e-07 0.39550292 0.38579696
-0.05034953 -0.0017607977 0.009167103 0 -1 -3.029463e-07 0.2617461 0.2604987
-0.05034953 -0.001760792 -0.009775719 0 -1 -3.029463e-07 0.41310036 0.2604987
-0.04721318 -0.001760792 -0.009775719 0 -1 -3.029463e-07 0.41310036 0.28555828
-0.04721318 -0.0017607926 -0.0075732935 0 -1 -3.029463e-07 0.39550292 0.28555828
-0.044076826 -0.0017607905 -0.014587086 0 -1 -3.029463e-07 0.4515435 0.31061804
-0.04094047 -0.0017607905 -0.014587086 0 -1 -3.029463e-07 0.4515435 0.33567768
-0.03780412 -0.0017607914 -0.011608135 0 -1 -3.029463e-07 0.42774153 0.36073732
-0.034667764 -0.0017607914 -0.011606554 0 -1 -3.029463e-07 0.4277289 0.38579696
-0.03153141 -0.001760791 -0.012718219 0 -1 -3.029463e-07 0.43661118 0.4108566
-0.03153141 -0.0017607898 -0.01713337 0 -1 -3.029463e-07 0.47188848 0.4108566
-0.028395057 -0.0017607898 -0.01713337 0 -1 -3.029463e-07 0.47188848 0.43591624
-0.028395057 -0.001760791 -0.012718219 0 -1 -3.029463e-07 0.43661118 0.43591624
-0.034667764 -0.001760791 -0.012718219 0 -1 -3.029463e-07 0.43661118 0.3857969
-0.028395057 -0.001760791 -0.012718219 1 -0 0 0.43661118 0.43591624
-0.028395057 -0.0017607977 0.009167103 1 -0 0 0.2617461 0.43591624
-0.04094047 -0.0017607926 -0.0075732935 -0 3.029463e-07 -1 0.31186545 0.4781235
-0.03780412 -0.0017607926 -0.0075732935 -0 3.029463e-07 -1 0.2868058 0.4781235
-0.04721318 -0.0017607926 -0.0075732935 -0 3.029463e-07 -1 0.41310036 0.4781235
-0.044076826 -0.0017607926 -0.0075732935 -0 3.029463e-07 -1 0.38804078 0.4781235
-0.05034953 -0.001760792 -0.009775719 -0 3.029463e-07 -1 0.49420065 0.4640544
-0.04721318 -0.001760792 -0.009775719 -0 3.029463e-07 -1 0.469141 0.4640544
-0.034667764 -0.001760791 -0.012718219 -0 3.029463e-07 -1 0.38804078 0.4781235
-0.03153141 -0.001760791 -0.012718219 -0 3.029463e-07 -1 0.36298114 0.4781235
-0.044076826 -0.0017607905 -0.014587086 -0 3.029463e-07 -1 0.36298114 0.4781235
-0.04094047 -0.0017607905 -0.014587086 -0 3.029463e-07 -1 0.33792144 0.4781235
-0.028395057 -0.0017607898 -0.01713337 1 -0 0 0.47188848 0.43591624
-0.05034953 -0.0017607977 0.009167103 -1 0 0 0.41310036 0.4640544
-0.05034953 -0.001760792 -0.009775719 -1 0 0 0.2617461 0.4640544
-0.04721318 -0.001760792 -0.009775719 1 -0 0 0.48948604 0.43591624
-0.04721318 -0.0017607926 -0.0075732935 1 -0 0 0.47188848 0.43591624
-0.044076826 -0.0017607926 -0.0075732935 -1 0 0 0.469141 0.4640544
-0.044076826 -0.0017607905 -0.014587086 -1 0 0 0.41310036 0.4640544
-0.04094047 -0.0017607905 -0.014587086 1 -0 0 0.4932043 0.44998538
-0.04094047 -0.0017607926 -0.0075732935 1 -0 0 0.4371637 0.44998538
-0.03780412 -0.0017607926 -0.0075732935 -1 0 0 0.44837773 0.49219257
-0.03780412 -0.0017607914 -0.011608135 -1 0 0 0.48061633 0.49219257
-0.03153141 -0.0017607898 -0.01713337 -0 3.029463e-07 -1 0.2868058 0.4781235
-0.028395057 -0.0017607898 -0.01713337 -0 3.029463e-07 -1 0.2617461 0.4781235
-0.03153141 -0.001760791 -0.012718219 -1 0 0 0.44837773 0.4781235
-0.03153141 -0.0017607898 -0.01713337 -1 0 0 0.41310036 0.4781235
-0.034667764 -0.0017607914 -0.011606554 -1 0 0 0.48595756 0.26938093
-0.034667764 -0.001760791 -0.012718219 -1 0 0 0.48595756 0.2604987
-0.03780412 -0.0017607914 -0.011608135 0.0005040987 3.0294623e-07 -0.9999998 0.3369251 0.4781235
-0.034667764 -0.0017607914 -0.011606554 0.0005047109 3.0294623e-07 -0.9999998 0.31186545 0.4781235
-0.028395057 -0.0017607977 0.009167103 0 -3.029463e-07 1 0.4371637 0.44998538
-0.05034953 -0.0017607977 0.009167103 0 -3.029463e-07 1 0.2617461 0.44998538
0.05231091 -0.0020204908 0.0055067446 0.99333185 -0.099844076 0.057645865 0.78280395 0.95855296
0.05231091 -0.00202049 0.003173651 0.99333185 -0.099844046 -0.05764591 0.8321129 0.9870215
0.0525817 2.8608753e-08 0.004340198 1 -2.4105389e-09 6.0263425e-09 0.8321129 0.9300844
0.05231091 2.9315554e-08 0.0020071045 0.9933316 3.847949e-08 -0.11529177 0.8814219 0.95855296
0.05231091 0.002020548 0.0031736516 0.99333185 0.09984409 -0.05764586 0.8814219 0.9016158
0.05231091 0.0020205472 0.005506745 0.99333185 0.099844046 0.057645917 0.8321129 0.87314725
0.05231091 2.7901951e-08 0.0066732913 0.9933316 -4.9136336e-08 0.11529179 0.78280395 0.90161586
-0.052824628 1.8795792e-08 0.0078618275 -0.39960182 0.45834416 0.7938759 0.22433609 0.9625157
0.050147884 2.7541883e-08 0.0078618415 0.20174031 0.4897192 0.8482192 0.22433609 0.047416925
0.050147884 0.0030498619 0.00610102 0.23138842 0.8425174 0.48644003 0.19135734 0.047416925
-0.052824628 0.003049853 0.006101006 -0.44960737 0.7735591 0.44660878 0.19135734 0.9625157
0.050147884 0.0030498628 0.0025793768 0.23138872 0.84252775 -0.48642188 0.15814692 0.047416925
-0.052824628 0.003049854 0.0025793626 -0.449607 0.77355444 -0.4466174 0.15814692 0.9625157
0.050147884 2.9675622e-08 0.00081855454 0.23138879 1.0158373e-05 -0.9728614 0.12493653 0.047416925
-0.052824628 2.092953e-08 0.00081854034 -0.44960722 -5.160094e-06 -0.8932263 0.12493653 0.9625157
0.050147884 -0.0030498046 0.0025793756 0.23138869 -0.84251744 -0.48643965 0.09195775 0.047416925
-0.052824628 -0.0030498134 0.0025793617 -0.44960713 -0.7735593 -0.44660878 0.09195775 0.9625157
0.050147884 -0.0030498055 0.006101019 0.23138855 -0.8425279 0.4864216 0.05874735 0.047416925
-0.052824628 -0.0030498144 0.006101005 -0.449607 -0.77355415 0.4466178 0.05874735 0.9625157
0.050147884 2.7541883e-08 0.0078618415 0.20174581 -0.48971894 0.8482181 0.025536947 0.047416925
-0.052824628 1.8795792e-08 0.0078618275 -0.3995968 -0.4583454 0.7938778 0.025536947 0.9625157
-0.054068524 -0.0010775272 0.0049623055 -0.8776235 -0.41512898 0.23967668 0.05874735 0.98557675
-0.054068524 -0.0010775267 0.0037180618 -0.8776241 -0.41512963 -0.23967344 0.09195775 0.98557675
-0.054068524 0.0010775664 0.0049623055 -0.8776255 0.4151266 0.23967338 0.19135734 0.98557675
-0.054068524 1.9485721e-08 0.005584427 -0.84582996 0.26672378 0.46198496 0.22433609 0.98557675
-0.054068524 2.02396e-08 0.0030959402 -0.87762356 -3.1377706e-06 -0.47935036 0.12493653 0.98557675
-0.054068524 0.0010775669 0.0037180623 -0.8776241 0.41512775 -0.23967686 0.15814692 0.98557675
-0.054068524 1.9485721e-08 0.005584427 -0.8458291 -0.26672733 0.4619844 0.025536947 0.98557675
-0.054068524 -0.0010775272 0.0049623055 -1 0 0 0.9502646 0.92578673
-0.054068524 1.9485721e-08 0.005584427 -1 0 0 0.9240848 0.94090164
-0.054068524 0.0010775664 0.0049623055 -1 0 0 0.9240848 0.9711315
-0.054068524 0.0010775669 0.0037180623 -1 0 0 0.9502646 0.9862464
-0.054068524 -0.0010775267 0.0037180618 -1 0 0 0.97644436 0.94090164
-0.054068524 2.02396e-08 0.0030959402 -1 0 0 0.97644436 0.9711315
0.05231091 0.002020548 0.0031736516 0.48157287 0.758991 -0.4382012 0.15814692 0.025483727
0.05231091 2.9315554e-08 0.0020071045 0.48157263 2.1620112e-06 -0.87640613 0.12493653 0.025483727
0.05231091 -0.0020204908 0.0055067446 0.48157287 -0.758991 0.43820113 0.05874735 0.025483727
0.05231091 2.7901951e-08 0.0066732913 0.4296968 -0.45148647 0.78199786 0.025536947 0.025483727
0.05231091 2.7901951e-08 0.0066732913 0.42969662 0.45148632 0.78199804 0.22433609 0.025483727
0.05231091 0.0020205472 0.005506745 0.48157263 0.7589887 0.43820542 0.19135734 0.025483727
0.05231091 -0.00202049 0.003173651 0.48157272 -0.7589887 -0.43820542 0.09195775 0.025483727
3 0 1 2
3 0 2 3
3 1 4 5
3 1 5 2
3 6 7 8
3 6 8 9
3 10 11 12
3 10 12 13
3 14 15 16
3 14 16 17
3 18 19 20
3 18 20 21
3 22 23 24
3 22 24 25
3 26 27 28
3 26 28 29
3 30 31 32
3 30 32 33
3 34 35 36
3 34 36 37
3 38 39 40
3 38 40 41
3 42 43 44
3 42 44 45
3 46 47 48
3 46 48 49
3 50 51 52
3 50 52 53
3 54 55 56
3 54 56 57
3 58 59 60
3 58 60 61
3 62 63 64
3 62 64 65
3 66 67 68
3 66 68 69
3 70 71 72
3 70 72 73
3 74 75 76
3 74 76 77
3 78 79 80
3 78 80 81
3 82 83 84
3 82 84 85
3 86 87 88
3 86 88 89
3 90 91 92
3 90 92 93
3 94 95 96
3 94 96 97
3 98 99 100
3 98 100 101
3 101 100 102
3 101 102 103
3 104 105 106
3 104 106 107
3 108 109 110
3 108 110 111
3 112 113 114
3 112 114 115
3 116 117 118
3 116 118 119
3 120 121 122
3 120 122 123
3 124 125 126
3 124 126 127
3 128 129 130
3 128 130 131
3 132 133 134
3 132 134 135
3 136 137 138
3 136 138 139
3 140 141 142
3 140 142 143
3 144 145 146
3 144 146 147
3 148 149 150
3 148 150 151
3 152 153 154
3 152 154 155
3 156 61 60
3 156 60 157
3 158 65 64
3 158 64 159
3 160 69 68
3 160 68 161
3 162 73 72
3 162 72 163
3 164 77 76
3 164 76 165
3 166 81 80
3 166 80 167
3 168 85 84
3 168 84 169
3 170 89 88
3 170 88 171
3 172 93 92
3 172 92 173
3 174 97 96
3 174 96 175
3 176 177 178
3 179 180 181
3 180 182 181
3 183 184 185
3 186 187 188
3 188 187 189
3 177 179 181
3 177 181 178
3 190 176 178
3 190 178 191
3 192 193 194
3 192 194 195
3 180 179 196
3 180 196 197
3 198 199 200
3 198 200 201
3 202 191 203
3 202 203 204
3 191 205 190
3 206 207 208
3 206 208 209
3 210 211 212
3 210 212 213
3 214 215 216
3 214 216 217
3 218 219 220
3 218 220 221
3 222 223 224
3 222 224 225
3 226 227 228
3 226 228 229
3 230 206 209
3 230 209 231
3 232 233 234
3 232 234 235
3 236 237 238
3 236 238 239
3 240 241 242
3 240 242 243
3 244 245 246
3 244 246 247
3 248 249 250
3 248 250 251
3 252 253 254
3 252 254 255
3 256 257 258
3 256 258 259
3 260 261 262
3 260 262 263
3 264 265 266
3 264 266 267
3 268 269 270
3 268 270 271
3 185 184 187
3 185 187 186
3 272 273 274
3 272 274 275
3 276 277 278
3 276 278 279
3 188 280 281
3 188 281 186
3 185 282 283
3 185 283 183
3 284 285 286
3 284 286 287
3 287 283 288
3 289 209 208
3 289 208 290
3 291 213 212
3 291 212 292
3 293 217 216
3 293 216 294
3 295 221 220
3 295 220 296
3 297 225 224
3 297 224 298
3 299 229 228
3 299 228 300
3 301 231 209
3 301 209 289
3 302 235 234
3 302 234 303
3 304 239 238
3 304 238 305
3 306 243 242
3 306 242 307
3 308 247 246
3 308 246 309
3 310 251 250
3 310 250 311
3 312 255 254
3 312 254 313
3 314 259 258
3 314 258 315
3 316 263 262
3 316 262 317
3 318 267 266
3 318 266 319
3 320 271 270
3 320 270 321
3 322 323 324
3 325 326 324
3 327 328 324
3 328 322 324
3 323 325 324
3 326 327 324
3 329 330 331
3 329 331 332
3 332 331 333
3 332 333 334
3 334 333 335
3 334 335 336
3 336 335 337
3 336 337 338
3 338 337 339
3 338 339 340
3 340 339 341
3 340 341 342
3 338 340 343
3 338 343 344
3 329 332 345
3 329 345 346
3 334 336 347
3 334 347 348
3 340 342 349
3 340 349 343
3 336 338 344
3 336 344 347
3 332 334 348
3 332 348 345
3 350 351 352
3 350 352 353
3 354 350 353
3 354 353 355
3 335 333 356
3 335 356 357
3 341 339 358
3 341 358 359
3 331 330 360
3 331 360 361
3 337 335 357
3 337 357 362
3 333 331 361
3 333 361 356
3 339 337 362
3 339 362 358
