ply
format ascii 1.0
comment Created in Blender version 4.4.0
element vertex 319
property float x
property float y
property float z
property float nx
property float ny
property float nz
property float s
property float t
element face 226
property list uchar uint vertex_indices
end_header
0.05231091 -0.002020515 0.0011665536 0.99333185 -0.099844076 0.057645865 0.78280395 0.95855296
0.05231091 -0.002020514 -0.00116654 0.99333185 -0.099844046 -0.05764591 0.8321129 0.9870215
0.0525817 4.373046e-09 7.0720403e-09 1 -2.4105389e-09 6.0263425e-09 0.8321129 0.9300844
0.05231091 5.079848e-09 -0.0023330864 0.9933316 3.847949e-08 -0.11529177 0.8814219 0.95855296
0.05231091 0.0020205239 -0.0011665394 0.99333185 0.09984409 -0.05764586 0.8814219 0.9016158
0.05231091 0.002020523 0.0011665542 0.99333185 0.099844046 0.057645917 0.8321129 0.87314725
0.05231091 3.666244e-09 0.0023331007 0.9933316 -4.9136336e-08 0.11529179 0.78280395 0.90161586
-0.052824628 -5.4399147e-09 0.0035216364 -0.39960182 0.45834416 0.7938759 0.22433609 0.9625157
0.050147884 3.306177e-09 0.0035216506 0.20174031 0.4897192 0.8482192 0.22433609 0.047416925
0.050147884 0.0030498377 0.0017608294 0.23138842 0.8425174 0.48644003 0.19135734 0.047416925
-0.052824628 0.0030498288 0.0017608152 -0.44960737 0.7735591 0.44660878 0.19135734 0.9625157
0.050147884 0.0030498386 -0.0017608141 0.23138872 0.84252775 -0.48642188 0.15814692 0.047416925
-0.052824628 0.0030498297 -0.0017608283 -0.449607 0.77355444 -0.4466174 0.15814692 0.9625157
0.050147884 5.4399147e-09 -0.0035216364 0.23138879 1.0158373e-05 -0.9728614 0.12493653 0.047416925
-0.052824628 -3.306177e-09 -0.0035216506 -0.44960722 -5.160094e-06 -0.8932263 0.12493653 0.9625157
0.050147884 -0.0030498288 -0.0017608152 0.23138869 -0.84251744 -0.48643965 0.09195775 0.047416925
-0.052824628 -0.0030498377 -0.0017608294 -0.44960713 -0.7735593 -0.44660878 0.09195775 0.9625157
0.050147884 -0.0030498297 0.0017608283 0.23138855 -0.8425279 0.4864216 0.05874735 0.047416925
-0.052824628 -0.0030498386 0.0017608141 -0.449607 -0.77355415 0.4466178 0.05874735 0.9625157
0.050147884 3.306177e-09 0.0035216506 0.20174581 -0.48971894 0.8482181 0.025536947 0.047416925
-0.052824628 -5.4399147e-09 0.0035216364 -0.3995968 -0.4583454 0.7938778 0.025536947 0.9625157
-0.054068524 -0.0010775514 0.0006221145 -0.8776235 -0.41512898 0.23967668 0.05874735 0.98557675
-0.054068524 -0.0010775509 -0.00062212895 -0.8776241 -0.41512963 -0.23967344 0.09195775 0.98557675
-0.054068524 0.0010775422 0.00062211487 -0.8776255 0.4151266 0.23967338 0.19135734 0.98557675
-0.054068524 -4.749985e-09 0.0012442364 -0.84582996 0.26672378 0.46198496 0.22433609 0.98557675
-0.054068524 -3.996107e-09 -0.0012442506 -0.87762356 -3.1377706e-06 -0.47935036 0.12493653 0.98557675
-0.054068524 0.0010775427 -0.0006221286 -0.8776241 0.41512775 -0.23967686 0.15814692 0.98557675
-0.054068524 -4.749985e-09 0.0012442364 -0.8458291 -0.26672733 0.4619844 0.025536947 0.98557675
-0.054068524 -0.0010775514 0.0006221145 -1 0 0 0.9502646 0.92578673
-0.054068524 -4.749985e-09 0.0012442364 -1 0 0 0.9240848 0.94090164
-0.054068524 0.0010775422 0.00062211487 -1 0 0 0.9240848 0.9711315
-0.054068524 0.0010775427 -0.0006221286 -1 0 0 0.9502646 0.9862464
-0.054068524 -0.0010775509 -0.00062212895 -1 0 0 0.97644436 0.94090164
-0.054068524 -3.996107e-09 -0.0012442506 -1 0 0 0.97644436 0.9711315
0.05231091 0.0020205239 -0.0011665394 0.48157287 0.758991 -0.4382012 0.15814692 0.025483727
0.05231091 5.079848e-09 -0.0023330864 0.48157263 2.1620112e-06 -0.87640613 0.12493653 0.025483727
0.05231091 -0.002020515 0.0011665536 0.48157287 -0.758991 0.43820113 0.05874735 0.025483727
0.05231091 3.666244e-09 0.0023331007 0.4296968 -0.45148647 0.78199786 0.025536947 0.025483727
0.05231091 3.666244e-09 0.0023331007 0.42969662 0.45148632 0.78199804 0.22433609 0.025483727
0.05231091 0.002020523 0.0011665542 0.48157263 0.7589887 0.43820542 0.19135734 0.025483727
0.05231091 -0.002020514 -0.00116654 0.48157272 -0.7589887 -0.43820542 0.09195775 0.025483727
0.08254065 0.002054297 -0.015936723 0 1 2.9710432e-07 0.28004473 0.7113656
0.08254065 0.0020542871 0.015936723 -2.0691238e-09 1 3.016019e-07 0.28004473 0.5414033
0.086184666 0.002054286 0.019998055 -2.0713082e-09 1 3.029463e-07 0.26061338 0.51974666
0.086184666 0.002054298 -0.019998055 0 1 3.0351254e-07 0.26061338 0.73302233
0.053276513 0.002054296 -0.012757451 0 1 3.3832754e-07 0.4360932 0.69441247
0.04963251 0.002054297 -0.016027011 -2.5250781e-09 1 3.4036384e-07 0.4555245 0.71184707
0.053276513 0.002054288 0.012757454 -1.7942702e-08 1 2.7373665e-07 0.4360932 0.5583565
0.04963251 0.0020542871 0.016027011 -1.8869853e-08 1 2.775967e-07 0.4555245 0.5409218
0.08254065 0.0020542871 0.015936723 -0.7071043 0.7071092 2.1421612e-07 0.28004473 0.5414033
0.08254065 0.002054297 -0.015936723 -0.7071113 0.7071022 2.1421396e-07 0.28004473 0.7113656
0.08164643 0.0011600695 -0.014940085 -0.7071112 0.70710236 2.1421403e-07 0.2848131 0.7060511
0.08164643 0.0011600604 0.014940085 -0.707104 0.7071096 2.1421621e-07 0.2848131 0.54671776
0.08254065 0.002054297 -0.015936723 0.076371014 0.7071068 0.70297045 0.28004473 0.7113656
0.053276513 0.002054296 -0.012757451 0.076371126 0.70710605 0.7029711 0.4360932 0.69441247
0.05417074 0.0011600686 -0.011955112 0.076371126 0.70710605 0.7029711 0.43132478 0.69013405
0.08164643 0.0011600695 -0.014940085 0.07637101 0.7071069 0.7029704 0.2848131 0.7060511
0.053276513 0.002054296 -0.012757451 0.7071029 0.70711064 2.1421653e-07 0.4360932 0.69441247
0.053276513 0.002054288 0.012757454 0.7071057 0.7071077 2.1421567e-07 0.4360932 0.5583565
0.05417074 0.0011600613 0.011955113 0.70710564 0.70710784 2.1421569e-07 0.43132478 0.5626348
0.05417074 0.0011600686 -0.011955112 0.7071028 0.7071108 2.1421661e-07 0.43132478 0.69013405
0.053276513 0.002054288 0.012757454 0.07637101 0.70710725 -0.7029699 0.4360932 0.5583565
0.08254065 0.0020542871 0.015936723 0.07637103 0.7071068 -0.70297045 0.28004473 0.5414033
0.08164643 0.0011600604 0.014940085 0.07637102 0.70710677 -0.70297045 0.2848131 0.54671776
0.05417074 0.0011600613 0.011955113 0.07637101 0.7071073 -0.7029699 0.43132478 0.5626348
0.08707889 0.0011600585 0.020994691 0.7071216 0.7070919 2.1421087e-07 0.25584498 0.5144322
0.08707889 0.0011600713 -0.020994691 0.7070999 0.7071136 2.1421745e-07 0.25584498 0.7383368
0.086184666 0.002054298 -0.019998055 0.7071001 0.7071133 2.1421735e-07 0.26061338 0.73302233
0.086184666 0.002054286 0.019998055 0.7071224 0.7070912 2.1421066e-07 0.26061338 0.51974666
0.08707889 0.0011600713 -0.020994691 -0.07637109 0.70710635 -0.7029709 0.47743315 0.5326859
0.048738282 0.0011600701 -0.016829351 -0.07637092 0.7071071 -0.70297015 0.4774332 0.7383368
0.04963251 0.002054297 -0.016027011 -0.076370925 0.7071071 -0.70297015 0.48220158 0.7340584
0.086184666 0.002054298 -0.019998055 -0.076371096 0.7071063 -0.7029709 0.48220158 0.53800035
0.048738282 0.0011600701 -0.016829351 -0.7071111 0.70710236 2.144956e-07 0.46029288 0.7161255
0.048738282 0.0011600597 0.016829351 -0.7071036 0.7071099 2.2157715e-07 0.46029288 0.5366435
0.04963251 0.0020542871 0.016027011 -0.7071038 0.70710975 2.2144457e-07 0.4555245 0.5409218
0.04963251 0.002054297 -0.016027011 -0.7071115 0.70710206 2.1421394e-07 0.4555245 0.71184707
0.048738282 0.0011600597 0.016829351 -0.076371044 0.70710635 0.7029709 0.46647882 0.5326859
0.08707889 0.0011600585 0.020994691 -0.076370955 0.70710635 0.7029709 0.46647882 0.7383368
0.086184666 0.002054286 0.019998055 -0.076370955 0.7071063 0.7029709 0.47124726 0.73302233
0.04963251 0.0020542871 0.016027011 -0.07637105 0.70710635 0.7029709 0.4712472 0.5369643
0.08707889 0.0011600713 -0.020994691 1 -0 0 0.48220158 0.5144322
0.08707889 0.0011600585 0.020994691 1 -0 0 0.48220158 0.7383368
0.08707889 -6.360264e-09 0.020994691 1 -0 0 0.48838747 0.7383368
0.08707889 6.360264e-09 -0.020994691 1 -0 0 0.48838747 0.5144322
0.048738282 0.0011600597 0.016829351 -1 0 0 0.4945734 0.7383368
0.048738282 0.0011600701 -0.016829351 -1 0 0 0.4945734 0.5588547
0.048738282 5.0983893e-09 -0.016829351 -1 0 0 0.48838747 0.5588547
0.048738282 -5.0983893e-09 0.016829351 -1 0 0 0.48838753 0.7383368
0.08707889 0.0011600585 0.020994691 -0.10800501 -3.0117414e-07 0.99415034 0.46647882 0.7383368
0.048738282 0.0011600597 0.016829351 -0.10800485 -3.0117414e-07 0.99415034 0.46647882 0.5326859
0.048738282 -5.0983893e-09 0.016829351 -0.10800486 -3.0117414e-07 0.99415034 0.46029288 0.5326859
0.08707889 -6.360264e-09 0.020994691 -0.10800502 -3.0117414e-07 0.99415034 0.46029294 0.7383368
0.048738282 0.0011600701 -0.016829351 -0.10800486 3.0117414e-07 -0.99415034 0.4774332 0.7383368
0.08707889 0.0011600713 -0.020994691 -0.10800502 3.0117414e-07 -0.99415034 0.47743315 0.5326859
0.08707889 6.360264e-09 -0.020994691 -0.10800501 3.0117414e-07 -0.99415034 0.4712472 0.5326859
0.048738282 5.0983893e-09 -0.016829351 -0.10800485 3.0117414e-07 -0.99415034 0.47124726 0.7383368
0.08164643 0.0011600604 0.014940085 -1 0 0 0.40320897 0.57604307
0.08164643 0.0011600695 -0.014940085 -1 0 0 0.30043945 0.6781464
0.08164643 4.526043e-09 -0.014940085 -1 0 0 0.30449253 0.68222594
0.08164643 -4.526043e-09 0.014940085 -1 0 0 0.40726206 0.5801226
0.08164643 0.0011600695 -0.014940085 0.108005024 -3.0117414e-07 0.99415034 0.40360132 0.5918661
0.05417074 0.0011600686 -0.011955112 0.10800501 -3.0117414e-07 0.99415034 0.30854568 0.6863055
0.05417074 3.621757e-09 -0.011955112 0.108005024 -3.0117414e-07 0.99415034 0.3125988 0.6903851
0.08164643 4.526043e-09 -0.014940085 0.10800501 -3.0117414e-07 0.99415034 0.4076544 0.5959457
0.05417074 0.0011600613 0.011955113 0.10800501 3.0117414e-07 -0.99415034 0.39954814 0.58778656
0.08164643 0.0011600604 0.014940085 0.10800492 3.0117414e-07 -0.99415034 0.30449253 0.68222594
0.08164643 -4.526043e-09 0.014940085 0.10800493 3.0117414e-07 -0.99415034 0.30854568 0.6863055
0.05417074 -3.6217571e-09 0.011955113 0.10800501 3.0117414e-07 -0.99415034 0.4036013 0.59186614
0.05417074 0.0011600686 -0.011955112 1 -0 0 0.39483535 0.6086816
0.05417074 0.0011600613 0.011955113 1 -0 0 0.3125988 0.6903851
0.05417074 -3.6217571e-09 0.011955113 1 -0 0 0.31665194 0.6944647
0.05417074 3.621757e-09 -0.011955112 1 -0 0 0.39888847 0.61276126
0.08254065 -0.0020542871 -0.015936723 -0 -1 -3.0878823e-07 0.28004473 0.7113656
0.086184666 -0.002054286 -0.019998055 0 -1 -3.0238004e-07 0.26061338 0.73302233
0.086184666 -0.002054298 0.019998055 -2.0713082e-09 -1 -3.029463e-07 0.26061338 0.51974666
0.08254065 -0.002054297 0.015936723 -2.069124e-09 -1 -3.0429067e-07 0.28004473 0.5414033
0.053276513 -0.002054288 -0.012757453 0 -1 -2.67565e-07 0.4360932 0.69441247
0.04963251 -0.0020542871 -0.016027011 -2.5250781e-09 -1 -2.655287e-07 0.4555245 0.71184707
0.053276513 -0.002054296 0.012757452 -1.7942702e-08 -1 -3.321559e-07 0.4360932 0.5583565
0.04963251 -0.002054297 0.016027011 -1.8869853e-08 -1 -3.2829587e-07 0.4555245 0.5409218
0.08254065 -0.002054297 0.015936723 -0.7071043 -0.7071092 -2.1421612e-07 0.28004473 0.5414033
0.08164643 -0.0011600695 0.014940085 -0.707104 -0.7071096 -2.1421621e-07 0.2848131 0.54671776
0.08164643 -0.0011600604 -0.014940085 -0.7071112 -0.70710236 -2.1421403e-07 0.2848131 0.7060511
0.08254065 -0.0020542871 -0.015936723 -0.7071113 -0.7071022 -2.1421396e-07 0.28004473 0.7113656
0.08254065 -0.0020542871 -0.015936723 0.076371014 -0.70710725 0.70297 0.28004473 0.7113656
0.08164643 -0.0011600604 -0.014940085 0.07637101 -0.7071073 0.7029699 0.2848131 0.7060511
0.05417074 -0.0011600613 -0.011955112 0.076371126 -0.7071065 0.7029707 0.43132478 0.69013405
0.053276513 -0.002054288 -0.012757453 0.076371126 -0.7071065 0.7029707 0.4360932 0.69441247
0.053276513 -0.002054288 -0.012757453 0.7071029 -0.70711064 -2.1421653e-07 0.4360932 0.69441247
0.05417074 -0.0011600613 -0.011955112 0.7071028 -0.7071108 -2.1421661e-07 0.43132478 0.69013405
0.05417074 -0.0011600686 0.011955113 0.70710564 -0.70710784 -2.1421569e-07 0.43132478 0.5626348
0.053276513 -0.002054296 0.012757452 0.7071057 -0.7071077 -2.1421567e-07 0.4360932 0.5583565
0.053276513 -0.002054296 0.012757452 0.07637101 -0.7071068 -0.7029704 0.4360932 0.5583565
0.05417074 -0.0011600686 0.011955113 0.07637101 -0.7071069 -0.7029704 0.43132478 0.5626348
0.08164643 -0.0011600695 0.014940085 0.07637102 -0.70710635 -0.70297086 0.2848131 0.54671776
0.08254065 -0.002054297 0.015936723 0.07637103 -0.7071064 -0.70297086 0.28004473 0.5414033
0.08707889 -0.0011600713 0.020994691 0.7071216 -0.7070919 -2.1421087e-07 0.25584498 0.5144322
0.086184666 -0.002054298 0.019998055 0.7071224 -0.7070912 -2.1421066e-07 0.26061338 0.51974666
0.086184666 -0.002054286 -0.019998055 0.7071001 -0.7071133 -2.1421735e-07 0.26061338 0.73302233
0.08707889 -0.0011600585 -0.020994691 0.7070999 -0.7071136 -2.1421745e-07 0.25584498 0.7383368
0.08707889 -0.0011600585 -0.020994691 -0.07637109 -0.70710593 -0.70297134 0.47743315 0.5326859
0.086184666 -0.002054286 -0.019998055 -0.076371096 -0.7071059 -0.70297134 0.48220158 0.53800035
0.04963251 -0.0020542871 -0.016027011 -0.076370925 -0.7071067 -0.70297056 0.48220158 0.7340584
0.048738282 -0.0011600598 -0.016829351 -0.07637092 -0.7071067 -0.70297056 0.4774332 0.7383368
0.048738282 -0.0011600598 -0.016829351 -0.7071111 -0.70710236 -2.1393245e-07 0.46029288 0.7161255
0.04963251 -0.0020542871 -0.016027011 -0.7071115 -0.70710206 -2.1421394e-07 0.4555245 0.71184707
0.04963251 -0.002054297 0.016027011 -0.7071038 -0.70710975 -2.0698796e-07 0.4555245 0.5409218
0.048738282 -0.00116007 0.016829351 -0.7071036 -0.7071099 -2.0685552e-07 0.46029288 0.5366435
0.048738282 -0.00116007 0.016829351 -0.076371044 -0.70710677 0.7029705 0.46647882 0.5326859
0.04963251 -0.002054297 0.016027011 -0.07637105 -0.70710677 0.7029705 0.4712472 0.5369643
0.086184666 -0.002054298 0.019998055 -0.076370955 -0.7071067 0.7029705 0.47124726 0.73302233
0.08707889 -0.0011600713 0.020994691 -0.076370955 -0.70710677 0.7029705 0.46647882 0.7383368
0.08707889 -0.0011600585 -0.020994691 1 -0 0 0.48220158 0.5144322
0.08707889 -0.0011600713 0.020994691 1 -0 0 0.48220158 0.7383368
0.048738282 -0.00116007 0.016829351 -1 0 0 0.4945734 0.7383368
0.048738282 -0.0011600598 -0.016829351 -1 0 0 0.4945734 0.5588547
0.08707889 -0.0011600713 0.020994691 -0.10800501 -3.0117414e-07 0.99415034 0.46647882 0.7383368
0.048738282 -0.00116007 0.016829351 -0.10800485 -3.0117414e-07 0.99415034 0.46647882 0.5326859
0.048738282 -0.0011600598 -0.016829351 -0.10800486 3.0117414e-07 -0.99415034 0.4774332 0.7383368
0.08707889 -0.0011600585 -0.020994691 -0.10800502 3.0117414e-07 -0.99415034 0.47743315 0.5326859
0.08164643 -0.0011600695 0.014940085 -1 0 0 0.40320897 0.57604307
0.08164643 -0.0011600604 -0.014940085 -1 0 0 0.30043945 0.6781464
0.08164643 -0.0011600604 -0.014940085 0.108005024 -3.0117414e-07 0.99415034 0.40360132 0.5918661
0.05417074 -0.0011600613 -0.011955112 0.10800501 -3.0117414e-07 0.99415034 0.30854568 0.6863055
0.05417074 -0.0011600686 0.011955113 0.10800501 3.0117414e-07 -0.99415034 0.39954814 0.58778656
0.08164643 -0.0011600695 0.014940085 0.10800492 3.0117414e-07 -0.99415034 0.30449253 0.68222594
0.05417074 -0.0011600613 -0.011955112 1 -0 0 0.39483535 0.6086816
0.05417074 -0.0011600686 0.011955113 1 -0 0 0.3125988 0.6903851
-0.034667764 0.0017608266 -0.012605283 0 1 3.506869e-07 0.39715338 0.13758868
-0.03780412 0.0017608266 -0.012605283 0 1 3.0995292e-07 0.39715338 0.11238003
-0.028395057 0.0017608214 0.004135113 0 1 3.2090463e-07 0.26260114 0.1880061
-0.04094047 0.0017608266 -0.012605283 0 1 2.8184502e-07 0.39715338 0.087171316
-0.044076826 0.0017608266 -0.012605283 0 1 3.0908677e-07 0.39715338 0.061962545
-0.05034953 0.0017608214 0.004135113 0 1 3.105493e-07 0.26260114 0.011545241
-0.04721318 0.0017608266 -0.012605283 0 1 3.2681655e-07 0.39715338 0.036753893
-0.034667764 -0.0017608166 -0.012605283 0 -1 -2.766307e-07 0.39715338 0.13758868
-0.028395057 -0.0017608217 0.0041351123 0 -1 -2.8498795e-07 0.26260114 0.1880061
-0.03780412 -0.0017608166 -0.012605283 0 -1 -2.9827524e-07 0.39715338 0.11238003
-0.04094047 -0.0017608166 -0.012605283 -0 -1 -3.2404756e-07 0.39715338 0.087171316
-0.05034953 -0.0017608217 0.0041351123 0 -1 -2.9534326e-07 0.26260114 0.011545241
-0.044076826 -0.0017608166 -0.012605283 0 -1 -2.968058e-07 0.39715338 0.061962545
-0.04721318 -0.0017608166 -0.012605283 0 -1 -2.7907603e-07 0.39715338 0.036753893
-0.034667764 0.0017608271 -0.014722973 0 1 3.029463e-07 0.4141745 0.13758868
-0.034667764 0.0017608266 -0.012605283 0 1 3.029463e-07 0.39715338 0.13758868
-0.028395057 0.0017608214 0.004135113 0 1 3.029463e-07 0.26260114 0.1880061
-0.028395057 0.001760828 -0.017516611 0 1 3.029463e-07 0.43662858 0.1880061
-0.05034953 0.0017608214 0.004135113 0 1 3.029463e-07 0.26260114 0.011545241
-0.04721318 0.0017608266 -0.012605283 0 1 3.029463e-07 0.39715338 0.036753893
-0.04721318 0.0017608284 -0.018895818 0 1 3.029463e-07 0.4477141 0.036753893
-0.05034953 0.0017608284 -0.018895818 0 1 3.029463e-07 0.4477141 0.011545241
-0.04094047 0.001760828 -0.017516611 0 1 3.029463e-07 0.43662858 0.087171316
-0.044076826 0.001760828 -0.017516611 0 1 3.029463e-07 0.43662858 0.061962545
-0.03780412 0.0017608266 -0.012605283 0 1 3.029463e-07 0.39715338 0.11238003
-0.034667764 0.0017608266 -0.012605283 0 1 3.029463e-07 0.39715338 0.13758868
-0.034667764 0.0017608271 -0.014722973 0 1 3.029463e-07 0.4141745 0.13758868
-0.03780412 0.0017608271 -0.0147245545 0 1 3.029463e-07 0.4141873 0.11238003
-0.03153141 0.001760828 -0.017516611 0 1 3.029463e-07 0.43662858 0.16279733
-0.028395057 0.001760828 -0.017516611 0 1 3.029463e-07 0.43662858 0.1880061
-0.028395057 0.001760829 -0.020880532 0 1 3.029463e-07 0.46366644 0.1880061
-0.03153141 0.001760829 -0.020880532 0 1 3.029463e-07 0.46366644 0.16279733
-0.034667764 0.001760828 -0.017516611 0 1 3.029463e-07 0.43662858 0.13758868
-0.034667764 0.0017608271 -0.014722973 0 1 3.029463e-07 0.4141745 0.13758868
-0.028395057 0.0017608214 0.004135113 0 -3.029463e-07 1 0.439062 0.21631157
-0.05034953 0.0017608214 0.004135113 0 -3.029463e-07 1 0.26260114 0.21631157
-0.05034953 -1.1342508e-10 0.0041351127 0 -3.029463e-07 1 0.26260114 0.23046434
-0.028395057 -1.1342508e-10 0.0041351127 0 -3.029463e-07 1 0.439062 0.23046434
-0.03780412 0.0017608271 -0.0147245545 0.00050409883 3.0294623e-07 -0.9999998 0.4888751 0.15970057
-0.034667764 0.0017608271 -0.014722973 0.00050471094 3.0294623e-07 -0.9999998 0.46366644 0.15970057
-0.034667764 5.5995626e-09 -0.014722973 0.0005044153 3.0294623e-07 -0.9999998 0.46366644 0.1738534
-0.03780412 5.6000413e-09 -0.0147245545 0.0005038032 3.0294623e-07 -0.9999998 0.4888751 0.1738534
-0.034667764 0.0017608271 -0.014722973 -1 0 0 0.4861204 0.06815618
-0.034667764 0.001760828 -0.017516611 -1 0 0 0.46366644 0.06815618
-0.034667764 6.4458843e-09 -0.017516611 -1 0 0 0.46366644 0.08230889
-0.034667764 5.5995626e-09 -0.014722973 -1 0 0 0.4861204 0.08230889
-0.03153141 0.001760828 -0.017516611 -1 0 0 0.49070418 0.1880061
-0.03153141 0.001760829 -0.020880532 -1 0 0 0.46366644 0.1880061
-0.03153141 7.464972e-09 -0.020880532 -1 0 0 0.46366644 0.20215887
-0.03153141 6.4458843e-09 -0.017516611 -1 0 0 0.49070418 0.20215887
-0.03153141 0.001760829 -0.020880532 -0 3.029463e-07 -1 0.4888751 0.011545241
-0.028395057 0.001760829 -0.020880532 -0 3.029463e-07 -1 0.46366644 0.011545241
-0.028395057 7.464972e-09 -0.020880532 -0 3.029463e-07 -1 0.46366644 0.025697947
-0.03153141 7.464972e-09 -0.020880532 -0 3.029463e-07 -1 0.4888751 0.025697947
-0.03780412 0.0017608266 -0.012605283 -1 0 0 0.48070025 0.08230889
-0.03780412 0.0017608271 -0.0147245545 -1 0 0 0.46366644 0.08230889
-0.03780412 5.6000413e-09 -0.0147245545 -1 0 0 0.46366644 0.09646171
-0.03780412 4.958016e-09 -0.012605283 -1 0 0 0.48070025 0.09646171
-0.04094047 0.001760828 -0.017516611 1 -0 0 0.30207634 0.23046434
-0.04094047 0.0017608266 -0.012605283 1 -0 0 0.26260114 0.23046434
-0.04094047 4.958016e-09 -0.012605283 1 -0 0 0.26260114 0.24461704
-0.04094047 6.4458843e-09 -0.017516611 1 -0 0 0.30207634 0.24461704
-0.044076826 0.0017608266 -0.012605283 -1 0 0 0.4871893 0.20215887
-0.044076826 0.001760828 -0.017516611 -1 0 0 0.4477141 0.20215887
-0.044076826 6.4458843e-09 -0.017516611 -1 0 0 0.4477141 0.21631157
-0.044076826 4.958016e-09 -0.012605283 -1 0 0 0.4871893 0.21631157
-0.04721318 0.0017608284 -0.018895818 1 -0 0 0.48962265 0.21631157
-0.04721318 0.0017608266 -0.012605283 1 -0 0 0.439062 0.21631157
-0.04721318 4.958016e-09 -0.012605283 1 -0 0 0.439062 0.23046434
-0.04721318 6.86371e-09 -0.018895818 1 -0 0 0.48962265 0.23046434
-0.05034953 0.0017608214 0.004135113 -1 0 0 0.4477141 0.20215887
-0.05034953 0.0017608284 -0.018895818 -1 0 0 0.26260114 0.20215887
-0.05034953 6.86371e-09 -0.018895818 -1 0 0 0.26260114 0.21631157
-0.05034953 -1.1342508e-10 0.0041351127 -1 0 0 0.4477141 0.21631157
-0.028395057 0.001760829 -0.020880532 1 -0 0 0.46366644 0.1880061
-0.028395057 0.001760828 -0.017516611 1 -0 0 0.43662858 0.1880061
-0.028395057 6.4458843e-09 -0.017516611 1 -0 0 0.43662858 0.20215887
-0.028395057 7.464972e-09 -0.020880532 1 -0 0 0.46366644 0.20215887
-0.044076826 0.001760828 -0.017516611 -0 3.029463e-07 -1 0.4888751 0.025697947
-0.04094047 0.001760828 -0.017516611 -0 3.029463e-07 -1 0.46366644 0.025697947
-0.04094047 6.4458843e-09 -0.017516611 -0 3.029463e-07 -1 0.46366644 0.03985071
-0.044076826 6.4458843e-09 -0.017516611 -0 3.029463e-07 -1 0.4888751 0.03985071
-0.034667764 0.001760828 -0.017516611 -0 3.029463e-07 -1 0.4888751 0.1738534
-0.03153141 0.001760828 -0.017516611 -0 3.029463e-07 -1 0.46366644 0.1738534
-0.03153141 6.4458843e-09 -0.017516611 -0 3.029463e-07 -1 0.46366644 0.1880061
-0.034667764 6.4458843e-09 -0.017516611 -0 3.029463e-07 -1 0.4888751 0.1880061
-0.05034953 0.0017608284 -0.018895818 -0 3.029463e-07 -1 0.4888751 0.14554787
-0.04721318 0.0017608284 -0.018895818 -0 3.029463e-07 -1 0.46366644 0.14554787
-0.04721318 6.86371e-09 -0.018895818 -0 3.029463e-07 -1 0.46366644 0.15970069
-0.05034953 6.86371e-09 -0.018895818 -0 3.029463e-07 -1 0.4888751 0.15970069
-0.04721318 0.0017608266 -0.012605283 -0 3.029463e-07 -1 0.4888751 0.03985071
-0.044076826 0.0017608266 -0.012605283 -0 3.029463e-07 -1 0.46366644 0.03985071
-0.044076826 4.958016e-09 -0.012605283 -0 3.029463e-07 -1 0.46366644 0.054003417
-0.04721318 4.958016e-09 -0.012605283 -0 3.029463e-07 -1 0.4888751 0.054003417
-0.04094047 0.0017608266 -0.012605283 -0 3.029463e-07 -1 0.4888751 0.054003417
-0.03780412 0.0017608266 -0.012605283 -0 3.029463e-07 -1 0.46366644 0.054003417
-0.03780412 4.958016e-09 -0.012605283 -0 3.029463e-07 -1 0.46366644 0.06815618
-0.04094047 4.958016e-09 -0.012605283 -0 3.029463e-07 -1 0.4888751 0.06815618
-0.028395057 0.0017608214 0.004135113 1 -0 0 0.26260114 0.1880061
-0.028395057 -1.1342508e-10 0.0041351127 1 -0 0 0.26260114 0.20215887
-0.034667764 -0.001760816 -0.014722973 0 -1 -3.029463e-07 0.4141745 0.13758868
-0.028395057 -0.0017608152 -0.017516611 0 -1 -3.029463e-07 0.43662858 0.1880061
-0.028395057 -0.0017608217 0.0041351123 0 -1 -3.029463e-07 0.26260114 0.1880061
-0.034667764 -0.0017608166 -0.012605283 0 -1 -3.029463e-07 0.39715338 0.13758868
-0.05034953 -0.0017608217 0.0041351123 0 -1 -3.029463e-07 0.26260114 0.011545241
-0.05034953 -0.0017608147 -0.018895818 0 -1 -3.029463e-07 0.4477141 0.011545241
-0.04721318 -0.0017608147 -0.018895818 0 -1 -3.029463e-07 0.4477141 0.036753893
-0.04721318 -0.0017608166 -0.012605283 0 -1 -3.029463e-07 0.39715338 0.036753893
-0.044076826 -0.0017608152 -0.017516611 0 -1 -3.029463e-07 0.43662858 0.061962545
-0.04094047 -0.0017608152 -0.017516611 0 -1 -3.029463e-07 0.43662858 0.087171316
-0.03780412 -0.001760816 -0.0147245545 0 -1 -3.029463e-07 0.4141873 0.11238003
-0.034667764 -0.001760816 -0.014722973 0 -1 -3.029463e-07 0.4141745 0.13758868
-0.03153141 -0.0017608152 -0.017516611 0 -1 -3.029463e-07 0.43662858 0.16279733
-0.03153141 -0.0017608141 -0.020880532 0 -1 -3.029463e-07 0.46366644 0.16279733
-0.028395057 -0.0017608141 -0.020880532 0 -1 -3.029463e-07 0.46366644 0.1880061
-0.028395057 -0.0017608152 -0.017516611 0 -1 -3.029463e-07 0.43662858 0.1880061
-0.034667764 -0.0017608152 -0.017516611 0 -1 -3.029463e-07 0.43662858 0.13758868
-0.028395057 -0.0017608217 0.0041351123 0 -3.029463e-07 1 0.439062 0.21631157
-0.05034953 -0.0017608217 0.0041351123 0 -3.029463e-07 1 0.26260114 0.21631157
-0.03780412 -0.001760816 -0.0147245545 0.00050409883 3.0294623e-07 -0.9999998 0.4888751 0.15970057
-0.034667764 -0.001760816 -0.014722973 0.00050471094 3.0294623e-07 -0.9999998 0.46366644 0.15970057
-0.034667764 -0.001760816 -0.014722973 -1 0 0 0.4861204 0.06815618
-0.034667764 -0.0017608152 -0.017516611 -1 0 0 0.46366644 0.06815618
-0.03153141 -0.0017608152 -0.017516611 -1 0 0 0.49070418 0.1880061
-0.03153141 -0.0017608141 -0.020880532 -1 0 0 0.46366644 0.1880061
-0.03153141 -0.0017608141 -0.020880532 -0 3.029463e-07 -1 0.4888751 0.011545241
-0.028395057 -0.0017608141 -0.020880532 -0 3.029463e-07 -1 0.46366644 0.011545241
-0.03780412 -0.0017608166 -0.012605283 -1 0 0 0.48070025 0.08230889
-0.03780412 -0.001760816 -0.0147245545 -1 0 0 0.46366644 0.08230889
-0.04094047 -0.0017608152 -0.017516611 1 -0 0 0.30207634 0.23046434
-0.04094047 -0.0017608166 -0.012605283 1 -0 0 0.26260114 0.23046434
-0.044076826 -0.0017608166 -0.012605283 -1 0 0 0.4871893 0.20215887
-0.044076826 -0.0017608152 -0.017516611 -1 0 0 0.4477141 0.20215887
-0.04721318 -0.0017608147 -0.018895818 1 -0 0 0.48962265 0.21631157
-0.04721318 -0.0017608166 -0.012605283 1 -0 0 0.439062 0.21631157
-0.05034953 -0.0017608217 0.0041351123 -1 0 0 0.4477141 0.20215887
-0.05034953 -0.0017608147 -0.018895818 -1 0 0 0.26260114 0.20215887
-0.028395057 -0.0017608141 -0.020880532 1 -0 0 0.46366644 0.1880061
-0.028395057 -0.0017608152 -0.017516611 1 -0 0 0.43662858 0.1880061
-0.044076826 -0.0017608152 -0.017516611 -0 3.029463e-07 -1 0.4888751 0.025697947
-0.04094047 -0.0017608152 -0.017516611 -0 3.029463e-07 -1 0.46366644 0.025697947
-0.034667764 -0.0017608152 -0.017516611 -0 3.029463e-07 -1 0.4888751 0.1738534
-0.03153141 -0.0017608152 -0.017516611 -0 3.029463e-07 -1 0.46366644 0.1738534
-0.05034953 -0.0017608147 -0.018895818 -0 3.029463e-07 -1 0.4888751 0.14554787
-0.04721318 -0.0017608147 -0.018895818 -0 3.029463e-07 -1 0.46366644 0.14554787
-0.04721318 -0.0017608166 -0.012605283 -0 3.029463e-07 -1 0.4888751 0.03985071
-0.044076826 -0.0017608166 -0.012605283 -0 3.029463e-07 -1 0.46366644 0.03985071
-0.04094047 -0.0017608166 -0.012605283 -0 3.029463e-07 -1 0.4888751 0.054003417
-0.03780412 -0.0017608166 -0.012605283 -0 3.029463e-07 -1 0.46366644 0.054003417
-0.028395057 -0.0017608217 0.0041351123 1 -0 0 0.26260114 0.1880061
3 0 1 2
3 3 4 2
3 5 6 2
3 6 0 2
3 1 3 2
3 4 5 2
3 7 8 9
3 7 9 10
3 10 9 11
3 10 11 12
3 12 11 13
3 12 13 14
3 14 13 15
3 14 15 16
3 16 15 17
3 16 17 18
3 18 17 19
3 18 19 20
3 16 18 21
3 16 21 22
3 7 10 23
3 7 23 24
3 12 14 25
3 12 25 26
3 18 20 27
3 18 27 21
3 14 16 22
3 14 22 25
3 10 12 26
3 10 26 23
3 28 29 30
3 28 30 31
3 32 28 31
3 32 31 33
3 13 11 34
3 13 34 35
3 19 17 36
3 19 36 37
3 9 8 38
3 9 38 39
3 15 13 35
3 15 35 40
3 11 9 39
3 11 39 34
3 17 15 40
3 17 40 36
3 41 42 43
3 41 43 44
3 45 41 44
3 45 44 46
3 47 45 46
3 47 46 48
3 42 47 48
3 42 48 43
3 49 50 51
3 49 51 52
3 53 54 55
3 53 55 56
3 57 58 59
3 57 59 60
3 61 62 63
3 61 63 64
3 65 66 67
3 65 67 68
3 69 70 71
3 69 71 72
3 73 74 75
3 73 75 76
3 77 78 79
3 77 79 80
3 81 82 83
3 81 83 84
3 85 86 87
3 85 87 88
3 89 90 91
3 89 91 92
3 93 94 95
3 93 95 96
3 97 98 99
3 97 99 100
3 101 102 103
3 101 103 104
3 105 106 107
3 105 107 108
3 109 110 111
3 109 111 112
3 113 114 115
3 113 115 116
3 117 118 114
3 117 114 113
3 119 120 118
3 119 118 117
3 116 115 120
3 116 120 119
3 121 122 123
3 121 123 124
3 125 126 127
3 125 127 128
3 129 130 131
3 129 131 132
3 133 134 135
3 133 135 136
3 137 138 139
3 137 139 140
3 141 142 143
3 141 143 144
3 145 146 147
3 145 147 148
3 149 150 151
3 149 151 152
3 153 84 83
3 153 83 154
3 155 88 87
3 155 87 156
3 157 92 91
3 157 91 158
3 159 96 95
3 159 95 160
3 161 100 99
3 161 99 162
3 163 104 103
3 163 103 164
3 165 108 107
3 165 107 166
3 167 112 111
3 167 111 168
3 169 170 171
3 172 173 174
3 173 175 174
3 176 177 178
3 179 180 181
3 181 180 182
3 170 172 174
3 170 174 171
3 183 184 185
3 183 185 186
3 187 188 189
3 187 189 190
3 173 172 191
3 173 191 192
3 193 194 195
3 193 195 196
3 197 198 199
3 197 199 200
3 198 201 202
3 203 204 205
3 203 205 206
3 207 208 209
3 207 209 210
3 211 212 213
3 211 213 214
3 215 216 217
3 215 217 218
3 219 220 221
3 219 221 222
3 223 224 225
3 223 225 226
3 227 228 229
3 227 229 230
3 231 232 233
3 231 233 234
3 235 236 237
3 235 237 238
3 239 240 241
3 239 241 242
3 243 244 245
3 243 245 246
3 247 248 249
3 247 249 250
3 251 252 253
3 251 253 254
3 255 256 257
3 255 257 258
3 259 260 261
3 259 261 262
3 263 264 265
3 263 265 266
3 244 267 268
3 244 268 245
3 178 177 180
3 178 180 179
3 269 270 271
3 269 271 272
3 273 274 275
3 273 275 276
3 181 277 278
3 181 278 179
3 178 279 280
3 178 280 176
3 281 282 283
3 281 283 284
3 284 280 285
3 286 206 205
3 286 205 287
3 288 210 209
3 288 209 289
3 290 214 213
3 290 213 291
3 292 218 217
3 292 217 293
3 294 222 221
3 294 221 295
3 296 226 225
3 296 225 297
3 298 230 229
3 298 229 299
3 300 234 233
3 300 233 301
3 302 238 237
3 302 237 303
3 304 242 241
3 304 241 305
3 306 246 245
3 306 245 307
3 308 250 249
3 308 249 309
3 310 254 253
3 310 253 311
3 312 258 257
3 312 257 313
3 314 262 261
3 314 261 315
3 316 266 265
3 316 265 317
3 307 245 268
3 307 268 318
