ply
format ascii 1.0
comment Created in Blender version 4.4.0
element vertex 24
property float x
property float y
property float z
property float nx
property float ny
property float nz
property float s
property float t
element face 12
property list uchar uint vertex_indices
end_header
0 3 -2.9802323e-09 0.5773559 0.5773475 -0.5773475 0.0206756 0.23666319
0 0 0.1 0.5773559 -0.5773475 0.5773475 0.6220123 0.2166186
0 0 -2.9802323e-09 0.5773444 -0.577354 -0.57735234 0.6220123 0.23666313
0 3 0.1 0.5773444 0.577354 0.57735234 0.00041650236 0.2621644
-2 0 0.1 -0.5773444 -0.577354 0.57735234 0.4921257 0.999728
0 0 0.1 0.5773559 -0.5773475 0.5773475 0.00041650236 0.999728
-2 3 0.1 -0.5773559 0.5773475 0.5773475 0.0206756 0.18900174
-2 0 -2.9802323e-09 -0.5773559 -0.5773475 -0.5773475 0.6220123 0.16895714
-2 0 0.1 -0.5773444 -0.577354 0.57735234 0.6220123 0.18900174
-2 3 -2.9802323e-09 -0.5773444 0.577354 -0.57735234 0.5066598 0.2621644
0 0 -2.9802323e-09 0.5773444 -0.577354 -0.57735234 0.9983688 0.999728
-2 0 -2.9802323e-09 -0.5773559 -0.5773475 -0.5773475 0.5066598 0.999728
-2 0 0.1 -0.5773444 -0.577354 0.57735234 0.44328153 0.07923167
0 0 -2.9802323e-09 0.5773444 -0.577354 -0.57735234 0.042390466 0.09927627
0 0 0.1 0.5773559 -0.5773475 0.5773475 0.042390466 0.0792317
0 3 0.1 0.5773444 0.577354 0.57735234 0.45328158 0.11273964
-2 3 -2.9802323e-09 -0.5773444 0.577354 -0.57735234 0.052390516 0.1327842
-2 3 0.1 -0.5773559 0.5773475 0.5773475 0.052390516 0.11273964
0 3 0.1 0.5773444 0.577354 0.57735234 0.0206756 0.2166186
-2 3 0.1 -0.5773559 0.5773475 0.5773475 0.4921257 0.2621644
-2 3 -2.9802323e-09 -0.5773444 0.577354 -0.57735234 0.0206756 0.1689572
0 3 -2.9802323e-09 0.5773559 0.5773475 -0.5773475 0.9983688 0.2621644
-2 0 -2.9802323e-09 -0.5773559 -0.5773475 -0.5773475 0.44328153 0.09927624
0 3 -2.9802323e-09 0.5773559 0.5773475 -0.5773475 0.45328158 0.1327842
3 0 1 2
3 3 4 5
3 6 7 8
3 9 10 11
3 12 13 14
3 15 16 17
3 0 18 1
3 3 19 4
3 6 20 7
3 9 21 10
3 12 22 13
3 15 23 16
