ply
format ascii 1.0
comment TextureFile moving_parts.png
element vertex 270
property float x
property float y
property float z
property float nx
property float ny
property float nz
property float s
property float t
element face 120
property list uchar uint vertex_indices
end_header
-0.793434 0.811518 -0.026640 0.000000 0.865993 0.499985 0.374263 0.976591
-0.704052 0.811518 -0.026640 0.000000 0.865993 0.499985 0.374263 0.957044
-0.704052 0.818638 -0.053210 0.000000 0.965911 0.258827 0.368974 0.957044
-0.793434 0.818638 -0.053210 0.000000 0.965911 0.258827 0.368974 0.976591
-0.793434 0.792068 -0.007190 0.000000 0.499985 0.865993 0.379552 0.976591
-0.704052 0.792068 -0.007190 0.000000 0.499985 0.865993 0.379552 0.957044
-0.793434 0.765500 -0.000070 0.000000 0.258827 0.965911 0.384843 0.976591
-0.704052 0.765500 -0.000070 0.000000 0.258827 0.965911 0.384843 0.957044
-0.793434 0.738927 -0.007190 0.000000 -0.258797 0.965911 0.390017 0.976591
-0.704052 0.738927 -0.007190 0.000000 -0.258797 0.965911 0.390017 0.957044
-0.704052 0.765500 -0.000070 0.000000 -0.258797 0.965911 0.384843 0.957044
-0.793434 0.765500 -0.000070 0.000000 -0.258797 0.965911 0.384843 0.976591
-0.793434 0.719478 -0.026640 0.000000 -0.707083 0.707083 0.395306 0.976591
-0.704052 0.719478 -0.026640 0.000000 -0.707083 0.707083 0.395306 0.957044
-0.704052 0.738927 -0.007190 0.000000 -0.707083 0.707083 0.390017 0.957044
-0.793434 0.738927 -0.007190 0.000000 -0.707083 0.707083 0.390017 0.976591
-0.793434 0.712359 -0.053210 0.000000 -1.000000 0.000000 0.400594 0.976591
-0.704052 0.712359 -0.053210 0.000000 -1.000000 0.000000 0.400594 0.957044
-0.704052 0.719478 -0.026640 0.000000 -0.965911 0.258766 0.395306 0.957044
-0.793434 0.719478 -0.026640 0.000000 -0.965911 0.258766 0.395306 0.976591
-0.793434 0.719478 -0.079779 0.000000 -0.866024 -0.499954 0.405884 0.976591
-0.704052 0.719478 -0.079779 0.000000 -0.866024 -0.499954 0.405884 0.957044
-0.793434 0.738927 -0.099231 0.000000 -0.707114 -0.707083 0.411174 0.976591
-0.704052 0.738927 -0.099231 0.000000 -0.707114 -0.707083 0.411174 0.957044
-0.793434 0.765500 -0.106350 0.000000 -0.258797 -0.965911 0.416463 0.976591
-0.704052 0.765500 -0.106350 0.000000 -0.258797 -0.965911 0.416463 0.957044
-0.704052 0.738927 -0.099231 0.000000 -0.258797 -0.965911 0.411174 0.957044
-0.793434 0.738927 -0.099231 0.000000 -0.258797 -0.965911 0.411174 0.976591
-0.793434 0.792068 -0.099231 0.000000 0.258827 -0.965911 0.421752 0.976591
-0.704052 0.792068 -0.099231 0.000000 0.258827 -0.965911 0.421752 0.957044
-0.704052 0.765500 -0.106350 0.000000 0.258827 -0.965911 0.416463 0.957044
-0.793434 0.765500 -0.106350 0.000000 0.258827 -0.965911 0.416463 0.976591
-0.793434 0.811518 -0.079779 0.000000 0.866024 -0.499985 0.363686 0.976591
-0.704052 0.811518 -0.079779 0.000000 0.866024 -0.499985 0.363686 0.957044
-0.704052 0.792068 -0.099231 0.000000 0.707114 -0.707053 0.358394 0.957044
-0.704052 0.792068 -0.099231 0.000000 0.707114 -0.707083 0.358394 0.957044
-0.793434 0.792068 -0.099231 0.000000 0.707114 -0.707083 0.358394 0.976591
-0.793434 0.818638 -0.053210 0.000000 0.965911 -0.258827 0.368974 0.976591
-0.704052 0.818638 -0.053210 0.000000 0.965911 -0.258827 0.368974 0.957044
-0.801624 0.805708 -0.076425 -1.000000 0.000000 0.000000 0.338968 0.971851
-0.801624 0.788713 -0.093418 -0.999969 0.000000 0.000000 0.342645 0.975531
-0.801624 0.765500 -0.099639 -1.000000 0.000000 0.000000 0.347705 0.976910
-0.801624 0.742284 -0.093418 -1.000000 0.000000 0.000000 0.352766 0.975645
-0.801624 0.725291 -0.076424 -1.000000 0.000000 0.000000 0.356445 0.971964
-0.801624 0.719070 -0.053210 -1.000000 0.000000 0.000000 0.357826 0.966904
-0.801624 0.725291 -0.029995 -1.000000 0.000000 0.000000 0.356559 0.961846
-0.801624 0.742284 -0.013001 -1.000000 0.000000 0.000000 0.352879 0.958051
-0.801624 0.765500 -0.006781 -0.999969 0.000000 0.000000 0.347821 0.956670
-0.801624 0.788713 -0.013001 -1.000000 0.000000 0.000000 0.342763 0.958051
-0.801624 0.805708 -0.029995 -1.000000 0.000000 0.000000 0.338968 0.961731
-0.801624 0.811927 -0.053210 -1.000000 0.000000 0.000000 0.337587 0.966676
-0.801624 0.805708 -0.029995 -0.620502 0.757469 0.202979 0.335226 0.966867
-0.793434 0.811518 -0.026640 -0.620502 0.757469 0.202979 0.335915 0.965028
-0.793434 0.818638 -0.053210 -0.620502 0.757469 0.202979 0.330167 0.965028
-0.793434 0.818638 -0.053210 -0.620594 0.757378 0.202887 0.330167 0.965028
-0.801624 0.811927 -0.053210 -0.620594 0.757378 0.202887 0.330167 0.966867
-0.801624 0.805708 -0.029995 -0.620594 0.757378 0.202887 0.335226 0.966867
-0.801624 0.788713 -0.013001 -0.620563 0.554460 0.554460 0.335800 0.964797
-0.793434 0.792068 -0.007190 -0.620563 0.554460 0.554460 0.336146 0.962499
-0.793434 0.811518 -0.026640 -0.620563 0.554460 0.554460 0.330167 0.962383
-0.793434 0.811518 -0.026640 -0.620533 0.554460 0.554491 0.330167 0.962383
-0.801624 0.805708 -0.029995 -0.620533 0.554460 0.554491 0.330511 0.964684
-0.801624 0.788713 -0.013001 -0.620533 0.554460 0.554491 0.335800 0.964797
-0.801624 0.765500 -0.006781 -0.620594 0.202948 0.757378 0.330050 0.962152
-0.793434 0.765500 -0.000070 -0.620594 0.202948 0.757378 0.330050 0.960312
-0.793434 0.792068 -0.007190 -0.620594 0.202948 0.757378 0.324303 0.960312
-0.793434 0.792068 -0.007190 -0.620563 0.202948 0.757408 0.324303 0.960312
-0.801624 0.788713 -0.013001 -0.620563 0.202948 0.757408 0.324992 0.962152
-0.801624 0.765500 -0.006781 -0.620563 0.202948 0.757408 0.330050 0.962152
-0.801624 0.742284 -0.013001 -0.620594 -0.202918 0.757408 0.335110 0.962152
-0.793434 0.738927 -0.007190 -0.620594 -0.202918 0.757408 0.335915 0.960312
-0.793434 0.765500 -0.000070 -0.620594 -0.202918 0.757408 0.330050 0.960312
-0.793434 0.765500 -0.000070 -0.620594 -0.202918 0.757378 0.330050 0.960312
-0.801624 0.765500 -0.006781 -0.620594 -0.202918 0.757378 0.330050 0.962152
-0.801624 0.742284 -0.013001 -0.620594 -0.202918 0.757378 0.335110 0.962152
-0.801624 0.725291 -0.029995 -0.620655 -0.554399 0.554399 0.329823 0.964797
-0.793434 0.719478 -0.026640 -0.620655 -0.554399 0.554399 0.330167 0.962499
-0.793434 0.738927 -0.007190 -0.620655 -0.554399 0.554399 0.324188 0.962383
-0.793434 0.738927 -0.007190 -0.620624 -0.554460 0.554399 0.324188 0.962383
-0.801624 0.742284 -0.013001 -0.620624 -0.554460 0.554399 0.324532 0.964684
-0.801624 0.725291 -0.029995 -0.620624 -0.554460 0.554399 0.329823 0.964797
-0.801624 0.719070 -0.053210 -0.620594 -0.757408 0.202918 0.330167 0.969051
-0.793434 0.712359 -0.053210 -0.620594 -0.757408 0.202918 0.330167 0.967212
-0.793434 0.719478 -0.026640 -0.620594 -0.757408 0.202918 0.324416 0.967212
-0.793434 0.719478 -0.026640 -0.620685 -0.757286 0.202948 0.324416 0.967212
-0.801624 0.725291 -0.029995 -0.620685 -0.757286 0.202948 0.325107 0.969051
-0.801624 0.719070 -0.053210 -0.620685 -0.757286 0.202948 0.330167 0.969051
-0.801624 0.725291 -0.076424 -0.620685 -0.757317 -0.202887 0.335226 0.969051
-0.793434 0.719478 -0.079779 -0.620685 -0.757317 -0.202887 0.336031 0.967212
-0.793434 0.712359 -0.053210 -0.620685 -0.757317 -0.202887 0.330167 0.967212
-0.793434 0.712359 -0.053210 -0.620594 -0.757378 -0.202979 0.330167 0.967212
-0.801624 0.719070 -0.053210 -0.620594 -0.757378 -0.202979 0.330167 0.969051
-0.801624 0.725291 -0.076424 -0.620594 -0.757378 -0.202979 0.335226 0.969051
-0.801624 0.742284 -0.093418 -0.620655 -0.554430 -0.554369 0.336146 0.973651
-0.793434 0.738927 -0.099231 -0.620655 -0.554430 -0.554369 0.336489 0.971352
-0.793434 0.719478 -0.079779 -0.620655 -0.554430 -0.554369 0.330511 0.971235
-0.793434 0.719478 -0.079779 -0.620685 -0.554399 -0.554399 0.330511 0.971235
-0.801624 0.725291 -0.076424 -0.620685 -0.554399 -0.554399 0.330854 0.973536
-0.801624 0.742284 -0.093418 -0.620685 -0.554399 -0.554399 0.336146 0.973651
-0.801624 0.765500 -0.099639 -0.620594 -0.202918 -0.757378 0.330280 0.971007
-0.793434 0.765500 -0.106350 -0.620594 -0.202918 -0.757378 0.330280 0.969282
-0.793434 0.738927 -0.099231 -0.620594 -0.202918 -0.757378 0.324532 0.969282
-0.793434 0.738927 -0.099231 -0.620655 -0.202948 -0.757347 0.324532 0.969282
-0.801624 0.742284 -0.093418 -0.620655 -0.202948 -0.757347 0.325221 0.971007
-0.801624 0.765500 -0.099639 -0.620655 -0.202948 -0.757347 0.330280 0.971007
-0.801624 0.788713 -0.093418 -0.620624 0.202948 -0.757347 0.335340 0.971007
-0.793434 0.792068 -0.099231 -0.620624 0.202948 -0.757347 0.336146 0.969282
-0.793434 0.765500 -0.106350 -0.620624 0.202948 -0.757347 0.330280 0.969282
-0.793434 0.765500 -0.106350 -0.620594 0.202979 -0.757378 0.330280 0.969282
-0.801624 0.765500 -0.099639 -0.620594 0.202979 -0.757378 0.330280 0.971007
-0.801624 0.788713 -0.093418 -0.620594 0.202979 -0.757378 0.335340 0.971007
-0.801624 0.805708 -0.076425 -0.620472 0.554521 -0.554491 0.329936 0.973536
-0.793434 0.811518 -0.079779 -0.620472 0.554521 -0.554491 0.330280 0.971352
-0.793434 0.792068 -0.099231 -0.620472 0.554521 -0.554491 0.324303 0.971235
-0.793434 0.792068 -0.099231 -0.620624 0.554399 -0.554460 0.324303 0.971235
-0.801624 0.788713 -0.093418 -0.620624 0.554399 -0.554460 0.324647 0.973536
-0.801624 0.805708 -0.076425 -0.620624 0.554399 -0.554460 0.329936 0.973536
-0.801624 0.811927 -0.053210 -0.620594 0.757378 -0.202948 0.330167 0.966867
-0.793434 0.818638 -0.053210 -0.620594 0.757378 -0.202948 0.330167 0.965028
-0.793434 0.811518 -0.079779 -0.620594 0.757378 -0.202948 0.324303 0.965028
-0.793434 0.811518 -0.079779 -0.620472 0.757500 -0.202918 0.324303 0.965028
-0.801624 0.805708 -0.076425 -0.620472 0.757500 -0.202918 0.325107 0.966867
-0.801624 0.811927 -0.053210 -0.620472 0.757500 -0.202918 0.330167 0.966867
-0.818687 0.889498 -0.057706 -0.838527 0.000000 -0.544816 0.122209 0.961160
-0.812835 0.889498 -0.066712 -0.838527 0.000000 -0.544816 0.122209 0.962804
-0.812835 0.641499 -0.066712 -0.838527 0.000000 -0.544816 0.171022 0.962804
-0.818687 0.641499 -0.057706 -0.838527 0.000000 -0.544816 0.171022 0.961160
-0.802812 0.641499 -0.070561 -0.358470 0.000000 -0.933531 0.171022 0.964447
-0.812835 0.641499 -0.066712 -0.358470 0.000000 -0.933531 0.171022 0.962804
-0.812835 0.889498 -0.066712 -0.358470 0.000000 -0.933531 0.122209 0.962804
-0.802812 0.889498 -0.070561 -0.358470 0.000000 -0.933531 0.122209 0.964447
-0.802812 0.889498 -0.070561 0.258797 0.000000 -0.965911 0.122209 0.964447
-0.792440 0.889498 -0.067782 0.258797 0.000000 -0.965911 0.122209 0.966042
-0.792440 0.641499 -0.067782 0.258797 0.000000 -0.965911 0.171022 0.966042
-0.802812 0.641499 -0.070561 0.258797 0.000000 -0.965911 0.171022 0.964447
-0.792440 0.889498 -0.067782 0.777154 0.000000 -0.629261 0.122209 0.966042
-0.785683 0.889498 -0.059437 0.777154 0.000000 -0.629261 0.122209 0.967637
-0.785683 0.641499 -0.059437 0.777154 0.000000 -0.629261 0.171022 0.967637
-0.792440 0.641499 -0.067782 0.777154 0.000000 -0.629261 0.171022 0.966042
-0.785683 0.889498 -0.059437 0.998596 0.000000 -0.052553 0.122209 0.967637
-0.785118 0.889498 -0.048711 0.998596 0.000000 -0.052553 0.122209 0.969280
-0.785118 0.641499 -0.048711 0.998596 0.000000 -0.052553 0.171022 0.969280
-0.785683 0.641499 -0.059437 0.998596 0.000000 -0.052553 0.171022 0.967637
-0.790969 0.641499 -0.039708 0.838435 0.000000 0.544939 0.171022 0.970827
-0.785118 0.641499 -0.048711 0.838435 0.000000 0.544939 0.171022 0.969280
-0.785118 0.889498 -0.048711 0.838435 0.000000 0.544939 0.122209 0.969280
-0.790969 0.889498 -0.039708 0.838435 0.000000 0.544939 0.122209 0.970827
-0.800994 0.889498 -0.035859 0.358440 0.000000 0.933531 0.122209 0.972421
-0.800994 0.641499 -0.035859 0.358440 0.000000 0.933531 0.171022 0.972421
-0.790969 0.641499 -0.039708 0.358440 0.000000 0.933531 0.171022 0.970827
-0.790969 0.889498 -0.039708 0.358440 0.000000 0.933531 0.122209 0.970827
-0.811366 0.641499 -0.038638 -0.258797 0.000000 0.965911 0.171022 0.958019
-0.800994 0.641499 -0.035859 -0.258797 0.000000 0.965911 0.171022 0.956472
-0.800994 0.889498 -0.035859 -0.258797 0.000000 0.965911 0.122209 0.956472
-0.800994 0.889498 -0.035859 -0.258797 0.000000 0.965911 0.122209 0.956472
-0.811366 0.889498 -0.038638 -0.258797 0.000000 0.965911 0.122209 0.958019
-0.818121 0.889498 -0.046984 -0.777245 0.000000 0.629170 0.122209 0.959613
-0.818121 0.641499 -0.046984 -0.777245 0.000000 0.629170 0.171022 0.959613
-0.811366 0.641499 -0.038638 -0.777245 0.000000 0.629170 0.171022 0.958019
-0.811366 0.889498 -0.038638 -0.777245 0.000000 0.629170 0.122209 0.958019
-0.818687 0.641499 -0.057706 -0.998596 0.000000 0.052675 0.171022 0.961160
-0.818121 0.641499 -0.046984 -0.998596 0.000000 0.052675 0.171022 0.959613
-0.818121 0.889498 -0.046984 -0.998596 0.000000 0.052675 0.122209 0.959613
-0.818687 0.889498 -0.057706 -0.998596 0.000000 0.052675 0.122209 0.961160
-0.818687 0.641499 -0.057706 0.000000 -1.000000 0.000000 0.129707 0.934347
-0.812835 0.641499 -0.066712 0.000000 -1.000000 0.000000 0.128307 0.934782
-0.802812 0.641499 -0.070561 0.000000 -1.000000 0.000000 0.127388 0.935991
-0.802812 0.641499 -0.070561 0.000000 -1.000000 0.000000 0.127388 0.935991
-0.792440 0.641499 -0.067782 0.000000 -0.999969 0.000000 0.127388 0.937537
-0.785683 0.641499 -0.059437 0.000000 -1.000000 0.000000 0.128307 0.938745
-0.785683 0.641499 -0.059437 0.000000 -1.000000 0.000000 0.128307 0.938745
-0.785118 0.641499 -0.048711 0.000000 -1.000000 0.000000 0.129707 0.939180
-0.790969 0.641499 -0.039708 0.000000 -1.000000 0.000000 0.131159 0.938745
-0.790969 0.641499 -0.039708 0.000000 -1.000000 0.000000 0.131159 0.938745
-0.800994 0.641499 -0.035859 0.000000 -1.000000 0.000000 0.132028 0.937537
-0.811366 0.641499 -0.038638 0.000000 -1.000000 0.000000 0.132028 0.935991
-0.785683 0.641499 -0.059437 0.000000 -1.000000 0.000000 0.128307 0.938745
-0.790969 0.641499 -0.039708 0.000000 -1.000000 0.000000 0.131159 0.938745
-0.811366 0.641499 -0.038638 0.000000 -1.000000 0.000000 0.132028 0.935991
-0.802812 0.641499 -0.070561 0.000000 -1.000000 0.000000 0.127388 0.935991
-0.785683 0.641499 -0.059437 0.000000 -1.000000 0.000000 0.128307 0.938745
-0.811366 0.641499 -0.038638 0.000000 -1.000000 0.000000 0.132028 0.935991
-0.818687 0.641499 -0.057706 0.000000 -1.000000 0.000000 0.129707 0.934347
-0.802812 0.641499 -0.070561 0.000000 -0.999969 0.000000 0.127388 0.935991
-0.811366 0.641499 -0.038638 0.000000 -1.000000 0.000000 0.132028 0.935991
-0.818687 0.641499 -0.057706 0.000000 -1.000000 0.000000 0.129707 0.934347
-0.811366 0.641499 -0.038638 0.000000 -1.000000 0.000000 0.132028 0.935991
-0.818121 0.641499 -0.046984 0.000000 -1.000000 0.000000 0.131159 0.934782
-0.811366 0.889498 -0.038638 0.000000 1.000000 0.000000 0.127388 0.935991
-0.800994 0.889498 -0.035859 0.000000 0.999969 0.000000 0.127388 0.937537
-0.790969 0.889498 -0.039708 0.000000 1.000000 0.000000 0.128258 0.938745
-0.790969 0.889498 -0.039708 0.000000 1.000000 0.000000 0.128258 0.938745
-0.785118 0.889498 -0.048711 0.000000 1.000000 0.000000 0.129756 0.939180
-0.785683 0.889498 -0.059437 0.000000 1.000000 0.000000 0.131159 0.938745
-0.785683 0.889498 -0.059437 0.000000 1.000000 0.000000 0.131159 0.938745
-0.792440 0.889498 -0.067782 0.000000 1.000000 0.000000 0.132075 0.937537
-0.802812 0.889498 -0.070561 0.000000 1.000000 0.000000 0.132075 0.935991
-0.802812 0.889498 -0.070561 0.000000 1.000000 0.000000 0.132075 0.935991
-0.812835 0.889498 -0.066712 0.000000 1.000000 0.000000 0.131159 0.934782
-0.818687 0.889498 -0.057706 0.000000 1.000000 0.000000 0.129756 0.934347
-0.785683 0.889498 -0.059437 0.000000 1.000000 0.000000 0.131159 0.938745
-0.802812 0.889498 -0.070561 0.000000 1.000000 0.000000 0.132075 0.935991
-0.818687 0.889498 -0.057706 0.000000 1.000000 0.000000 0.129756 0.934347
-0.790969 0.889498 -0.039708 0.000000 1.000000 0.000000 0.128258 0.938745
-0.785683 0.889498 -0.059437 0.000000 0.999969 0.000000 0.131159 0.938745
-0.818687 0.889498 -0.057706 0.000000 1.000000 0.000000 0.129756 0.934347
-0.811366 0.889498 -0.038638 0.000000 1.000000 0.000000 0.127388 0.935991
-0.790969 0.889498 -0.039708 0.000000 1.000000 0.000000 0.128258 0.938745
-0.818687 0.889498 -0.057706 0.000000 1.000000 0.000000 0.129756 0.934347
-0.811366 0.889498 -0.038638 0.000000 1.000000 0.000000 0.127388 0.935991
-0.818687 0.889498 -0.057706 0.000000 1.000000 0.000000 0.129756 0.934347
-0.818121 0.889498 -0.046984 0.000000 1.000000 0.000000 0.128258 0.934782
-1.002820 0.592906 -0.099814 -0.259255 -0.002716 0.965789 0.326265 0.909286
-0.814630 0.650545 -0.049130 -0.259255 -0.002716 0.965789 0.332931 0.932160
-0.814876 0.872963 -0.048570 -0.259255 -0.002716 0.965789 0.363621 0.932078
-1.003193 0.930440 -0.098962 -0.259255 -0.002716 0.965789 0.371027 0.909286
-1.046181 0.592888 -0.111454 -0.259255 -0.002716 0.965789 0.326265 0.904020
-1.046553 0.930422 -0.110603 -0.259255 -0.002716 0.965789 0.371027 0.904020
-1.479481 0.716330 -0.227429 -0.259255 -0.002716 0.965789 0.342722 0.851690
-1.479581 0.806608 -0.227202 -0.259255 -0.002686 0.965789 0.354570 0.851607
-0.999359 0.592942 -0.112700 0.259255 0.002716 -0.965789 0.326265 0.909286
-0.999734 0.930477 -0.111848 0.259255 0.002716 -0.965789 0.371027 0.909286
-0.811417 0.872998 -0.061456 0.259255 0.002716 -0.965789 0.363621 0.932078
-0.811171 0.650582 -0.062016 0.259255 0.002716 -0.965789 0.332931 0.932160
-1.042721 0.592924 -0.124340 0.259255 0.002716 -0.965789 0.326265 0.904020
-1.043094 0.930458 -0.123489 0.259255 0.002716 -0.965789 0.371027 0.904020
-1.476022 0.716366 -0.240314 0.259255 0.002716 -0.965789 0.342722 0.851690
-1.476122 0.806644 -0.240088 0.259255 0.002686 -0.965789 0.354570 0.851607
-0.999734 0.930477 -0.111848 0.272439 0.959166 0.075838 0.374565 0.873082
-1.003193 0.930440 -0.098962 0.272439 0.959166 0.075838 0.376621 0.873082
-0.814876 0.872963 -0.048570 0.272439 0.959166 0.075838 0.376539 0.851443
-0.814876 0.872963 -0.048570 0.272469 0.959166 0.075808 0.376539 0.851443
-0.811417 0.872998 -0.061456 0.272469 0.959166 0.075808 0.374565 0.851443
-0.999734 0.930477 -0.111848 0.272469 0.959166 0.075808 0.374565 0.873082
-0.811171 0.650582 -0.062016 0.274575 -0.958922 0.070956 0.372261 0.932490
-0.814630 0.650545 -0.049130 0.274575 -0.958922 0.070956 0.374318 0.932490
-1.002820 0.592906 -0.099814 0.274575 -0.958922 0.070956 0.374400 0.908875
-1.002820 0.592906 -0.099814 0.274545 -0.958922 0.071047 0.374400 0.908875
-0.999359 0.592942 -0.112700 0.274545 -0.958922 0.071047 0.372343 0.908875
-0.811171 0.650582 -0.062016 0.274545 -0.958922 0.071047 0.372261 0.932490
-1.043094 0.930458 -0.123489 -0.001068 0.999969 0.002472 0.374565 0.878266
-1.046553 0.930422 -0.110603 -0.001068 0.999969 0.002472 0.376621 0.878266
-1.003193 0.930440 -0.098962 -0.001068 0.999969 0.002472 0.376621 0.873082
-1.003193 0.930440 -0.098962 -0.001099 0.999969 0.002503 0.376621 0.873082
-0.999734 0.930477 -0.111848 -0.001099 0.999969 0.002503 0.374565 0.873082
-1.043094 0.930458 -0.123489 -0.001099 0.999969 0.002503 0.374565 0.878266
-0.999359 0.592942 -0.112700 0.001099 -0.999969 -0.002472 0.372343 0.908875
-1.002820 0.592906 -0.099814 0.001099 -0.999969 -0.002472 0.374400 0.908875
-1.046181 0.592888 -0.111454 0.001099 -0.999969 -0.002472 0.374400 0.903691
-1.046181 0.592888 -0.111454 0.001099 -0.999969 -0.002503 0.374400 0.903691
-1.042721 0.592924 -0.124340 0.001099 -0.999969 -0.002503 0.372343 0.903691
-0.999359 0.592942 -0.112700 0.001099 -0.999969 -0.002503 0.372343 0.908875
-1.476122 0.806644 -0.240088 -0.257698 0.963927 -0.066439 0.374729 0.932490
-1.479581 0.806608 -0.227202 -0.257698 0.963927 -0.066439 0.376786 0.932490
-1.046553 0.930422 -0.110603 -0.257698 0.963927 -0.066439 0.376621 0.878266
-1.046553 0.930422 -0.110603 -0.257698 0.963927 -0.066469 0.376621 0.878266
-1.043094 0.930458 -0.123489 -0.257698 0.963927 -0.066469 0.374565 0.878266
-1.476122 0.806644 -0.240088 -0.257698 0.963927 -0.066469 0.374729 0.932490
-1.476022 0.716366 -0.240314 -0.965789 -0.000397 -0.259255 0.369793 0.932572
-1.479481 0.716330 -0.227429 -0.965789 -0.000397 -0.259255 0.371767 0.932572
-1.479581 0.806608 -0.227202 -0.965789 -0.000397 -0.259255 0.371767 0.918831
-1.479581 0.806608 -0.227202 -0.965789 -0.000427 -0.259255 0.371767 0.918831
-1.476122 0.806644 -0.240088 -0.965789 -0.000427 -0.259255 0.369793 0.918831
-1.476022 0.716366 -0.240314 -0.965789 -0.000427 -0.259255 0.369793 0.932572
-1.042721 0.592924 -0.124340 -0.255562 -0.964141 -0.071322 0.372343 0.903691
-1.046181 0.592888 -0.111454 -0.255562 -0.964141 -0.071322 0.374400 0.903691
-1.479481 0.716330 -0.227429 -0.255562 -0.964141 -0.071322 0.374565 0.853829
-1.479481 0.716330 -0.227429 -0.255562 -0.964141 -0.071322 0.374565 0.853829
-1.476022 0.716366 -0.240314 -0.255562 -0.964141 -0.071322 0.372507 0.853829
-1.042721 0.592924 -0.124340 -0.255562 -0.964141 -0.071322 0.372343 0.903691
3 0 1 2
3 2 3 0
3 4 5 1
3 1 0 4
3 6 7 5
3 5 4 6
3 8 9 10
3 10 11 8
3 12 13 14
3 14 15 12
3 16 17 18
3 18 19 16
3 20 21 17
3 17 16 20
3 22 23 21
3 21 20 22
3 24 25 26
3 26 27 24
3 28 29 30
3 30 31 28
3 32 33 34
3 35 36 32
3 37 38 33
3 33 32 37
3 39 40 41
3 41 42 43
3 43 44 45
3 41 43 45
3 45 46 47
3 47 48 49
3 45 47 49
3 41 45 49
3 39 41 49
3 39 49 50
3 51 52 53
3 54 55 56
3 57 58 59
3 60 61 62
3 63 64 65
3 66 67 68
3 69 70 71
3 72 73 74
3 75 76 77
3 78 79 80
3 81 82 83
3 84 85 86
3 87 88 89
3 90 91 92
3 93 94 95
3 96 97 98
3 99 100 101
3 102 103 104
3 105 106 107
3 108 109 110
3 111 112 113
3 114 115 116
3 117 118 119
3 120 121 122
3 123 124 125
3 125 126 123
3 127 128 129
3 129 130 127
3 131 132 133
3 133 134 131
3 135 136 137
3 137 138 135
3 139 140 141
3 141 142 139
3 143 144 145
3 145 146 143
3 147 148 149
3 149 150 147
3 151 152 153
3 154 155 151
3 156 157 158
3 158 159 156
3 160 161 162
3 162 163 160
3 164 165 166
3 167 168 169
3 170 171 172
3 173 174 175
3 176 177 178
3 179 180 181
3 182 183 184
3 185 186 187
3 188 189 190
3 191 192 193
3 194 195 196
3 197 198 199
3 200 201 202
3 203 204 205
3 206 207 208
3 209 210 211
3 212 213 214
3 214 215 212
3 216 212 215
3 215 217 216
3 218 216 217
3 217 219 218
3 220 221 222
3 222 223 220
3 224 225 221
3 221 220 224
3 226 227 225
3 225 224 226
3 228 229 230
3 231 232 233
3 234 235 236
3 237 238 239
3 240 241 242
3 243 244 245
3 246 247 248
3 249 250 251
3 252 253 254
3 255 256 257
3 258 259 260
3 261 262 263
3 264 265 266
3 267 268 269
