ply
format ascii 1.0
comment TextureFile moving_parts.png
element vertex 270
property float x
property float y
property float z
property float nx
property float ny
property float nz
property float s
property float t
element face 120
property list uchar uint vertex_indices
end_header
-0.666549 1.298607 0.056141 0.000000 0.865993 0.499985 0.374263 0.956089
-0.577167 1.298607 0.056141 0.000000 0.865993 0.499985 0.374263 0.936542
-0.577167 1.305727 0.029572 0.000000 0.965911 0.258827 0.368974 0.936542
-0.666549 1.305727 0.029572 0.000000 0.965911 0.258827 0.368974 0.956089
-0.666549 1.279157 0.075592 0.000000 0.499985 0.865993 0.379552 0.956089
-0.577167 1.279157 0.075592 0.000000 0.499985 0.865993 0.379552 0.936542
-0.666549 1.252589 0.082711 0.000000 0.258827 0.965911 0.384843 0.956089
-0.577167 1.252589 0.082711 0.000000 0.258827 0.965911 0.384843 0.936542
-0.666549 1.226016 0.075592 0.000000 -0.258797 0.965911 0.390017 0.956089
-0.577167 1.226016 0.075592 0.000000 -0.258797 0.965911 0.390017 0.936542
-0.577167 1.252589 0.082711 0.000000 -0.258797 0.965911 0.384843 0.936542
-0.666549 1.252589 0.082711 0.000000 -0.258797 0.965911 0.384843 0.956089
-0.666549 1.206566 0.056141 0.000000 -0.707083 0.707083 0.395306 0.956089
-0.577167 1.206566 0.056141 0.000000 -0.707083 0.707083 0.395306 0.936542
-0.577167 1.226016 0.075592 0.000000 -0.707083 0.707083 0.390017 0.936542
-0.666549 1.226016 0.075592 0.000000 -0.707083 0.707083 0.390017 0.956089
-0.666549 1.199448 0.029572 0.000000 -1.000000 0.000000 0.400594 0.956089
-0.577167 1.199448 0.029572 0.000000 -1.000000 0.000000 0.400594 0.936542
-0.577167 1.206566 0.056141 0.000000 -0.965911 0.258766 0.395306 0.936542
-0.666549 1.206566 0.056141 0.000000 -0.965911 0.258766 0.395306 0.956089
-0.666549 1.206566 0.003002 0.000000 -0.866024 -0.499954 0.405884 0.956089
-0.577167 1.206566 0.003002 0.000000 -0.866024 -0.499954 0.405884 0.936542
-0.666549 1.226016 -0.016449 0.000000 -0.707114 -0.707053 0.411174 0.956089
-0.577167 1.226016 -0.016449 0.000000 -0.707114 -0.707083 0.411174 0.936542
-0.666549 1.252589 -0.023569 0.000000 -0.258797 -0.965911 0.416463 0.956089
-0.577167 1.252589 -0.023569 0.000000 -0.258797 -0.965911 0.416463 0.936542
-0.577167 1.226016 -0.016449 0.000000 -0.258797 -0.965911 0.411174 0.936542
-0.666549 1.226016 -0.016449 0.000000 -0.258797 -0.965911 0.411174 0.956089
-0.666549 1.279157 -0.016449 0.000000 0.258827 -0.965911 0.421752 0.956089
-0.577167 1.279157 -0.016449 0.000000 0.258827 -0.965911 0.421752 0.936542
-0.577167 1.252589 -0.023569 0.000000 0.258827 -0.965911 0.416463 0.936542
-0.666549 1.252589 -0.023569 0.000000 0.258827 -0.965911 0.416463 0.956089
-0.666549 1.298607 0.003002 0.000000 0.866024 -0.499985 0.363686 0.956089
-0.577167 1.298607 0.003002 0.000000 0.866024 -0.499985 0.363686 0.936542
-0.577167 1.279157 -0.016449 0.000000 0.707114 -0.707053 0.358394 0.936542
-0.577167 1.279157 -0.016449 0.000000 0.707114 -0.707053 0.358394 0.936542
-0.666549 1.279157 -0.016449 0.000000 0.707114 -0.707053 0.358394 0.956089
-0.666549 1.305727 0.029572 0.000000 0.965911 -0.258827 0.368974 0.956089
-0.577167 1.305727 0.029572 0.000000 0.965911 -0.258827 0.368974 0.936542
-0.674740 1.292797 0.006356 -1.000000 0.000000 0.000000 0.338968 0.951349
-0.674740 1.275802 -0.010637 -1.000000 0.000000 0.000000 0.342645 0.955029
-0.674740 1.252589 -0.016858 -1.000000 0.000000 0.000000 0.347705 0.956408
-0.674740 1.229373 -0.010637 -1.000000 0.000000 0.000000 0.352766 0.955144
-0.674740 1.212380 0.006357 -1.000000 0.000000 0.000000 0.356445 0.951462
-0.674740 1.206159 0.029572 -1.000000 0.000000 0.000000 0.357826 0.946402
-0.674740 1.212380 0.052786 -1.000000 0.000000 0.000000 0.356559 0.941344
-0.674740 1.229373 0.069780 -1.000000 0.000000 0.000000 0.352879 0.937549
-0.674740 1.252589 0.076000 -1.000000 0.000000 0.000000 0.347821 0.936168
-0.674740 1.275802 0.069780 -0.999969 0.000000 0.000000 0.342763 0.937549
-0.674740 1.292797 0.052786 -1.000000 0.000000 0.000000 0.338968 0.941229
-0.674740 1.299016 0.029572 -1.000000 0.000000 0.000000 0.337587 0.946175
-0.674740 1.292797 0.052786 -0.620472 0.757469 0.202979 0.335226 0.946365
-0.666549 1.298607 0.056141 -0.620472 0.757469 0.202979 0.335915 0.944526
-0.666549 1.305727 0.029572 -0.620472 0.757469 0.202979 0.330167 0.944526
-0.666549 1.305727 0.029572 -0.620594 0.757408 0.202887 0.330167 0.944526
-0.674740 1.299016 0.029572 -0.620594 0.757408 0.202887 0.330167 0.946365
-0.674740 1.292797 0.052786 -0.620594 0.757408 0.202887 0.335226 0.946365
-0.674740 1.275802 0.069780 -0.620563 0.554460 0.554460 0.335800 0.944295
-0.666549 1.279157 0.075592 -0.620563 0.554460 0.554460 0.336146 0.941997
-0.666549 1.298607 0.056141 -0.620563 0.554460 0.554460 0.330167 0.941881
-0.666549 1.298607 0.056141 -0.620502 0.554460 0.554521 0.330167 0.941881
-0.674740 1.292797 0.052786 -0.620502 0.554460 0.554521 0.330511 0.944182
-0.674740 1.275802 0.069780 -0.620502 0.554460 0.554521 0.335800 0.944295
-0.674740 1.252589 0.076000 -0.620563 0.202948 0.757408 0.330050 0.941650
-0.666549 1.252589 0.082711 -0.620563 0.202948 0.757408 0.330050 0.939809
-0.666549 1.279157 0.075592 -0.620563 0.202948 0.757408 0.324303 0.939809
-0.666549 1.279157 0.075592 -0.620533 0.202948 0.757439 0.324303 0.939809
-0.674740 1.275802 0.069780 -0.620533 0.202948 0.757439 0.324992 0.941650
-0.674740 1.252589 0.076000 -0.620533 0.202948 0.757439 0.330050 0.941650
-0.674740 1.229373 0.069780 -0.620563 -0.202918 0.757408 0.335110 0.941650
-0.666549 1.226016 0.075592 -0.620563 -0.202918 0.757408 0.335915 0.939809
-0.666549 1.252589 0.082711 -0.620563 -0.202918 0.757408 0.330050 0.939809
-0.666549 1.252589 0.082711 -0.620594 -0.202918 0.757408 0.330050 0.939809
-0.674740 1.252589 0.076000 -0.620594 -0.202918 0.757408 0.330050 0.941650
-0.674740 1.229373 0.069780 -0.620594 -0.202918 0.757408 0.335110 0.941650
-0.674740 1.212380 0.052786 -0.620655 -0.554430 0.554399 0.329823 0.944295
-0.666549 1.206566 0.056141 -0.620655 -0.554430 0.554399 0.330167 0.941997
-0.666549 1.226016 0.075592 -0.620655 -0.554430 0.554399 0.324188 0.941881
-0.666549 1.226016 0.075592 -0.620594 -0.554460 0.554430 0.324188 0.941881
-0.674740 1.229373 0.069780 -0.620594 -0.554460 0.554430 0.324532 0.944182
-0.674740 1.212380 0.052786 -0.620594 -0.554460 0.554430 0.329823 0.944295
-0.674740 1.206159 0.029572 -0.620563 -0.757408 0.202918 0.330167 0.948549
-0.666549 1.199448 0.029572 -0.620563 -0.757408 0.202918 0.330167 0.946710
-0.666549 1.206566 0.056141 -0.620563 -0.757408 0.202918 0.324416 0.946710
-0.666549 1.206566 0.056141 -0.620685 -0.757317 0.202948 0.324416 0.946710
-0.674740 1.212380 0.052786 -0.620685 -0.757317 0.202948 0.325107 0.948549
-0.674740 1.206159 0.029572 -0.620685 -0.757317 0.202948 0.330167 0.948549
-0.674740 1.212380 0.006357 -0.620655 -0.757347 -0.202887 0.335226 0.948549
-0.666549 1.206566 0.003002 -0.620655 -0.757347 -0.202887 0.336031 0.946710
-0.666549 1.199448 0.029572 -0.620655 -0.757347 -0.202887 0.330167 0.946710
-0.666549 1.199448 0.029572 -0.620563 -0.757408 -0.202979 0.330167 0.946710
-0.674740 1.206159 0.029572 -0.620563 -0.757408 -0.202979 0.330167 0.948549
-0.674740 1.212380 0.006357 -0.620563 -0.757408 -0.202979 0.335226 0.948549
-0.674740 1.229373 -0.010637 -0.620655 -0.554430 -0.554399 0.336146 0.953149
-0.666549 1.226016 -0.016449 -0.620655 -0.554430 -0.554399 0.336489 0.950850
-0.666549 1.206566 0.003002 -0.620655 -0.554430 -0.554399 0.330511 0.950734
-0.666549 1.206566 0.003002 -0.620655 -0.554430 -0.554399 0.330511 0.950734
-0.674740 1.212380 0.006357 -0.620655 -0.554430 -0.554399 0.330854 0.953035
-0.674740 1.229373 -0.010637 -0.620655 -0.554430 -0.554399 0.336146 0.953149
-0.674740 1.252589 -0.016858 -0.620594 -0.202918 -0.757378 0.330280 0.950504
-0.666549 1.252589 -0.023569 -0.620594 -0.202918 -0.757378 0.330280 0.948780
-0.666549 1.226016 -0.016449 -0.620594 -0.202918 -0.757378 0.324532 0.948780
-0.666549 1.226016 -0.016449 -0.620624 -0.202948 -0.757347 0.324532 0.948780
-0.674740 1.229373 -0.010637 -0.620624 -0.202948 -0.757347 0.325221 0.950504
-0.674740 1.252589 -0.016858 -0.620624 -0.202948 -0.757347 0.330280 0.950504
-0.674740 1.275802 -0.010637 -0.620624 0.202948 -0.757378 0.335340 0.950504
-0.666549 1.279157 -0.016449 -0.620624 0.202948 -0.757378 0.336146 0.948780
-0.666549 1.252589 -0.023569 -0.620624 0.202948 -0.757378 0.330280 0.948780
-0.666549 1.252589 -0.023569 -0.620594 0.202979 -0.757378 0.330280 0.948780
-0.674740 1.252589 -0.016858 -0.620594 0.202979 -0.757378 0.330280 0.950504
-0.674740 1.275802 -0.010637 -0.620594 0.202979 -0.757378 0.335340 0.950504
-0.674740 1.292797 0.006356 -0.620441 0.554552 -0.554491 0.329936 0.953035
-0.666549 1.298607 0.003002 -0.620441 0.554552 -0.554491 0.330280 0.950850
-0.666549 1.279157 -0.016449 -0.620441 0.554552 -0.554491 0.324303 0.950734
-0.666549 1.279157 -0.016449 -0.620624 0.554399 -0.554460 0.324303 0.950734
-0.674740 1.275802 -0.010637 -0.620624 0.554399 -0.554460 0.324647 0.953035
-0.674740 1.292797 0.006356 -0.620624 0.554399 -0.554460 0.329936 0.953035
-0.674740 1.299016 0.029572 -0.620563 0.757408 -0.202948 0.330167 0.946365
-0.666549 1.305727 0.029572 -0.620563 0.757408 -0.202948 0.330167 0.944526
-0.666549 1.298607 0.003002 -0.620563 0.757408 -0.202948 0.324303 0.944526
-0.666549 1.298607 0.003002 -0.620472 0.757500 -0.202918 0.324303 0.944526
-0.674740 1.292797 0.006356 -0.620472 0.757500 -0.202918 0.325107 0.946365
-0.674740 1.299016 0.029572 -0.620472 0.757500 -0.202918 0.330167 0.946365
-0.691802 1.376587 0.025075 -0.838527 0.000000 -0.544816 0.122300 0.977999
-0.685950 1.376587 0.016069 -0.838527 0.000000 -0.544816 0.122300 0.979643
-0.685950 1.128588 0.016069 -0.838527 0.000000 -0.544816 0.171113 0.979643
-0.691802 1.128588 0.025075 -0.838527 0.000000 -0.544816 0.171113 0.977999
-0.675927 1.128588 0.012220 -0.358470 0.000000 -0.933531 0.171113 0.981286
-0.685950 1.128588 0.016069 -0.358470 0.000000 -0.933531 0.171113 0.979643
-0.685950 1.376587 0.016069 -0.358470 0.000000 -0.933531 0.122300 0.979643
-0.675927 1.376587 0.012220 -0.358470 0.000000 -0.933531 0.122300 0.981286
-0.675927 1.376587 0.012220 0.258797 0.000000 -0.965911 0.122300 0.981286
-0.665555 1.376587 0.014999 0.258797 0.000000 -0.965911 0.122300 0.982880
-0.665555 1.128588 0.014999 0.258797 0.000000 -0.965911 0.171113 0.982880
-0.675927 1.128588 0.012220 0.258797 0.000000 -0.965911 0.171113 0.981286
-0.665555 1.376587 0.014999 0.777154 0.000000 -0.629261 0.122300 0.982880
-0.658798 1.376587 0.023344 0.777154 0.000000 -0.629261 0.122300 0.984476
-0.658798 1.128588 0.023344 0.777154 0.000000 -0.629261 0.171113 0.984476
-0.665555 1.128588 0.014999 0.777154 0.000000 -0.629261 0.171113 0.982880
-0.658798 1.376587 0.023344 0.998596 0.000000 -0.052553 0.122300 0.984476
-0.658233 1.376587 0.034070 0.998596 0.000000 -0.052553 0.122300 0.986119
-0.658233 1.128588 0.034070 0.998596 0.000000 -0.052553 0.171113 0.986119
-0.658798 1.128588 0.023344 0.998596 0.000000 -0.052553 0.171113 0.984476
-0.664084 1.128588 0.043073 0.838466 0.000000 0.544908 0.171113 0.987665
-0.658233 1.128588 0.034070 0.838466 0.000000 0.544908 0.171113 0.986119
-0.658233 1.376587 0.034070 0.838466 0.000000 0.544908 0.122300 0.986119
-0.664084 1.376587 0.043073 0.838466 0.000000 0.544908 0.122300 0.987665
-0.674109 1.376587 0.046922 0.358440 0.000000 0.933531 0.122300 0.989260
-0.674109 1.128588 0.046922 0.358440 0.000000 0.933531 0.171113 0.989260
-0.664084 1.128588 0.043073 0.358440 0.000000 0.933531 0.171113 0.987665
-0.664084 1.376587 0.043073 0.358440 0.000000 0.933531 0.122300 0.987665
-0.684481 1.128588 0.044143 -0.258797 0.000000 0.965911 0.171113 0.974858
-0.674109 1.128588 0.046922 -0.258797 0.000000 0.965911 0.171113 0.973311
-0.674109 1.376587 0.046922 -0.258797 0.000000 0.965911 0.122300 0.973311
-0.674109 1.376587 0.046922 -0.258797 0.000000 0.965911 0.122300 0.973311
-0.684481 1.376587 0.044143 -0.258797 0.000000 0.965911 0.122300 0.974858
-0.691236 1.376587 0.035797 -0.777245 0.000000 0.629170 0.122300 0.976452
-0.691236 1.128588 0.035797 -0.777245 0.000000 0.629170 0.171113 0.976452
-0.684481 1.128588 0.044143 -0.777245 0.000000 0.629170 0.171113 0.974858
-0.684481 1.376587 0.044143 -0.777245 0.000000 0.629170 0.122300 0.974858
-0.691802 1.128588 0.025075 -0.998596 0.000000 0.052705 0.171113 0.977999
-0.691236 1.128588 0.035797 -0.998596 0.000000 0.052705 0.171113 0.976452
-0.691236 1.376587 0.035797 -0.998596 0.000000 0.052705 0.122300 0.976452
-0.691802 1.376587 0.025075 -0.998596 0.000000 0.052705 0.122300 0.977999
-0.691802 1.128588 0.025075 0.000000 -1.000000 0.000000 0.134881 0.934312
-0.685950 1.128588 0.016069 0.000000 -1.000000 0.000000 0.133481 0.934747
-0.675927 1.128588 0.012220 0.000000 -1.000000 0.000000 0.132561 0.935956
-0.675927 1.128588 0.012220 0.000000 -1.000000 0.000000 0.132561 0.935956
-0.665555 1.128588 0.014999 0.000000 -1.000000 0.000000 0.132561 0.937502
-0.658798 1.128588 0.023344 0.000000 -1.000000 0.000000 0.133481 0.938710
-0.658798 1.128588 0.023344 0.000000 -1.000000 0.000000 0.133481 0.938710
-0.658233 1.128588 0.034070 0.000000 -1.000000 0.000000 0.134881 0.939145
-0.664084 1.128588 0.043073 0.000000 -1.000000 0.000000 0.136332 0.938710
-0.664084 1.128588 0.043073 0.000000 -1.000000 0.000000 0.136332 0.938710
-0.674109 1.128588 0.046922 0.000000 -0.999969 0.000000 0.137202 0.937502
-0.684481 1.128588 0.044143 0.000000 -0.999969 0.000000 0.137202 0.935956
-0.658798 1.128588 0.023344 0.000000 -1.000000 0.000000 0.133481 0.938710
-0.664084 1.128588 0.043073 0.000000 -1.000000 0.000000 0.136332 0.938710
-0.684481 1.128588 0.044143 0.000000 -1.000000 0.000000 0.137202 0.935956
-0.675927 1.128588 0.012220 0.000000 -1.000000 0.000000 0.132561 0.935956
-0.658798 1.128588 0.023344 0.000000 -1.000000 0.000000 0.133481 0.938710
-0.684481 1.128588 0.044143 0.000000 -0.999969 0.000000 0.137202 0.935956
-0.691802 1.128588 0.025075 0.000000 -1.000000 0.000000 0.134881 0.934312
-0.675927 1.128588 0.012220 0.000000 -1.000000 0.000000 0.132561 0.935956
-0.684481 1.128588 0.044143 0.000000 -1.000000 0.000000 0.137202 0.935956
-0.691802 1.128588 0.025075 0.000000 -1.000000 0.000000 0.134881 0.934312
-0.684481 1.128588 0.044143 0.000000 -1.000000 0.000000 0.137202 0.935956
-0.691236 1.128588 0.035797 0.000000 -1.000000 0.000000 0.136332 0.934747
-0.684481 1.376587 0.044143 0.000000 1.000000 0.000000 0.132561 0.935956
-0.674109 1.376587 0.046922 0.000000 0.999969 0.000000 0.132561 0.937502
-0.664084 1.376587 0.043073 0.000000 1.000000 0.000000 0.133432 0.938710
-0.664084 1.376587 0.043073 0.000000 1.000000 0.000000 0.133432 0.938710
-0.658233 1.376587 0.034070 0.000000 1.000000 0.000000 0.134930 0.939145
-0.658798 1.376587 0.023344 0.000000 1.000000 0.000000 0.136332 0.938710
-0.658798 1.376587 0.023344 0.000000 1.000000 0.000000 0.136332 0.938710
-0.665555 1.376587 0.014999 0.000000 1.000000 0.000000 0.137249 0.937502
-0.675927 1.376587 0.012220 0.000000 1.000000 0.000000 0.137249 0.935956
-0.675927 1.376587 0.012220 0.000000 1.000000 0.000000 0.137249 0.935956
-0.685950 1.376587 0.016069 0.000000 1.000000 0.000000 0.136332 0.934747
-0.691802 1.376587 0.025075 0.000000 1.000000 0.000000 0.134930 0.934312
-0.658798 1.376587 0.023344 0.000000 1.000000 0.000000 0.136332 0.938710
-0.675927 1.376587 0.012220 0.000000 1.000000 0.000000 0.137249 0.935956
-0.691802 1.376587 0.025075 0.000000 1.000000 0.000000 0.134930 0.934312
-0.664084 1.376587 0.043073 0.000000 1.000000 0.000000 0.133432 0.938710
-0.658798 1.376587 0.023344 0.000000 1.000000 0.000000 0.136332 0.938710
-0.691802 1.376587 0.025075 0.000000 1.000000 0.000000 0.134930 0.934312
-0.684481 1.376587 0.044143 0.000000 1.000000 0.000000 0.132561 0.935956
-0.664084 1.376587 0.043073 0.000000 1.000000 0.000000 0.133432 0.938710
-0.691802 1.376587 0.025075 0.000000 1.000000 0.000000 0.134930 0.934312
-0.684481 1.376587 0.044143 0.000000 1.000000 0.000000 0.132561 0.935956
-0.691802 1.376587 0.025075 0.000000 1.000000 0.000000 0.134930 0.934312
-0.691236 1.376587 0.035797 0.000000 0.999969 0.000000 0.133432 0.934747
-0.875935 1.079995 -0.017033 -0.259255 -0.002716 0.965789 0.379093 0.908968
-0.687745 1.137634 0.033651 -0.259255 -0.002716 0.965789 0.385758 0.931842
-0.687992 1.360051 0.034211 -0.259255 -0.002716 0.965789 0.416449 0.931760
-0.876308 1.417529 -0.016181 -0.259255 -0.002716 0.965789 0.423854 0.908968
-0.919296 1.079977 -0.028673 -0.259255 -0.002716 0.965789 0.379093 0.903702
-0.919668 1.417511 -0.027822 -0.259255 -0.002716 0.965789 0.423854 0.903702
-1.352596 1.203418 -0.144648 -0.259255 -0.002716 0.965789 0.395550 0.851371
-1.352696 1.293697 -0.144421 -0.259255 -0.002716 0.965789 0.407398 0.851289
-0.872475 1.080031 -0.029918 0.259255 0.002716 -0.965789 0.379093 0.908968
-0.872849 1.417566 -0.029067 0.259255 0.002716 -0.965789 0.423854 0.908968
-0.684532 1.360087 0.021325 0.259255 0.002716 -0.965789 0.416449 0.931760
-0.684286 1.137671 0.020765 0.259255 0.002716 -0.965789 0.385758 0.931842
-0.915836 1.080013 -0.041559 0.259255 0.002716 -0.965789 0.379093 0.903702
-0.916210 1.417547 -0.040708 0.259255 0.002716 -0.965789 0.423854 0.903702
-1.349137 1.203455 -0.157533 0.259255 0.002716 -0.965789 0.395550 0.851371
-1.349238 1.293733 -0.157307 0.259255 0.002686 -0.965789 0.407398 0.851289
-0.872849 1.417566 -0.029067 0.272439 0.959166 0.075838 0.427392 0.872764
-0.876308 1.417529 -0.016181 0.272439 0.959166 0.075838 0.429449 0.872764
-0.687992 1.360051 0.034211 0.272439 0.959166 0.075838 0.429367 0.851124
-0.687992 1.360051 0.034211 0.272469 0.959166 0.075808 0.429367 0.851124
-0.684532 1.360087 0.021325 0.272469 0.959166 0.075808 0.427392 0.851124
-0.872849 1.417566 -0.029067 0.272469 0.959166 0.075808 0.427392 0.872764
-0.684286 1.137671 0.020765 0.274575 -0.958922 0.070956 0.425089 0.932171
-0.687745 1.137634 0.033651 0.274575 -0.958922 0.070956 0.427145 0.932171
-0.875935 1.079995 -0.017033 0.274575 -0.958922 0.070956 0.427227 0.908557
-0.875935 1.079995 -0.017033 0.274575 -0.958922 0.071017 0.427227 0.908557
-0.872475 1.080031 -0.029918 0.274575 -0.958922 0.071017 0.425170 0.908557
-0.684286 1.137671 0.020765 0.274575 -0.958922 0.071017 0.425089 0.932171
-0.916210 1.417547 -0.040708 -0.001068 0.999969 0.002472 0.427392 0.877948
-0.919668 1.417511 -0.027822 -0.001068 0.999969 0.002472 0.429449 0.877948
-0.876308 1.417529 -0.016181 -0.001068 0.999969 0.002472 0.429449 0.872764
-0.876308 1.417529 -0.016181 -0.001099 0.999969 0.002533 0.429449 0.872764
-0.872849 1.417566 -0.029067 -0.001099 0.999969 0.002533 0.427392 0.872764
-0.916210 1.417547 -0.040708 -0.001099 0.999969 0.002533 0.427392 0.877948
-0.872475 1.080031 -0.029918 0.001099 -0.999969 -0.002472 0.425170 0.908557
-0.875935 1.079995 -0.017033 0.001099 -0.999969 -0.002472 0.427227 0.908557
-0.919296 1.079977 -0.028673 0.001099 -0.999969 -0.002472 0.427227 0.903373
-0.919296 1.079977 -0.028673 0.001099 -0.999969 -0.002503 0.427227 0.903373
-0.915836 1.080013 -0.041559 0.001099 -0.999969 -0.002503 0.425170 0.903373
-0.872475 1.080031 -0.029918 0.001099 -0.999969 -0.002503 0.425170 0.908557
-1.349238 1.293733 -0.157307 -0.257698 0.963927 -0.066439 0.427556 0.932171
-1.352696 1.293697 -0.144421 -0.257698 0.963927 -0.066439 0.429614 0.932171
-0.919668 1.417511 -0.027822 -0.257698 0.963927 -0.066439 0.429449 0.877948
-0.919668 1.417511 -0.027822 -0.257698 0.963927 -0.066439 0.429449 0.877948
-0.916210 1.417547 -0.040708 -0.257698 0.963927 -0.066439 0.427392 0.877948
-1.349238 1.293733 -0.157307 -0.257698 0.963927 -0.066439 0.427556 0.932171
-1.349137 1.203455 -0.157533 -0.965789 -0.000397 -0.259224 0.422620 0.932254
-1.352596 1.203418 -0.144648 -0.965789 -0.000397 -0.259224 0.424594 0.932254
-1.352696 1.293697 -0.144421 -0.965789 -0.000397 -0.259224 0.424594 0.918512
-1.352696 1.293697 -0.144421 -0.965789 -0.000397 -0.259224 0.424594 0.918512
-1.349238 1.293733 -0.157307 -0.965789 -0.000397 -0.259224 0.422620 0.918512
-1.349137 1.203455 -0.157533 -0.965789 -0.000397 -0.259224 0.422620 0.932254
-0.915836 1.080013 -0.041559 -0.255562 -0.964141 -0.071322 0.425170 0.903373
-0.919296 1.079977 -0.028673 -0.255562 -0.964141 -0.071322 0.427227 0.903373
-1.352596 1.203418 -0.144648 -0.255562 -0.964141 -0.071322 0.427392 0.853510
-1.352596 1.203418 -0.144648 -0.255562 -0.964141 -0.071322 0.427392 0.853510
-1.349137 1.203455 -0.157533 -0.255562 -0.964141 -0.071322 0.425335 0.853510
-0.915836 1.080013 -0.041559 -0.255562 -0.964141 -0.071322 0.425170 0.903373
3 0 1 2
3 2 3 0
3 4 5 1
3 1 0 4
3 6 7 5
3 5 4 6
3 8 9 10
3 10 11 8
3 12 13 14
3 14 15 12
3 16 17 18
3 18 19 16
3 20 21 17
3 17 16 20
3 22 23 21
3 21 20 22
3 24 25 26
3 26 27 24
3 28 29 30
3 30 31 28
3 32 33 34
3 35 36 32
3 37 38 33
3 33 32 37
3 39 40 41
3 41 42 43
3 43 44 45
3 41 43 45
3 45 46 47
3 47 48 49
3 45 47 49
3 41 45 49
3 39 41 49
3 39 49 50
3 51 52 53
3 54 55 56
3 57 58 59
3 60 61 62
3 63 64 65
3 66 67 68
3 69 70 71
3 72 73 74
3 75 76 77
3 78 79 80
3 81 82 83
3 84 85 86
3 87 88 89
3 90 91 92
3 93 94 95
3 96 97 98
3 99 100 101
3 102 103 104
3 105 106 107
3 108 109 110
3 111 112 113
3 114 115 116
3 117 118 119
3 120 121 122
3 123 124 125
3 125 126 123
3 127 128 129
3 129 130 127
3 131 132 133
3 133 134 131
3 135 136 137
3 137 138 135
3 139 140 141
3 141 142 139
3 143 144 145
3 145 146 143
3 147 148 149
3 149 150 147
3 151 152 153
3 154 155 151
3 156 157 158
3 158 159 156
3 160 161 162
3 162 163 160
3 164 165 166
3 167 168 169
3 170 171 172
3 173 174 175
3 176 177 178
3 179 180 181
3 182 183 184
3 185 186 187
3 188 189 190
3 191 192 193
3 194 195 196
3 197 198 199
3 200 201 202
3 203 204 205
3 206 207 208
3 209 210 211
3 212 213 214
3 214 215 212
3 216 212 215
3 215 217 216
3 218 216 217
3 217 219 218
3 220 221 222
3 222 223 220
3 224 225 221
3 221 220 224
3 226 227 225
3 225 224 226
3 228 229 230
3 231 232 233
3 234 235 236
3 237 238 239
3 240 241 242
3 243 244 245
3 246 247 248
3 249 250 251
3 252 253 254
3 255 256 257
3 258 259 260
3 261 262 263
3 264 265 266
3 267 268 269
