ply
format ascii 1.0
comment TextureFile moving_parts.png
element vertex 270
property float x
property float y
property float z
property float nx
property float ny
property float nz
property float s
property float t
element face 120
property list uchar uint vertex_indices
end_header
0.706751 -0.262491 -0.120093 0.000000 0.865993 0.499985 0.275763 0.956089
0.706751 -0.255371 -0.146663 0.000000 0.965911 0.258827 0.270474 0.956089
0.617369 -0.255371 -0.146663 0.000000 0.965911 0.258827 0.270474 0.936542
0.617369 -0.262491 -0.120093 0.000000 0.865993 0.499985 0.275763 0.936542
0.706751 -0.281941 -0.100643 0.000000 0.499985 0.865993 0.281053 0.956089
0.617369 -0.281941 -0.100643 0.000000 0.499985 0.865993 0.281053 0.936542
0.706751 -0.308510 -0.093524 0.000000 0.258827 0.965911 0.286344 0.956089
0.617369 -0.308510 -0.093524 0.000000 0.258827 0.965911 0.286344 0.936542
0.706751 -0.335082 -0.100643 0.000000 -0.258797 0.965911 0.291517 0.956089
0.706751 -0.308510 -0.093524 0.000000 -0.258797 0.965911 0.286344 0.956089
0.617369 -0.308510 -0.093524 0.000000 -0.258797 0.965911 0.286344 0.936542
0.617369 -0.335082 -0.100643 0.000000 -0.258797 0.965911 0.291517 0.936542
0.706751 -0.354532 -0.120093 0.000000 -0.707083 0.707083 0.296806 0.956089
0.706751 -0.335082 -0.100643 0.000000 -0.707083 0.707083 0.291517 0.956089
0.617369 -0.335082 -0.100643 0.000000 -0.707083 0.707083 0.291517 0.936542
0.617369 -0.354532 -0.120093 0.000000 -0.707083 0.707083 0.296806 0.936542
0.706751 -0.361650 -0.146663 0.000000 -1.000000 0.000000 0.302095 0.956089
0.706751 -0.354532 -0.120093 0.000000 -0.965911 0.258766 0.296806 0.956089
0.617369 -0.354532 -0.120093 0.000000 -0.965911 0.258766 0.296806 0.936542
0.617369 -0.361650 -0.146663 0.000000 -1.000000 0.000000 0.302095 0.936542
0.706751 -0.354532 -0.173233 0.000000 -0.866024 -0.499954 0.307384 0.956089
0.617369 -0.354532 -0.173233 0.000000 -0.866024 -0.499954 0.307384 0.936542
0.706751 -0.335082 -0.192684 0.000000 -0.707114 -0.707053 0.312675 0.956089
0.617369 -0.335082 -0.192684 0.000000 -0.707114 -0.707083 0.312675 0.936542
0.706751 -0.308510 -0.199804 0.000000 -0.258797 -0.965911 0.317963 0.956089
0.706751 -0.335082 -0.192684 0.000000 -0.258797 -0.965911 0.312675 0.956089
0.617369 -0.335082 -0.192684 0.000000 -0.258797 -0.965911 0.312675 0.936542
0.617369 -0.308510 -0.199804 0.000000 -0.258797 -0.965911 0.317963 0.936542
0.706751 -0.281941 -0.192684 0.000000 0.258827 -0.965911 0.323253 0.956089
0.706751 -0.308510 -0.199804 0.000000 0.258827 -0.965911 0.317963 0.956089
0.617369 -0.308510 -0.199804 0.000000 0.258827 -0.965911 0.317963 0.936542
0.617369 -0.281941 -0.192684 0.000000 0.258827 -0.965911 0.323253 0.936542
0.706751 -0.262491 -0.173233 0.000000 0.866024 -0.499985 0.265186 0.956089
0.706751 -0.281941 -0.192684 0.000000 0.707114 -0.707083 0.259895 0.956089
0.617369 -0.281941 -0.192684 0.000000 0.707114 -0.707083 0.259895 0.936542
0.617369 -0.281941 -0.192684 0.000000 0.707114 -0.707053 0.259895 0.936542
0.617369 -0.262491 -0.173233 0.000000 0.866024 -0.499985 0.265186 0.936542
0.706751 -0.255371 -0.146663 0.000000 0.965911 -0.258827 0.270474 0.956089
0.617369 -0.255371 -0.146663 0.000000 0.965911 -0.258827 0.270474 0.936542
0.714942 -0.268301 -0.169879 1.000000 0.000000 0.000000 0.240469 0.951349
0.714942 -0.262082 -0.146663 1.000000 0.000000 0.000000 0.239087 0.946175
0.714942 -0.268301 -0.123449 1.000000 0.000000 0.000000 0.240469 0.941229
0.714942 -0.285297 -0.106455 1.000000 0.000000 0.000000 0.244263 0.937549
0.714942 -0.308510 -0.100235 1.000000 0.000000 0.000000 0.249322 0.936168
0.714942 -0.331725 -0.106455 1.000000 0.000000 0.000000 0.254379 0.937549
0.714942 -0.348718 -0.123449 1.000000 0.000000 0.000000 0.258060 0.941344
0.714942 -0.354940 -0.146663 1.000000 0.000000 0.000000 0.259326 0.946402
0.714942 -0.348718 -0.169878 1.000000 0.000000 0.000000 0.257946 0.951462
0.714942 -0.331725 -0.186872 1.000000 0.000000 0.000000 0.254266 0.955144
0.714942 -0.308510 -0.193093 1.000000 0.000000 0.000000 0.249206 0.956408
0.714942 -0.285297 -0.186872 1.000000 0.000000 0.000000 0.244146 0.955029
0.714942 -0.268301 -0.123449 0.620594 0.757408 0.202887 0.236726 0.946365
0.714942 -0.262082 -0.146663 0.620594 0.757408 0.202887 0.231667 0.946365
0.706751 -0.255371 -0.146663 0.620594 0.757408 0.202887 0.231667 0.944526
0.706751 -0.255371 -0.146663 0.620472 0.757469 0.202979 0.231667 0.944526
0.706751 -0.262491 -0.120093 0.620472 0.757469 0.202979 0.237416 0.944526
0.714942 -0.268301 -0.123449 0.620472 0.757469 0.202979 0.236726 0.946365
0.714942 -0.285297 -0.106455 0.620502 0.554491 0.554521 0.237300 0.944295
0.714942 -0.268301 -0.123449 0.620502 0.554491 0.554521 0.232012 0.944182
0.706751 -0.262491 -0.120093 0.620502 0.554491 0.554521 0.231667 0.941881
0.706751 -0.262491 -0.120093 0.620563 0.554460 0.554460 0.231667 0.941881
0.706751 -0.281941 -0.100643 0.620563 0.554460 0.554460 0.237646 0.941997
0.714942 -0.285297 -0.106455 0.620563 0.554460 0.554460 0.237300 0.944295
0.714942 -0.308510 -0.100235 0.620563 0.202948 0.757408 0.231551 0.941650
0.714942 -0.285297 -0.106455 0.620563 0.202948 0.757408 0.226493 0.941650
0.706751 -0.281941 -0.100643 0.620563 0.202948 0.757408 0.225803 0.939809
0.706751 -0.281941 -0.100643 0.620594 0.202948 0.757378 0.225803 0.939809
0.706751 -0.308510 -0.093524 0.620594 0.202948 0.757378 0.231551 0.939809
0.714942 -0.308510 -0.100235 0.620594 0.202948 0.757378 0.231551 0.941650
0.714942 -0.331725 -0.106455 0.620594 -0.202918 0.757408 0.236610 0.941650
0.714942 -0.308510 -0.100235 0.620594 -0.202918 0.757408 0.231551 0.941650
0.706751 -0.308510 -0.093524 0.620594 -0.202918 0.757408 0.231551 0.939809
0.706751 -0.308510 -0.093524 0.620563 -0.202918 0.757408 0.231551 0.939809
0.706751 -0.335082 -0.100643 0.620563 -0.202918 0.757408 0.237416 0.939809
0.714942 -0.331725 -0.106455 0.620563 -0.202918 0.757408 0.236610 0.941650
0.714942 -0.348718 -0.123449 0.620594 -0.554460 0.554430 0.231324 0.944295
0.714942 -0.331725 -0.106455 0.620594 -0.554460 0.554430 0.226032 0.944182
0.706751 -0.335082 -0.100643 0.620594 -0.554460 0.554430 0.225689 0.941881
0.706751 -0.335082 -0.100643 0.620655 -0.554399 0.554399 0.225689 0.941881
0.706751 -0.354532 -0.120093 0.620655 -0.554399 0.554399 0.231667 0.941997
0.714942 -0.348718 -0.123449 0.620655 -0.554399 0.554399 0.231324 0.944295
0.714942 -0.354940 -0.146663 0.620685 -0.757317 0.202948 0.231667 0.948549
0.714942 -0.348718 -0.123449 0.620685 -0.757317 0.202948 0.226607 0.948549
0.706751 -0.354532 -0.120093 0.620685 -0.757317 0.202948 0.225917 0.946710
0.706751 -0.354532 -0.120093 0.620563 -0.757408 0.202918 0.225917 0.946710
0.706751 -0.361650 -0.146663 0.620563 -0.757408 0.202918 0.231667 0.946710
0.714942 -0.354940 -0.146663 0.620563 -0.757408 0.202918 0.231667 0.948549
0.714942 -0.348718 -0.169878 0.620563 -0.757408 -0.202979 0.236726 0.948549
0.714942 -0.354940 -0.146663 0.620563 -0.757408 -0.202979 0.231667 0.948549
0.706751 -0.361650 -0.146663 0.620563 -0.757408 -0.202979 0.231667 0.946710
0.706751 -0.361650 -0.146663 0.620685 -0.757317 -0.202887 0.231667 0.946710
0.706751 -0.354532 -0.173233 0.620685 -0.757317 -0.202887 0.237532 0.946710
0.714942 -0.348718 -0.169878 0.620685 -0.757317 -0.202887 0.236726 0.948549
0.714942 -0.331725 -0.186872 0.620655 -0.554430 -0.554399 0.237646 0.953149
0.714942 -0.348718 -0.169878 0.620655 -0.554430 -0.554399 0.232355 0.953035
0.706751 -0.354532 -0.173233 0.620655 -0.554430 -0.554399 0.232012 0.950734
0.706751 -0.354532 -0.173233 0.620655 -0.554430 -0.554399 0.232012 0.950734
0.706751 -0.335082 -0.192684 0.620655 -0.554430 -0.554399 0.237990 0.950850
0.714942 -0.331725 -0.186872 0.620655 -0.554430 -0.554399 0.237646 0.953149
0.714942 -0.308510 -0.193093 0.620624 -0.202948 -0.757347 0.231781 0.950504
0.714942 -0.331725 -0.186872 0.620624 -0.202948 -0.757347 0.226722 0.950504
0.706751 -0.335082 -0.192684 0.620624 -0.202948 -0.757347 0.226032 0.948780
0.706751 -0.335082 -0.192684 0.620594 -0.202918 -0.757408 0.226032 0.948780
0.706751 -0.308510 -0.199804 0.620594 -0.202918 -0.757408 0.231781 0.948780
0.714942 -0.308510 -0.193093 0.620594 -0.202918 -0.757408 0.231781 0.950504
0.714942 -0.285297 -0.186872 0.620594 0.202979 -0.757378 0.236841 0.950504
0.714942 -0.308510 -0.193093 0.620594 0.202979 -0.757378 0.231781 0.950504
0.706751 -0.308510 -0.199804 0.620594 0.202979 -0.757378 0.231781 0.948780
0.706751 -0.308510 -0.199804 0.620624 0.202948 -0.757378 0.231781 0.948780
0.706751 -0.281941 -0.192684 0.620624 0.202948 -0.757378 0.237646 0.948780
0.714942 -0.285297 -0.186872 0.620624 0.202948 -0.757378 0.236841 0.950504
0.714942 -0.268301 -0.169879 0.620624 0.554399 -0.554460 0.231437 0.953035
0.714942 -0.285297 -0.186872 0.620624 0.554399 -0.554460 0.226148 0.953035
0.706751 -0.281941 -0.192684 0.620624 0.554399 -0.554460 0.225803 0.950734
0.706751 -0.281941 -0.192684 0.620441 0.554552 -0.554491 0.225803 0.950734
0.706751 -0.262491 -0.173233 0.620441 0.554552 -0.554491 0.231781 0.950850
0.714942 -0.268301 -0.169879 0.620441 0.554552 -0.554491 0.231437 0.953035
0.714942 -0.262082 -0.146663 0.620441 0.757500 -0.202918 0.231667 0.946365
0.714942 -0.268301 -0.169879 0.620441 0.757500 -0.202918 0.226607 0.946365
0.706751 -0.262491 -0.173233 0.620441 0.757500 -0.202918 0.225803 0.944526
0.706751 -0.262491 -0.173233 0.620594 0.757378 -0.202948 0.225803 0.944526
0.706751 -0.255371 -0.146663 0.620594 0.757378 -0.202948 0.231667 0.944526
0.714942 -0.262082 -0.146663 0.620594 0.757378 -0.202948 0.231667 0.946365
0.732004 -0.184511 -0.151159 0.838527 0.000000 -0.544847 0.172231 0.977941
0.732004 -0.432510 -0.151159 0.838527 0.000000 -0.544847 0.221043 0.977941
0.726152 -0.432510 -0.160166 0.838527 0.000000 -0.544847 0.221043 0.979584
0.726152 -0.184511 -0.160166 0.838527 0.000000 -0.544847 0.172231 0.979584
0.716129 -0.432510 -0.164015 0.358470 0.000000 -0.933531 0.221043 0.981227
0.716129 -0.184511 -0.164015 0.358470 0.000000 -0.933531 0.172231 0.981227
0.726152 -0.184511 -0.160166 0.358470 0.000000 -0.933531 0.172231 0.979584
0.726152 -0.432510 -0.160166 0.358470 0.000000 -0.933531 0.221043 0.979584
0.716129 -0.184511 -0.164015 -0.258797 0.000000 -0.965911 0.172231 0.981227
0.716129 -0.432510 -0.164015 -0.258797 0.000000 -0.965911 0.221043 0.981227
0.705757 -0.432510 -0.161236 -0.258797 0.000000 -0.965911 0.221043 0.982822
0.705757 -0.184511 -0.161236 -0.258797 0.000000 -0.965911 0.172231 0.982822
0.705757 -0.184511 -0.161236 -0.777154 0.000000 -0.629261 0.172231 0.982822
0.705757 -0.432510 -0.161236 -0.777184 0.000000 -0.629261 0.221043 0.982822
0.699000 -0.432510 -0.152890 -0.777154 0.000000 -0.629261 0.221043 0.984417
0.699000 -0.184511 -0.152890 -0.777154 0.000000 -0.629261 0.172231 0.984417
0.699000 -0.184511 -0.152890 -0.998596 0.000000 -0.052583 0.172231 0.984417
0.699000 -0.432510 -0.152890 -0.998596 0.000000 -0.052583 0.221043 0.984417
0.698435 -0.432510 -0.142165 -0.998596 0.000000 -0.052583 0.221043 0.986060
0.698435 -0.184511 -0.142165 -0.998596 0.000000 -0.052583 0.172231 0.986060
0.704286 -0.432510 -0.133162 -0.838435 0.000000 0.544939 0.221043 0.987607
0.704286 -0.184511 -0.133162 -0.838435 0.000000 0.544939 0.172231 0.987607
0.698435 -0.184511 -0.142165 -0.838435 0.000000 0.544939 0.172231 0.986060
0.698435 -0.432510 -0.142165 -0.838435 0.000000 0.544939 0.221043 0.986060
0.714311 -0.184511 -0.129313 -0.358440 0.000000 0.933531 0.172231 0.989201
0.704286 -0.184511 -0.133162 -0.358440 0.000000 0.933531 0.172231 0.987607
0.704286 -0.432510 -0.133162 -0.358440 0.000000 0.933531 0.221043 0.987607
0.714311 -0.432510 -0.129313 -0.358440 0.000000 0.933531 0.221043 0.989201
0.724683 -0.432510 -0.132092 0.258797 0.000000 0.965911 0.221043 0.974799
0.724683 -0.184511 -0.132092 0.258797 0.000000 0.965911 0.172231 0.974799
0.714311 -0.184511 -0.129313 0.258797 0.000000 0.965911 0.172231 0.973252
0.714311 -0.184511 -0.129313 0.258797 0.000000 0.965911 0.172231 0.973252
0.714311 -0.432510 -0.129313 0.258797 0.000000 0.965911 0.221043 0.973252
0.731439 -0.184511 -0.140438 0.777215 0.000000 0.629200 0.172231 0.976393
0.724683 -0.184511 -0.132092 0.777215 0.000000 0.629200 0.172231 0.974799
0.724683 -0.432510 -0.132092 0.777215 0.000000 0.629170 0.221043 0.974799
0.731439 -0.432510 -0.140438 0.777215 0.000000 0.629170 0.221043 0.976393
0.732004 -0.432510 -0.151159 0.998596 0.000000 0.052675 0.221043 0.977941
0.732004 -0.184511 -0.151159 0.998596 0.000000 0.052675 0.172231 0.977941
0.731439 -0.184511 -0.140438 0.998596 0.000000 0.052675 0.172231 0.976393
0.731439 -0.432510 -0.140438 0.998596 0.000000 0.052675 0.221043 0.976393
0.732004 -0.432510 -0.151159 0.000000 -1.000000 0.000000 0.145416 0.934263
0.731439 -0.432510 -0.140438 0.000000 -1.000000 0.000000 0.146868 0.934698
0.724683 -0.432510 -0.132092 0.000000 -1.000000 0.000000 0.147738 0.935907
0.724683 -0.432510 -0.132092 0.000000 -1.000000 0.000000 0.147738 0.935907
0.714311 -0.432510 -0.129313 0.000000 -0.999969 0.000000 0.147738 0.937453
0.704286 -0.432510 -0.133162 0.000000 -1.000000 0.000000 0.146868 0.938661
0.704286 -0.432510 -0.133162 0.000000 -1.000000 0.000000 0.146868 0.938661
0.698435 -0.432510 -0.142165 0.000000 -0.999969 0.000000 0.145416 0.939096
0.699000 -0.432510 -0.152890 0.000000 -1.000000 0.000000 0.144016 0.938661
0.724683 -0.432510 -0.132092 0.000000 -1.000000 0.000000 0.147738 0.935907
0.704286 -0.432510 -0.133162 0.000000 -1.000000 0.000000 0.146868 0.938661
0.699000 -0.432510 -0.152890 0.000000 -1.000000 0.000000 0.144016 0.938661
0.699000 -0.432510 -0.152890 0.000000 -1.000000 0.000000 0.144016 0.938661
0.705757 -0.432510 -0.161236 0.000000 -1.000000 0.000000 0.143097 0.937453
0.716129 -0.432510 -0.164015 0.000000 -0.999969 0.000000 0.143097 0.935907
0.724683 -0.432510 -0.132092 0.000000 -1.000000 0.000000 0.147738 0.935907
0.699000 -0.432510 -0.152890 0.000000 -1.000000 0.000000 0.144016 0.938661
0.716129 -0.432510 -0.164015 0.000000 -1.000000 0.000000 0.143097 0.935907
0.732004 -0.432510 -0.151159 0.000000 -1.000000 0.000000 0.145416 0.934263
0.724683 -0.432510 -0.132092 0.000000 -1.000000 0.000000 0.147738 0.935907
0.716129 -0.432510 -0.164015 0.000000 -0.999969 0.000000 0.143097 0.935907
0.732004 -0.432510 -0.151159 0.000000 -1.000000 0.000000 0.145416 0.934263
0.716129 -0.432510 -0.164015 0.000000 -1.000000 0.000000 0.143097 0.935907
0.726152 -0.432510 -0.160166 0.000000 -1.000000 0.000000 0.144016 0.934698
0.724683 -0.184511 -0.132092 0.000000 1.000000 0.000000 0.143097 0.935907
0.731439 -0.184511 -0.140438 0.000000 1.000000 0.000000 0.143967 0.934698
0.732004 -0.184511 -0.151159 0.000000 1.000000 0.000000 0.145466 0.934263
0.732004 -0.184511 -0.151159 0.000000 1.000000 0.000000 0.145466 0.934263
0.726152 -0.184511 -0.160166 0.000000 1.000000 0.000000 0.146868 0.934698
0.716129 -0.184511 -0.164015 0.000000 0.999969 0.000000 0.147785 0.935907
0.716129 -0.184511 -0.164015 0.000000 1.000000 0.000000 0.147785 0.935907
0.705757 -0.184511 -0.161236 0.000000 1.000000 0.000000 0.147785 0.937453
0.699000 -0.184511 -0.152890 0.000000 1.000000 0.000000 0.146868 0.938661
0.732004 -0.184511 -0.151159 0.000000 1.000000 0.000000 0.145466 0.934263
0.716129 -0.184511 -0.164015 0.000000 1.000000 0.000000 0.147785 0.935907
0.699000 -0.184511 -0.152890 0.000000 1.000000 0.000000 0.146868 0.938661
0.699000 -0.184511 -0.152890 0.000000 1.000000 0.000000 0.146868 0.938661
0.698435 -0.184511 -0.142165 0.000000 0.999969 0.000000 0.145466 0.939096
0.704286 -0.184511 -0.133162 0.000000 1.000000 0.000000 0.143967 0.938661
0.732004 -0.184511 -0.151159 0.000000 1.000000 0.000000 0.145466 0.934263
0.699000 -0.184511 -0.152890 0.000000 1.000000 0.000000 0.146868 0.938661
0.704286 -0.184511 -0.133162 0.000000 1.000000 0.000000 0.143967 0.938661
0.724683 -0.184511 -0.132092 0.000000 1.000000 0.000000 0.143097 0.935907
0.732004 -0.184511 -0.151159 0.000000 1.000000 0.000000 0.145466 0.934263
0.704286 -0.184511 -0.133162 0.000000 1.000000 0.000000 0.143967 0.938661
0.724683 -0.184511 -0.132092 0.000000 1.000000 0.000000 0.143097 0.935907
0.704286 -0.184511 -0.133162 0.000000 1.000000 0.000000 0.143967 0.938661
0.714311 -0.184511 -0.129313 0.000000 0.999969 0.000000 0.143097 0.937453
0.916137 -0.481103 -0.193267 0.259255 -0.002716 0.965789 0.116864 0.909286
0.916510 -0.143569 -0.192416 0.259255 -0.002716 0.965789 0.161625 0.909286
0.728193 -0.201047 -0.142024 0.259255 -0.002716 0.965789 0.154221 0.932078
0.727947 -0.423464 -0.142584 0.259255 -0.002716 0.965789 0.123530 0.932160
0.959498 -0.481122 -0.204908 0.259255 -0.002716 0.965789 0.116864 0.904020
0.959870 -0.143587 -0.204057 0.259255 -0.002716 0.965789 0.161625 0.904020
1.392798 -0.357680 -0.320883 0.259255 -0.002716 0.965789 0.133321 0.851690
1.392898 -0.267401 -0.320656 0.259255 -0.002686 0.965789 0.145169 0.851607
0.912677 -0.481067 -0.206153 -0.259255 0.002716 -0.965789 0.116864 0.909286
0.724488 -0.423427 -0.155470 -0.259255 0.002716 -0.965789 0.123530 0.932160
0.724734 -0.201011 -0.154909 -0.259255 0.002716 -0.965789 0.154221 0.932078
0.913051 -0.143532 -0.205302 -0.259255 0.002716 -0.965789 0.161625 0.909286
0.956038 -0.481086 -0.217794 -0.259255 0.002716 -0.965789 0.116864 0.904020
0.956411 -0.143551 -0.216942 -0.259255 0.002716 -0.965789 0.161625 0.904020
1.389339 -0.357643 -0.333768 -0.259255 0.002716 -0.965789 0.133321 0.851690
1.389440 -0.267365 -0.333541 -0.259255 0.002686 -0.965789 0.145169 0.851607
0.913051 -0.143532 -0.205302 -0.272469 0.959166 0.075777 0.165164 0.873082
0.724734 -0.201011 -0.154909 -0.272469 0.959166 0.075777 0.165164 0.851443
0.728193 -0.201047 -0.142024 -0.272469 0.959166 0.075777 0.167138 0.851443
0.728193 -0.201047 -0.142024 -0.272439 0.959166 0.075838 0.167138 0.851443
0.916510 -0.143569 -0.192416 -0.272439 0.959166 0.075838 0.167221 0.873082
0.913051 -0.143532 -0.205302 -0.272439 0.959166 0.075838 0.165164 0.873082
0.724488 -0.423427 -0.155470 -0.274545 -0.958922 0.071017 0.162860 0.932490
0.912677 -0.481067 -0.206153 -0.274545 -0.958922 0.071017 0.162942 0.908875
0.916137 -0.481103 -0.193267 -0.274545 -0.958922 0.071017 0.164999 0.908875
0.916137 -0.481103 -0.193267 -0.274575 -0.958922 0.070956 0.164999 0.908875
0.727947 -0.423464 -0.142584 -0.274575 -0.958922 0.070956 0.164917 0.932490
0.724488 -0.423427 -0.155470 -0.274575 -0.958922 0.070956 0.162860 0.932490
0.956411 -0.143551 -0.216942 0.001099 0.999969 0.002503 0.165164 0.878266
0.913051 -0.143532 -0.205302 0.001099 0.999969 0.002503 0.165164 0.873082
0.916510 -0.143569 -0.192416 0.001099 0.999969 0.002503 0.167221 0.873082
0.916510 -0.143569 -0.192416 0.001068 0.999969 0.002503 0.167221 0.873082
0.959870 -0.143587 -0.204057 0.001068 0.999969 0.002503 0.167221 0.878266
0.956411 -0.143551 -0.216942 0.001068 0.999969 0.002503 0.165164 0.878266
0.912677 -0.481067 -0.206153 -0.001099 -0.999969 -0.002472 0.162942 0.908875
0.956038 -0.481086 -0.217794 -0.001099 -0.999969 -0.002472 0.162942 0.903691
0.959498 -0.481122 -0.204908 -0.001099 -0.999969 -0.002472 0.164999 0.903691
0.959498 -0.481122 -0.204908 -0.001099 -0.999969 -0.002472 0.164999 0.903691
0.916137 -0.481103 -0.193267 -0.001099 -0.999969 -0.002472 0.164999 0.908875
0.912677 -0.481067 -0.206153 -0.001099 -0.999969 -0.002472 0.162942 0.908875
1.389440 -0.267365 -0.333541 0.257698 0.963927 -0.066469 0.165328 0.932490
0.956411 -0.143551 -0.216942 0.257698 0.963927 -0.066469 0.165164 0.878266
0.959870 -0.143587 -0.204057 0.257698 0.963927 -0.066469 0.167221 0.878266
0.959870 -0.143587 -0.204057 0.257698 0.963927 -0.066439 0.167221 0.878266
1.392898 -0.267401 -0.320656 0.257698 0.963927 -0.066439 0.167385 0.932490
1.389440 -0.267365 -0.333541 0.257698 0.963927 -0.066439 0.165328 0.932490
1.389339 -0.357643 -0.333768 0.965789 -0.000397 -0.259224 0.160391 0.932572
1.389440 -0.267365 -0.333541 0.965789 -0.000397 -0.259224 0.160391 0.918831
1.392898 -0.267401 -0.320656 0.965789 -0.000397 -0.259224 0.162366 0.918831
1.392898 -0.267401 -0.320656 0.965789 -0.000397 -0.259255 0.162366 0.918831
1.392798 -0.357680 -0.320883 0.965789 -0.000397 -0.259255 0.162366 0.932572
1.389339 -0.357643 -0.333768 0.965789 -0.000397 -0.259255 0.160391 0.932572
0.956038 -0.481086 -0.217794 0.255562 -0.964141 -0.071322 0.162942 0.903691
1.389339 -0.357643 -0.333768 0.255562 -0.964141 -0.071322 0.163106 0.853829
1.392798 -0.357680 -0.320883 0.255562 -0.964141 -0.071322 0.165164 0.853829
1.392798 -0.357680 -0.320883 0.255562 -0.964141 -0.071291 0.165164 0.853829
0.959498 -0.481122 -0.204908 0.255562 -0.964141 -0.071291 0.164999 0.903691
0.956038 -0.481086 -0.217794 0.255562 -0.964141 -0.071291 0.162942 0.903691
3 0 1 2
3 2 3 0
3 4 0 3
3 3 5 4
3 6 4 5
3 5 7 6
3 8 9 10
3 10 11 8
3 12 13 14
3 14 15 12
3 16 17 18
3 18 19 16
3 20 16 19
3 19 21 20
3 22 20 21
3 21 23 22
3 24 25 26
3 26 27 24
3 28 29 30
3 30 31 28
3 32 33 34
3 35 36 32
3 37 32 36
3 36 38 37
3 39 40 41
3 41 42 43
3 43 44 45
3 41 43 45
3 45 46 47
3 47 48 49
3 45 47 49
3 41 45 49
3 39 41 49
3 39 49 50
3 51 52 53
3 54 55 56
3 57 58 59
3 60 61 62
3 63 64 65
3 66 67 68
3 69 70 71
3 72 73 74
3 75 76 77
3 78 79 80
3 81 82 83
3 84 85 86
3 87 88 89
3 90 91 92
3 93 94 95
3 96 97 98
3 99 100 101
3 102 103 104
3 105 106 107
3 108 109 110
3 111 112 113
3 114 115 116
3 117 118 119
3 120 121 122
3 123 124 125
3 125 126 123
3 127 128 129
3 129 130 127
3 131 132 133
3 133 134 131
3 135 136 137
3 137 138 135
3 139 140 141
3 141 142 139
3 143 144 145
3 145 146 143
3 147 148 149
3 149 150 147
3 151 152 153
3 154 155 151
3 156 157 158
3 158 159 156
3 160 161 162
3 162 163 160
3 164 165 166
3 167 168 169
3 170 171 172
3 173 174 175
3 176 177 178
3 179 180 181
3 182 183 184
3 185 186 187
3 188 189 190
3 191 192 193
3 194 195 196
3 197 198 199
3 200 201 202
3 203 204 205
3 206 207 208
3 209 210 211
3 212 213 214
3 214 215 212
3 216 217 213
3 213 212 216
3 218 219 217
3 217 216 218
3 220 221 222
3 222 223 220
3 224 220 223
3 223 225 224
3 226 224 225
3 225 227 226
3 228 229 230
3 231 232 233
3 234 235 236
3 237 238 239
3 240 241 242
3 243 244 245
3 246 247 248
3 249 250 251
3 252 253 254
3 255 256 257
3 258 259 260
3 261 262 263
3 264 265 266
3 267 268 269
