ply
format ascii 1.0
comment TextureFile moving_parts.png
element vertex 270
property float x
property float y
property float z
property float nx
property float ny
property float nz
property float s
property float t
element face 120
property list uchar uint vertex_indices
end_header
0.793434 0.811518 -0.026640 0.000000 0.865993 0.499985 0.275875 0.976703
0.793434 0.818638 -0.053210 0.000000 0.965911 0.258827 0.270586 0.976703
0.704052 0.818638 -0.053210 0.000000 0.965911 0.258827 0.270586 0.957156
0.704052 0.811518 -0.026640 0.000000 0.865993 0.499985 0.275875 0.957156
0.793434 0.792068 -0.007190 0.000000 0.499985 0.865993 0.281165 0.976703
0.704052 0.792068 -0.007190 0.000000 0.499985 0.865993 0.281165 0.957156
0.793434 0.765500 -0.000070 0.000000 0.258827 0.965911 0.286456 0.976703
0.704052 0.765500 -0.000070 0.000000 0.258827 0.965911 0.286456 0.957156
0.793434 0.738927 -0.007190 0.000000 -0.258797 0.965911 0.291629 0.976703
0.793434 0.765500 -0.000070 0.000000 -0.258797 0.965911 0.286456 0.976703
0.704052 0.765500 -0.000070 0.000000 -0.258797 0.965911 0.286456 0.957156
0.704052 0.738927 -0.007190 0.000000 -0.258797 0.965911 0.291629 0.957156
0.793434 0.719478 -0.026640 0.000000 -0.707083 0.707083 0.296918 0.976703
0.793434 0.738927 -0.007190 0.000000 -0.707083 0.707083 0.291629 0.976703
0.704052 0.738927 -0.007190 0.000000 -0.707083 0.707083 0.291629 0.957156
0.704052 0.719478 -0.026640 0.000000 -0.707083 0.707083 0.296918 0.957156
0.793434 0.712359 -0.053210 0.000000 -1.000000 0.000000 0.302207 0.976703
0.793434 0.719478 -0.026640 0.000000 -0.965911 0.258766 0.296918 0.976703
0.704052 0.719478 -0.026640 0.000000 -0.965911 0.258766 0.296918 0.957156
0.704052 0.712359 -0.053210 0.000000 -1.000000 0.000000 0.302207 0.957156
0.793434 0.719478 -0.079779 0.000000 -0.866024 -0.499954 0.307496 0.976703
0.704052 0.719478 -0.079779 0.000000 -0.866024 -0.499954 0.307496 0.957156
0.793434 0.738927 -0.099231 0.000000 -0.707114 -0.707083 0.312787 0.976703
0.704052 0.738927 -0.099231 0.000000 -0.707114 -0.707053 0.312787 0.957156
0.793434 0.765500 -0.106350 0.000000 -0.258797 -0.965911 0.318075 0.976703
0.793434 0.738927 -0.099231 0.000000 -0.258797 -0.965911 0.312787 0.976703
0.704052 0.738927 -0.099231 0.000000 -0.258797 -0.965911 0.312787 0.957156
0.704052 0.765500 -0.106350 0.000000 -0.258797 -0.965911 0.318075 0.957156
0.793434 0.792068 -0.099231 0.000000 0.258827 -0.965911 0.323364 0.976703
0.793434 0.765500 -0.106350 0.000000 0.258827 -0.965911 0.318075 0.976703
0.704052 0.765500 -0.106350 0.000000 0.258827 -0.965911 0.318075 0.957156
0.704052 0.792068 -0.099231 0.000000 0.258827 -0.965911 0.323364 0.957156
0.793434 0.811518 -0.079779 0.000000 0.866024 -0.499985 0.265298 0.976703
0.793434 0.792068 -0.099231 0.000000 0.707114 -0.707053 0.260007 0.976703
0.704052 0.792068 -0.099231 0.000000 0.707114 -0.707053 0.260007 0.957156
0.704052 0.792068 -0.099231 0.000000 0.707114 -0.707053 0.260007 0.957156
0.704052 0.811518 -0.079779 0.000000 0.866024 -0.499985 0.265298 0.957156
0.793434 0.818638 -0.053210 0.000000 0.965911 -0.258827 0.270586 0.976703
0.704052 0.818638 -0.053210 0.000000 0.965911 -0.258827 0.270586 0.957156
0.801624 0.805708 -0.076425 1.000000 0.000000 0.000000 0.240581 0.971963
0.801624 0.811927 -0.053210 1.000000 0.000000 0.000000 0.239199 0.966788
0.801624 0.805708 -0.029995 1.000000 0.000000 0.000000 0.240581 0.961843
0.801624 0.788713 -0.013001 1.000000 0.000000 0.000000 0.244375 0.958162
0.801624 0.765500 -0.006781 1.000000 0.000000 0.000000 0.249434 0.956782
0.801624 0.742284 -0.013001 1.000000 0.000000 0.000000 0.254490 0.958162
0.801624 0.725291 -0.029995 1.000000 0.000000 0.000000 0.258172 0.961958
0.801624 0.719070 -0.053210 1.000000 0.000000 0.000000 0.259438 0.967015
0.801624 0.725291 -0.076424 1.000000 0.000000 0.000000 0.258058 0.972076
0.801624 0.742284 -0.093418 1.000000 0.000000 0.000000 0.254378 0.975757
0.801624 0.765500 -0.099639 1.000000 0.000000 0.000000 0.249318 0.977021
0.801624 0.788713 -0.093418 0.999969 0.000000 0.000000 0.244257 0.975642
0.801624 0.805708 -0.029995 0.620594 0.757408 0.202887 0.236837 0.966978
0.801624 0.811927 -0.053210 0.620594 0.757408 0.202887 0.231779 0.966978
0.793434 0.818638 -0.053210 0.620594 0.757408 0.202887 0.231779 0.965140
0.793434 0.818638 -0.053210 0.620472 0.757469 0.202979 0.231779 0.965140
0.793434 0.811518 -0.026640 0.620472 0.757469 0.202979 0.237527 0.965140
0.801624 0.805708 -0.029995 0.620472 0.757469 0.202979 0.236837 0.966978
0.801624 0.788713 -0.013001 0.620502 0.554460 0.554521 0.237413 0.964908
0.801624 0.805708 -0.029995 0.620502 0.554460 0.554521 0.232124 0.964795
0.793434 0.811518 -0.026640 0.620502 0.554460 0.554521 0.231779 0.962494
0.793434 0.811518 -0.026640 0.620563 0.554460 0.554460 0.231779 0.962494
0.793434 0.792068 -0.007190 0.620563 0.554460 0.554460 0.237759 0.962610
0.801624 0.788713 -0.013001 0.620563 0.554460 0.554460 0.237413 0.964908
0.801624 0.765500 -0.006781 0.620563 0.202948 0.757408 0.231663 0.962264
0.801624 0.788713 -0.013001 0.620563 0.202948 0.757408 0.226605 0.962264
0.793434 0.792068 -0.007190 0.620563 0.202948 0.757408 0.225915 0.960423
0.793434 0.792068 -0.007190 0.620594 0.202948 0.757378 0.225915 0.960423
0.793434 0.765500 -0.000070 0.620594 0.202948 0.757378 0.231663 0.960423
0.801624 0.765500 -0.006781 0.620594 0.202948 0.757378 0.231663 0.962264
0.801624 0.742284 -0.013001 0.620594 -0.202918 0.757408 0.236721 0.962264
0.801624 0.765500 -0.006781 0.620594 -0.202918 0.757408 0.231663 0.962264
0.793434 0.765500 -0.000070 0.620594 -0.202918 0.757408 0.231663 0.960423
0.793434 0.765500 -0.000070 0.620563 -0.202918 0.757408 0.231663 0.960423
0.793434 0.738927 -0.007190 0.620563 -0.202918 0.757408 0.237527 0.960423
0.801624 0.742284 -0.013001 0.620563 -0.202918 0.757408 0.236721 0.962264
0.801624 0.725291 -0.029995 0.620594 -0.554460 0.554430 0.231435 0.964908
0.801624 0.742284 -0.013001 0.620594 -0.554460 0.554430 0.226144 0.964795
0.793434 0.738927 -0.007190 0.620594 -0.554460 0.554430 0.225800 0.962494
0.793434 0.738927 -0.007190 0.620655 -0.554430 0.554399 0.225800 0.962494
0.793434 0.719478 -0.026640 0.620655 -0.554430 0.554399 0.231779 0.962610
0.801624 0.725291 -0.029995 0.620655 -0.554430 0.554399 0.231435 0.964908
0.801624 0.719070 -0.053210 0.620685 -0.757317 0.202948 0.231779 0.969163
0.801624 0.725291 -0.029995 0.620685 -0.757317 0.202948 0.226719 0.969163
0.793434 0.719478 -0.026640 0.620685 -0.757317 0.202948 0.226028 0.967323
0.793434 0.719478 -0.026640 0.620563 -0.757408 0.202918 0.226028 0.967323
0.793434 0.712359 -0.053210 0.620563 -0.757408 0.202918 0.231779 0.967323
0.801624 0.719070 -0.053210 0.620563 -0.757408 0.202918 0.231779 0.969163
0.801624 0.725291 -0.076424 0.620563 -0.757408 -0.202979 0.236837 0.969163
0.801624 0.719070 -0.053210 0.620563 -0.757408 -0.202979 0.231779 0.969163
0.793434 0.712359 -0.053210 0.620563 -0.757408 -0.202979 0.231779 0.967323
0.793434 0.712359 -0.053210 0.620655 -0.757347 -0.202887 0.231779 0.967323
0.793434 0.719478 -0.079779 0.620655 -0.757347 -0.202887 0.237643 0.967323
0.801624 0.725291 -0.076424 0.620655 -0.757347 -0.202887 0.236837 0.969163
0.801624 0.742284 -0.093418 0.620655 -0.554430 -0.554399 0.237759 0.973763
0.801624 0.725291 -0.076424 0.620655 -0.554430 -0.554399 0.232467 0.973648
0.793434 0.719478 -0.079779 0.620655 -0.554430 -0.554399 0.232124 0.971347
0.793434 0.719478 -0.079779 0.620655 -0.554430 -0.554399 0.232124 0.971347
0.793434 0.738927 -0.099231 0.620655 -0.554430 -0.554399 0.238102 0.971463
0.801624 0.742284 -0.093418 0.620655 -0.554430 -0.554399 0.237759 0.973763
0.801624 0.765500 -0.099639 0.620624 -0.202948 -0.757347 0.231892 0.971118
0.801624 0.742284 -0.093418 0.620624 -0.202948 -0.757347 0.226834 0.971118
0.793434 0.738927 -0.099231 0.620624 -0.202948 -0.757347 0.226144 0.969394
0.793434 0.738927 -0.099231 0.620594 -0.202918 -0.757408 0.226144 0.969394
0.793434 0.765500 -0.106350 0.620594 -0.202918 -0.757408 0.231892 0.969394
0.801624 0.765500 -0.099639 0.620594 -0.202918 -0.757408 0.231892 0.971118
0.801624 0.788713 -0.093418 0.620563 0.202979 -0.757378 0.236953 0.971118
0.801624 0.765500 -0.099639 0.620563 0.202979 -0.757378 0.231892 0.971118
0.793434 0.765500 -0.106350 0.620563 0.202979 -0.757378 0.231892 0.969394
0.793434 0.765500 -0.106350 0.620624 0.202948 -0.757378 0.231892 0.969394
0.793434 0.792068 -0.099231 0.620624 0.202948 -0.757378 0.237759 0.969394
0.801624 0.788713 -0.093418 0.620624 0.202948 -0.757378 0.236953 0.971118
0.801624 0.805708 -0.076425 0.620594 0.554399 -0.554460 0.231549 0.973648
0.801624 0.788713 -0.093418 0.620594 0.554399 -0.554460 0.226259 0.973648
0.793434 0.792068 -0.099231 0.620594 0.554399 -0.554460 0.225915 0.971347
0.793434 0.792068 -0.099231 0.620472 0.554521 -0.554491 0.225915 0.971347
0.793434 0.811518 -0.079779 0.620472 0.554521 -0.554491 0.231892 0.971463
0.801624 0.805708 -0.076425 0.620472 0.554521 -0.554491 0.231549 0.973648
0.801624 0.811927 -0.053210 0.620472 0.757500 -0.202918 0.231779 0.966978
0.801624 0.805708 -0.076425 0.620472 0.757500 -0.202918 0.226719 0.966978
0.793434 0.811518 -0.079779 0.620472 0.757500 -0.202918 0.225915 0.965140
0.793434 0.811518 -0.079779 0.620563 0.757408 -0.202948 0.225915 0.965140
0.793434 0.818638 -0.053210 0.620563 0.757408 -0.202948 0.231779 0.965140
0.801624 0.811927 -0.053210 0.620563 0.757408 -0.202948 0.231779 0.966978
0.818687 0.889498 -0.057706 0.838527 0.000000 -0.544847 0.172158 0.961096
0.818687 0.641499 -0.057706 0.838527 0.000000 -0.544847 0.220970 0.961096
0.812835 0.641499 -0.066712 0.838527 0.000000 -0.544847 0.220970 0.962740
0.812835 0.889498 -0.066712 0.838527 0.000000 -0.544847 0.172158 0.962740
0.802812 0.641499 -0.070561 0.358470 0.000000 -0.933531 0.220970 0.964383
0.802812 0.889498 -0.070561 0.358470 0.000000 -0.933531 0.172158 0.964383
0.812835 0.889498 -0.066712 0.358470 0.000000 -0.933531 0.172158 0.962740
0.812835 0.641499 -0.066712 0.358470 0.000000 -0.933531 0.220970 0.962740
0.802812 0.889498 -0.070561 -0.258797 0.000000 -0.965911 0.172158 0.964383
0.802812 0.641499 -0.070561 -0.258797 0.000000 -0.965911 0.220970 0.964383
0.792440 0.641499 -0.067782 -0.258797 0.000000 -0.965911 0.220970 0.965977
0.792440 0.889498 -0.067782 -0.258797 0.000000 -0.965911 0.172158 0.965977
0.792440 0.889498 -0.067782 -0.777184 0.000000 -0.629261 0.172158 0.965977
0.792440 0.641499 -0.067782 -0.777184 0.000000 -0.629261 0.220970 0.965977
0.785683 0.641499 -0.059437 -0.777184 0.000000 -0.629261 0.220970 0.967572
0.785683 0.889498 -0.059437 -0.777184 0.000000 -0.629261 0.172158 0.967572
0.785683 0.889498 -0.059437 -0.998596 0.000000 -0.052583 0.172158 0.967572
0.785683 0.641499 -0.059437 -0.998596 0.000000 -0.052583 0.220970 0.967572
0.785118 0.641499 -0.048711 -0.998596 0.000000 -0.052583 0.220970 0.969216
0.785118 0.889498 -0.048711 -0.998596 0.000000 -0.052583 0.172158 0.969216
0.790969 0.641499 -0.039708 -0.838435 0.000000 0.544939 0.220970 0.970762
0.790969 0.889498 -0.039708 -0.838435 0.000000 0.544939 0.172158 0.970762
0.785118 0.889498 -0.048711 -0.838435 0.000000 0.544939 0.172158 0.969216
0.785118 0.641499 -0.048711 -0.838435 0.000000 0.544939 0.220970 0.969216
0.800994 0.889498 -0.035859 -0.358440 0.000000 0.933531 0.172158 0.972357
0.790969 0.889498 -0.039708 -0.358440 0.000000 0.933531 0.172158 0.970762
0.790969 0.641499 -0.039708 -0.358440 0.000000 0.933531 0.220970 0.970762
0.800994 0.641499 -0.035859 -0.358440 0.000000 0.933531 0.220970 0.972357
0.811365 0.641499 -0.038638 0.258797 0.000000 0.965911 0.220970 0.957955
0.811365 0.889498 -0.038638 0.258797 0.000000 0.965911 0.172158 0.957955
0.800994 0.889498 -0.035859 0.258797 0.000000 0.965911 0.172158 0.956408
0.800994 0.889498 -0.035859 0.258797 0.000000 0.965911 0.172158 0.956408
0.800994 0.641499 -0.035859 0.258797 0.000000 0.965911 0.220970 0.956408
0.818121 0.889498 -0.046984 0.777215 0.000000 0.629170 0.172158 0.959549
0.811365 0.889498 -0.038638 0.777215 0.000000 0.629170 0.172158 0.957955
0.811365 0.641499 -0.038638 0.777215 0.000000 0.629170 0.220970 0.957955
0.818121 0.641499 -0.046984 0.777215 0.000000 0.629170 0.220970 0.959549
0.818687 0.641499 -0.057706 0.998596 0.000000 0.052675 0.220970 0.961096
0.818687 0.889498 -0.057706 0.998596 0.000000 0.052675 0.172158 0.961096
0.818121 0.889498 -0.046984 0.998596 0.000000 0.052675 0.172158 0.959549
0.818121 0.641499 -0.046984 0.998596 0.000000 0.052675 0.220970 0.959549
0.818687 0.641499 -0.057706 0.000000 -1.000000 0.000000 0.140152 0.934318
0.818121 0.641499 -0.046984 0.000000 -1.000000 0.000000 0.141604 0.934753
0.811365 0.641499 -0.038638 0.000000 -1.000000 0.000000 0.142474 0.935962
0.811365 0.641499 -0.038638 0.000000 -1.000000 0.000000 0.142474 0.935962
0.800994 0.641499 -0.035859 0.000000 -1.000000 0.000000 0.142474 0.937508
0.790969 0.641499 -0.039708 0.000000 -1.000000 0.000000 0.141604 0.938716
0.790969 0.641499 -0.039708 0.000000 -1.000000 0.000000 0.141604 0.938716
0.785118 0.641499 -0.048711 0.000000 -1.000000 0.000000 0.140152 0.939151
0.785683 0.641499 -0.059437 0.000000 -1.000000 0.000000 0.138753 0.938716
0.811365 0.641499 -0.038638 0.000000 -0.999969 0.000000 0.142474 0.935962
0.790969 0.641499 -0.039708 0.000000 -0.999969 0.000000 0.141604 0.938716
0.785683 0.641499 -0.059437 0.000000 -1.000000 0.000000 0.138753 0.938716
0.785683 0.641499 -0.059437 0.000000 -0.999969 0.000000 0.138753 0.938716
0.792440 0.641499 -0.067782 0.000000 -1.000000 0.000000 0.137833 0.937508
0.802812 0.641499 -0.070561 0.000000 -1.000000 0.000000 0.137833 0.935962
0.811365 0.641499 -0.038638 0.000000 -1.000000 0.000000 0.142474 0.935962
0.785683 0.641499 -0.059437 0.000000 -1.000000 0.000000 0.138753 0.938716
0.802812 0.641499 -0.070561 0.000000 -1.000000 0.000000 0.137833 0.935962
0.818687 0.641499 -0.057706 0.000000 -1.000000 0.000000 0.140152 0.934318
0.811365 0.641499 -0.038638 0.000000 -1.000000 0.000000 0.142474 0.935962
0.802812 0.641499 -0.070561 0.000000 -1.000000 0.000000 0.137833 0.935962
0.818687 0.641499 -0.057706 0.000000 -1.000000 0.000000 0.140152 0.934318
0.802812 0.641499 -0.070561 0.000000 -1.000000 0.000000 0.137833 0.935962
0.812835 0.641499 -0.066712 0.000000 -1.000000 0.000000 0.138753 0.934753
0.811365 0.889498 -0.038638 0.000000 1.000000 0.000000 0.137833 0.935962
0.818121 0.889498 -0.046984 0.000000 1.000000 0.000000 0.138704 0.934753
0.818687 0.889498 -0.057706 0.000000 1.000000 0.000000 0.140202 0.934318
0.818687 0.889498 -0.057706 0.000000 1.000000 0.000000 0.140202 0.934318
0.812835 0.889498 -0.066712 0.000000 1.000000 0.000000 0.141604 0.934753
0.802812 0.889498 -0.070561 0.000000 1.000000 0.000000 0.142521 0.935962
0.802812 0.889498 -0.070561 0.000000 1.000000 0.000000 0.142521 0.935962
0.792440 0.889498 -0.067782 0.000000 0.999969 0.000000 0.142521 0.937508
0.785683 0.889498 -0.059437 0.000000 1.000000 0.000000 0.141604 0.938716
0.818687 0.889498 -0.057706 0.000000 1.000000 0.000000 0.140202 0.934318
0.802812 0.889498 -0.070561 0.000000 1.000000 0.000000 0.142521 0.935962
0.785683 0.889498 -0.059437 0.000000 1.000000 0.000000 0.141604 0.938716
0.785683 0.889498 -0.059437 0.000000 1.000000 0.000000 0.141604 0.938716
0.785118 0.889498 -0.048711 0.000000 1.000000 0.000000 0.140202 0.939151
0.790969 0.889498 -0.039708 0.000000 1.000000 0.000000 0.138704 0.938716
0.818687 0.889498 -0.057706 0.000000 1.000000 0.000000 0.140202 0.934318
0.785683 0.889498 -0.059437 0.000000 1.000000 0.000000 0.141604 0.938716
0.790969 0.889498 -0.039708 0.000000 1.000000 0.000000 0.138704 0.938716
0.811365 0.889498 -0.038638 0.000000 0.999969 0.000000 0.137833 0.935962
0.818687 0.889498 -0.057706 0.000000 1.000000 0.000000 0.140202 0.934318
0.790969 0.889498 -0.039708 0.000000 1.000000 0.000000 0.138704 0.938716
0.811365 0.889498 -0.038638 0.000000 1.000000 0.000000 0.137833 0.935962
0.790969 0.889498 -0.039708 0.000000 1.000000 0.000000 0.138704 0.938716
0.800994 0.889498 -0.035859 0.000000 1.000000 0.000000 0.137833 0.937508
1.002820 0.592906 -0.099814 0.259255 -0.002716 0.965789 0.169055 0.908968
1.003192 0.930440 -0.098962 0.259255 -0.002716 0.965789 0.213816 0.908968
0.814876 0.872963 -0.048570 0.259255 -0.002716 0.965789 0.206412 0.931760
0.814629 0.650545 -0.049130 0.259255 -0.002716 0.965789 0.175721 0.931842
1.046181 0.592888 -0.111454 0.259255 -0.002716 0.965789 0.169055 0.903702
1.046553 0.930422 -0.110603 0.259255 -0.002716 0.965789 0.213816 0.903702
1.479481 0.716330 -0.227429 0.259255 -0.002716 0.965789 0.185512 0.851371
1.479581 0.806608 -0.227202 0.259255 -0.002686 0.965789 0.197360 0.851289
0.999360 0.592942 -0.112700 -0.259255 0.002716 -0.965789 0.169055 0.908968
0.811171 0.650582 -0.062016 -0.259255 0.002716 -0.965789 0.175721 0.931842
0.811417 0.872998 -0.061456 -0.259255 0.002716 -0.965789 0.206412 0.931760
0.999734 0.930477 -0.111848 -0.259255 0.002716 -0.965789 0.213816 0.908968
1.042721 0.592924 -0.124340 -0.259255 0.002716 -0.965789 0.169055 0.903702
1.043094 0.930458 -0.123489 -0.259255 0.002716 -0.965789 0.213816 0.903702
1.476022 0.716366 -0.240314 -0.259255 0.002716 -0.965789 0.185512 0.851371
1.476122 0.806644 -0.240088 -0.259255 0.002686 -0.965789 0.197360 0.851289
0.999734 0.930477 -0.111848 -0.272469 0.959166 0.075808 0.217355 0.872764
0.811417 0.872998 -0.061456 -0.272469 0.959166 0.075808 0.217355 0.851124
0.814876 0.872963 -0.048570 -0.272469 0.959166 0.075808 0.219330 0.851124
0.814876 0.872963 -0.048570 -0.272439 0.959166 0.075838 0.219330 0.851124
1.003192 0.930440 -0.098962 -0.272439 0.959166 0.075838 0.219412 0.872764
0.999734 0.930477 -0.111848 -0.272439 0.959166 0.075838 0.217355 0.872764
0.811171 0.650582 -0.062016 -0.274575 -0.958922 0.071017 0.215051 0.932171
0.999360 0.592942 -0.112700 -0.274575 -0.958922 0.071017 0.215133 0.908557
1.002820 0.592906 -0.099814 -0.274575 -0.958922 0.071017 0.217190 0.908557
1.002820 0.592906 -0.099814 -0.274575 -0.958922 0.070956 0.217190 0.908557
0.814629 0.650545 -0.049130 -0.274575 -0.958922 0.070956 0.217108 0.932171
0.811171 0.650582 -0.062016 -0.274575 -0.958922 0.070956 0.215051 0.932171
1.043094 0.930458 -0.123489 0.001099 0.999969 0.002533 0.217355 0.877948
0.999734 0.930477 -0.111848 0.001099 0.999969 0.002533 0.217355 0.872764
1.003192 0.930440 -0.098962 0.001099 0.999969 0.002533 0.219412 0.872764
1.003192 0.930440 -0.098962 0.001068 0.999969 0.002472 0.219412 0.872764
1.046553 0.930422 -0.110603 0.001068 0.999969 0.002472 0.219412 0.877948
1.043094 0.930458 -0.123489 0.001068 0.999969 0.002472 0.217355 0.877948
0.999360 0.592942 -0.112700 -0.001099 -0.999969 -0.002503 0.215133 0.908557
1.042721 0.592924 -0.124340 -0.001099 -0.999969 -0.002503 0.215133 0.903373
1.046181 0.592888 -0.111454 -0.001099 -0.999969 -0.002503 0.217190 0.903373
1.046181 0.592888 -0.111454 -0.001099 -0.999969 -0.002472 0.217190 0.903373
1.002820 0.592906 -0.099814 -0.001099 -0.999969 -0.002472 0.217190 0.908557
0.999360 0.592942 -0.112700 -0.001099 -0.999969 -0.002472 0.215133 0.908557
1.476122 0.806644 -0.240088 0.257698 0.963927 -0.066469 0.217519 0.932171
1.043094 0.930458 -0.123489 0.257698 0.963927 -0.066469 0.217355 0.877948
1.046553 0.930422 -0.110603 0.257698 0.963927 -0.066469 0.219412 0.877948
1.046553 0.930422 -0.110603 0.257698 0.963927 -0.066439 0.219412 0.877948
1.479581 0.806608 -0.227202 0.257698 0.963927 -0.066439 0.219577 0.932171
1.476122 0.806644 -0.240088 0.257698 0.963927 -0.066439 0.217519 0.932171
1.476022 0.716366 -0.240314 0.965789 -0.000397 -0.259255 0.212582 0.932254
1.476122 0.806644 -0.240088 0.965789 -0.000397 -0.259255 0.212582 0.918512
1.479581 0.806608 -0.227202 0.965789 -0.000397 -0.259255 0.214557 0.918512
1.479581 0.806608 -0.227202 0.965789 -0.000397 -0.259255 0.214557 0.918512
1.479481 0.716330 -0.227429 0.965789 -0.000397 -0.259255 0.214557 0.932254
1.476022 0.716366 -0.240314 0.965789 -0.000397 -0.259255 0.212582 0.932254
1.042721 0.592924 -0.124340 0.255562 -0.964141 -0.071322 0.215133 0.903373
1.476022 0.716366 -0.240314 0.255562 -0.964141 -0.071322 0.215298 0.853510
1.479481 0.716330 -0.227429 0.255562 -0.964141 -0.071322 0.217355 0.853510
1.479481 0.716330 -0.227429 0.255562 -0.964141 -0.071322 0.217355 0.853510
1.046181 0.592888 -0.111454 0.255562 -0.964141 -0.071322 0.217190 0.903373
1.042721 0.592924 -0.124340 0.255562 -0.964141 -0.071322 0.215133 0.903373
3 0 1 2
3 2 3 0
3 4 0 3
3 3 5 4
3 6 4 5
3 5 7 6
3 8 9 10
3 10 11 8
3 12 13 14
3 14 15 12
3 16 17 18
3 18 19 16
3 20 16 19
3 19 21 20
3 22 20 21
3 21 23 22
3 24 25 26
3 26 27 24
3 28 29 30
3 30 31 28
3 32 33 34
3 35 36 32
3 37 32 36
3 36 38 37
3 39 40 41
3 41 42 43
3 43 44 45
3 41 43 45
3 45 46 47
3 47 48 49
3 45 47 49
3 41 45 49
3 39 41 49
3 39 49 50
3 51 52 53
3 54 55 56
3 57 58 59
3 60 61 62
3 63 64 65
3 66 67 68
3 69 70 71
3 72 73 74
3 75 76 77
3 78 79 80
3 81 82 83
3 84 85 86
3 87 88 89
3 90 91 92
3 93 94 95
3 96 97 98
3 99 100 101
3 102 103 104
3 105 106 107
3 108 109 110
3 111 112 113
3 114 115 116
3 117 118 119
3 120 121 122
3 123 124 125
3 125 126 123
3 127 128 129
3 129 130 127
3 131 132 133
3 133 134 131
3 135 136 137
3 137 138 135
3 139 140 141
3 141 142 139
3 143 144 145
3 145 146 143
3 147 148 149
3 149 150 147
3 151 152 153
3 154 155 151
3 156 157 158
3 158 159 156
3 160 161 162
3 162 163 160
3 164 165 166
3 167 168 169
3 170 171 172
3 173 174 175
3 176 177 178
3 179 180 181
3 182 183 184
3 185 186 187
3 188 189 190
3 191 192 193
3 194 195 196
3 197 198 199
3 200 201 202
3 203 204 205
3 206 207 208
3 209 210 211
3 212 213 214
3 214 215 212
3 216 217 213
3 213 212 216
3 218 219 217
3 217 216 218
3 220 221 222
3 222 223 220
3 224 220 223
3 223 225 224
3 226 224 225
3 225 227 226
3 228 229 230
3 231 232 233
3 234 235 236
3 237 238 239
3 240 241 242
3 243 244 245
3 246 247 248
3 249 250 251
3 252 253 254
3 255 256 257
3 258 259 260
3 261 262 263
3 264 265 266
3 267 268 269
