ply
format ascii 1.0
comment TextureFile moving_parts.png
element vertex 270
property float x
property float y
property float z
property float nx
property float ny
property float nz
property float s
property float t
element face 120
property list uchar uint vertex_indices
end_header
0.666549 1.298607 0.056141 0.000000 0.865993 0.499985 0.275875 0.997205
0.666549 1.305727 0.029572 0.000000 0.965911 0.258827 0.270586 0.997205
0.577167 1.305727 0.029572 0.000000 0.965911 0.258827 0.270586 0.977658
0.577167 1.298607 0.056141 0.000000 0.865993 0.499985 0.275875 0.977658
0.666549 1.279157 0.075592 0.000000 0.499985 0.865993 0.281165 0.997205
0.577167 1.279157 0.075592 0.000000 0.499985 0.865993 0.281165 0.977658
0.666549 1.252589 0.082711 0.000000 0.258827 0.965911 0.286456 0.997205
0.577167 1.252589 0.082711 0.000000 0.258827 0.965911 0.286456 0.977658
0.666549 1.226016 0.075592 0.000000 -0.258797 0.965911 0.291629 0.997205
0.666549 1.252589 0.082711 0.000000 -0.258797 0.965911 0.286456 0.997205
0.577167 1.252589 0.082711 0.000000 -0.258797 0.965911 0.286456 0.977658
0.577167 1.226016 0.075592 0.000000 -0.258797 0.965911 0.291629 0.977658
0.666549 1.206566 0.056141 0.000000 -0.707083 0.707083 0.296918 0.997205
0.666549 1.226016 0.075592 0.000000 -0.707083 0.707083 0.291629 0.997205
0.577167 1.226016 0.075592 0.000000 -0.707083 0.707083 0.291629 0.977658
0.577167 1.206566 0.056141 0.000000 -0.707083 0.707083 0.296918 0.977658
0.666549 1.199448 0.029572 0.000000 -1.000000 0.000000 0.302207 0.997205
0.666549 1.206566 0.056141 0.000000 -0.965911 0.258766 0.296918 0.997205
0.577167 1.206566 0.056141 0.000000 -0.965911 0.258797 0.296918 0.977658
0.577167 1.199448 0.029572 0.000000 -1.000000 0.000000 0.302207 0.977658
0.666549 1.206566 0.003002 0.000000 -0.866024 -0.499954 0.307496 0.997205
0.577167 1.206566 0.003002 0.000000 -0.866024 -0.499954 0.307496 0.977658
0.666549 1.226016 -0.016449 0.000000 -0.707114 -0.707083 0.312787 0.997205
0.577167 1.226016 -0.016449 0.000000 -0.707114 -0.707083 0.312787 0.977658
0.666549 1.252589 -0.023569 0.000000 -0.258797 -0.965911 0.318075 0.997205
0.666549 1.226016 -0.016449 0.000000 -0.258797 -0.965911 0.312787 0.997205
0.577167 1.226016 -0.016449 0.000000 -0.258797 -0.965911 0.312787 0.977658
0.577167 1.252589 -0.023569 0.000000 -0.258797 -0.965911 0.318075 0.977658
0.666549 1.279157 -0.016449 0.000000 0.258827 -0.965911 0.323364 0.997205
0.666549 1.252589 -0.023569 0.000000 0.258827 -0.965911 0.318075 0.997205
0.577167 1.252589 -0.023569 0.000000 0.258827 -0.965911 0.318075 0.977658
0.577167 1.279157 -0.016449 0.000000 0.258827 -0.965911 0.323364 0.977658
0.666549 1.298607 0.003002 0.000000 0.866024 -0.499985 0.265298 0.997205
0.666549 1.279157 -0.016449 0.000000 0.707114 -0.707053 0.260007 0.997205
0.577167 1.279157 -0.016449 0.000000 0.707114 -0.707053 0.260007 0.977658
0.577167 1.279157 -0.016449 0.000000 0.707114 -0.707053 0.260007 0.977658
0.577167 1.298607 0.003002 0.000000 0.866024 -0.499985 0.265298 0.977658
0.666549 1.305727 0.029572 0.000000 0.965911 -0.258827 0.270586 0.997205
0.577167 1.305727 0.029572 0.000000 0.965911 -0.258827 0.270586 0.977658
0.674740 1.292797 0.006356 1.000000 0.000000 0.000000 0.240581 0.992465
0.674740 1.299016 0.029572 1.000000 0.000000 0.000000 0.239199 0.987290
0.674740 1.292797 0.052786 1.000000 0.000000 0.000000 0.240581 0.982345
0.674740 1.275802 0.069780 0.999969 0.000000 0.000000 0.244375 0.978665
0.674740 1.252589 0.076000 1.000000 0.000000 0.000000 0.249434 0.977284
0.674740 1.229373 0.069780 1.000000 0.000000 0.000000 0.254490 0.978665
0.674740 1.212380 0.052786 1.000000 0.000000 0.000000 0.258172 0.982460
0.674740 1.206159 0.029572 1.000000 0.000000 0.000000 0.259438 0.987517
0.674740 1.212380 0.006357 1.000000 0.000000 0.000000 0.258058 0.992578
0.674740 1.229373 -0.010637 1.000000 0.000000 0.000000 0.254378 0.996259
0.674740 1.252589 -0.016858 1.000000 0.000000 0.000000 0.249318 0.997523
0.674740 1.275802 -0.010637 1.000000 0.000000 0.000000 0.244257 0.996144
0.674740 1.292797 0.052786 0.620594 0.757408 0.202887 0.236837 0.987480
0.674740 1.299016 0.029572 0.620594 0.757408 0.202887 0.231779 0.987480
0.666549 1.305727 0.029572 0.620594 0.757408 0.202887 0.231779 0.985642
0.666549 1.305727 0.029572 0.620472 0.757469 0.202979 0.231779 0.985642
0.666549 1.298607 0.056141 0.620472 0.757469 0.202979 0.237527 0.985642
0.674740 1.292797 0.052786 0.620472 0.757469 0.202979 0.236837 0.987480
0.674740 1.275802 0.069780 0.620502 0.554460 0.554521 0.237413 0.985410
0.674740 1.292797 0.052786 0.620502 0.554460 0.554521 0.232124 0.985297
0.666549 1.298607 0.056141 0.620502 0.554460 0.554521 0.231779 0.982996
0.666549 1.298607 0.056141 0.620563 0.554460 0.554460 0.231779 0.982996
0.666549 1.279157 0.075592 0.620563 0.554460 0.554460 0.237759 0.983112
0.674740 1.275802 0.069780 0.620563 0.554460 0.554460 0.237413 0.985410
0.674740 1.252589 0.076000 0.620533 0.202948 0.757439 0.231663 0.982766
0.674740 1.275802 0.069780 0.620533 0.202948 0.757439 0.226605 0.982766
0.666549 1.279157 0.075592 0.620533 0.202948 0.757439 0.225915 0.980925
0.666549 1.279157 0.075592 0.620563 0.202948 0.757408 0.225915 0.980925
0.666549 1.252589 0.082711 0.620563 0.202948 0.757408 0.231663 0.980925
0.674740 1.252589 0.076000 0.620563 0.202948 0.757408 0.231663 0.982766
0.674740 1.229373 0.069780 0.620594 -0.202918 0.757408 0.236721 0.982766
0.674740 1.252589 0.076000 0.620594 -0.202918 0.757408 0.231663 0.982766
0.666549 1.252589 0.082711 0.620594 -0.202918 0.757408 0.231663 0.980925
0.666549 1.252589 0.082711 0.620563 -0.202918 0.757408 0.231663 0.980925
0.666549 1.226016 0.075592 0.620563 -0.202918 0.757408 0.237527 0.980925
0.674740 1.229373 0.069780 0.620563 -0.202918 0.757408 0.236721 0.982766
0.674740 1.212380 0.052786 0.620594 -0.554460 0.554430 0.231435 0.985410
0.674740 1.229373 0.069780 0.620594 -0.554460 0.554430 0.226144 0.985297
0.666549 1.226016 0.075592 0.620594 -0.554460 0.554430 0.225800 0.982996
0.666549 1.226016 0.075592 0.620655 -0.554430 0.554399 0.225800 0.982996
0.666549 1.206566 0.056141 0.620655 -0.554430 0.554399 0.231779 0.983112
0.674740 1.212380 0.052786 0.620655 -0.554430 0.554399 0.231435 0.985410
0.674740 1.206159 0.029572 0.620685 -0.757317 0.202948 0.231779 0.989665
0.674740 1.212380 0.052786 0.620685 -0.757317 0.202948 0.226719 0.989665
0.666549 1.206566 0.056141 0.620685 -0.757317 0.202948 0.226028 0.987826
0.666549 1.206566 0.056141 0.620563 -0.757408 0.202918 0.226028 0.987826
0.666549 1.199448 0.029572 0.620563 -0.757408 0.202918 0.231779 0.987826
0.674740 1.206159 0.029572 0.620563 -0.757408 0.202918 0.231779 0.989665
0.674740 1.212380 0.006357 0.620563 -0.757408 -0.202979 0.236837 0.989665
0.674740 1.206159 0.029572 0.620563 -0.757408 -0.202979 0.231779 0.989665
0.666549 1.199448 0.029572 0.620563 -0.757408 -0.202979 0.231779 0.987826
0.666549 1.199448 0.029572 0.620655 -0.757347 -0.202887 0.231779 0.987826
0.666549 1.206566 0.003002 0.620655 -0.757347 -0.202887 0.237643 0.987826
0.674740 1.212380 0.006357 0.620655 -0.757347 -0.202887 0.236837 0.989665
0.674740 1.229373 -0.010637 0.620655 -0.554430 -0.554399 0.237759 0.994265
0.674740 1.212380 0.006357 0.620655 -0.554430 -0.554399 0.232467 0.994150
0.666549 1.206566 0.003002 0.620655 -0.554430 -0.554399 0.232124 0.991849
0.666549 1.206566 0.003002 0.620655 -0.554430 -0.554399 0.232124 0.991849
0.666549 1.226016 -0.016449 0.620655 -0.554430 -0.554399 0.238102 0.991965
0.674740 1.229373 -0.010637 0.620655 -0.554430 -0.554399 0.237759 0.994265
0.674740 1.252589 -0.016858 0.620624 -0.202948 -0.757347 0.231892 0.991620
0.674740 1.229373 -0.010637 0.620624 -0.202948 -0.757347 0.226834 0.991620
0.666549 1.226016 -0.016449 0.620624 -0.202948 -0.757347 0.226144 0.989896
0.666549 1.226016 -0.016449 0.620594 -0.202918 -0.757378 0.226144 0.989896
0.666549 1.252589 -0.023569 0.620594 -0.202918 -0.757378 0.231892 0.989896
0.674740 1.252589 -0.016858 0.620594 -0.202918 -0.757378 0.231892 0.991620
0.674740 1.275802 -0.010637 0.620594 0.202979 -0.757378 0.236953 0.991620
0.674740 1.252589 -0.016858 0.620594 0.202979 -0.757378 0.231892 0.991620
0.666549 1.252589 -0.023569 0.620594 0.202979 -0.757378 0.231892 0.989896
0.666549 1.252589 -0.023569 0.620624 0.202948 -0.757378 0.231892 0.989896
0.666549 1.279157 -0.016449 0.620624 0.202948 -0.757378 0.237759 0.989896
0.674740 1.275802 -0.010637 0.620624 0.202948 -0.757378 0.236953 0.991620
0.674740 1.292797 0.006356 0.620624 0.554399 -0.554460 0.231549 0.994150
0.674740 1.275802 -0.010637 0.620624 0.554399 -0.554460 0.226259 0.994150
0.666549 1.279157 -0.016449 0.620624 0.554399 -0.554460 0.225915 0.991849
0.666549 1.279157 -0.016449 0.620441 0.554552 -0.554491 0.225915 0.991849
0.666549 1.298607 0.003002 0.620441 0.554552 -0.554491 0.231892 0.991965
0.674740 1.292797 0.006356 0.620441 0.554552 -0.554491 0.231549 0.994150
0.674740 1.299016 0.029572 0.620472 0.757500 -0.202918 0.231779 0.987480
0.674740 1.292797 0.006356 0.620472 0.757500 -0.202918 0.226719 0.987480
0.666549 1.298607 0.003002 0.620472 0.757500 -0.202918 0.225915 0.985642
0.666549 1.298607 0.003002 0.620563 0.757408 -0.202948 0.225915 0.985642
0.666549 1.305727 0.029572 0.620563 0.757408 -0.202948 0.231779 0.985642
0.674740 1.299016 0.029572 0.620563 0.757408 -0.202948 0.231779 0.987480
0.691803 1.376587 0.025075 0.838527 0.000000 -0.544847 0.171937 0.944104
0.691803 1.128588 0.025075 0.838527 0.000000 -0.544847 0.220749 0.944104
0.685950 1.128588 0.016069 0.838527 0.000000 -0.544847 0.220749 0.945748
0.685950 1.376587 0.016069 0.838527 0.000000 -0.544847 0.171937 0.945748
0.675927 1.128588 0.012220 0.358470 0.000000 -0.933531 0.220749 0.947391
0.675927 1.376587 0.012220 0.358470 0.000000 -0.933531 0.171937 0.947391
0.685950 1.376587 0.016069 0.358470 0.000000 -0.933531 0.171937 0.945748
0.685950 1.128588 0.016069 0.358470 0.000000 -0.933531 0.220749 0.945748
0.675927 1.376587 0.012220 -0.258797 0.000000 -0.965911 0.171937 0.947391
0.675927 1.128588 0.012220 -0.258797 0.000000 -0.965911 0.220749 0.947391
0.665555 1.128588 0.014999 -0.258797 0.000000 -0.965911 0.220749 0.948985
0.665555 1.376587 0.014999 -0.258797 0.000000 -0.965911 0.171937 0.948985
0.665555 1.376587 0.014999 -0.777184 0.000000 -0.629261 0.171937 0.948985
0.665555 1.128588 0.014999 -0.777184 0.000000 -0.629261 0.220749 0.948985
0.658798 1.128588 0.023344 -0.777184 0.000000 -0.629261 0.220749 0.950580
0.658798 1.376587 0.023344 -0.777184 0.000000 -0.629261 0.171937 0.950580
0.658798 1.376587 0.023344 -0.998596 0.000000 -0.052583 0.171937 0.950580
0.658798 1.128588 0.023344 -0.998596 0.000000 -0.052583 0.220749 0.950580
0.658233 1.128588 0.034070 -0.998596 0.000000 -0.052583 0.220749 0.952224
0.658233 1.376587 0.034070 -0.998596 0.000000 -0.052583 0.171937 0.952224
0.664084 1.128588 0.043073 -0.838435 0.000000 0.544939 0.220749 0.953770
0.664084 1.376587 0.043073 -0.838435 0.000000 0.544939 0.171937 0.953770
0.658233 1.376587 0.034070 -0.838435 0.000000 0.544939 0.171937 0.952224
0.658233 1.128588 0.034070 -0.838435 0.000000 0.544939 0.220749 0.952224
0.674109 1.376587 0.046922 -0.358440 0.000000 0.933531 0.171937 0.955365
0.664084 1.376587 0.043073 -0.358440 0.000000 0.933531 0.171937 0.953770
0.664084 1.128588 0.043073 -0.358440 0.000000 0.933531 0.220749 0.953770
0.674109 1.128588 0.046922 -0.358440 0.000000 0.933531 0.220749 0.955365
0.684481 1.128588 0.044143 0.258797 0.000000 0.965911 0.220749 0.940963
0.684481 1.376587 0.044143 0.258797 0.000000 0.965911 0.171937 0.940963
0.674109 1.376587 0.046922 0.258797 0.000000 0.965911 0.171937 0.939416
0.674109 1.376587 0.046922 0.258797 0.000000 0.965911 0.171937 0.939416
0.674109 1.128588 0.046922 0.258797 0.000000 0.965911 0.220749 0.939416
0.691237 1.376587 0.035797 0.777245 0.000000 0.629170 0.171937 0.942557
0.684481 1.376587 0.044143 0.777245 0.000000 0.629170 0.171937 0.940963
0.684481 1.128588 0.044143 0.777245 0.000000 0.629170 0.220749 0.940963
0.691237 1.128588 0.035797 0.777245 0.000000 0.629170 0.220749 0.942557
0.691803 1.128588 0.025075 0.998596 0.000000 0.052705 0.220749 0.944104
0.691803 1.376587 0.025075 0.998596 0.000000 0.052705 0.171937 0.944104
0.691237 1.376587 0.035797 0.998596 0.000000 0.052705 0.171937 0.942557
0.691237 1.128588 0.035797 0.998596 0.000000 0.052705 0.220749 0.942557
0.691803 1.128588 0.025075 0.000000 -1.000000 0.000000 0.150548 0.934147
0.691237 1.128588 0.035797 0.000000 -1.000000 0.000000 0.152000 0.934581
0.684481 1.128588 0.044143 0.000000 -1.000000 0.000000 0.152870 0.935790
0.684481 1.128588 0.044143 0.000000 -1.000000 0.000000 0.152870 0.935790
0.674109 1.128588 0.046922 0.000000 -1.000000 0.000000 0.152870 0.937336
0.664084 1.128588 0.043073 0.000000 -1.000000 0.000000 0.152000 0.938544
0.664084 1.128588 0.043073 0.000000 -1.000000 0.000000 0.152000 0.938544
0.658233 1.128588 0.034070 0.000000 -0.999969 0.000000 0.150548 0.938980
0.658798 1.128588 0.023344 0.000000 -1.000000 0.000000 0.149148 0.938544
0.684481 1.128588 0.044143 0.000000 -0.999969 0.000000 0.152870 0.935790
0.664084 1.128588 0.043073 0.000000 -0.999969 0.000000 0.152000 0.938544
0.658798 1.128588 0.023344 0.000000 -1.000000 0.000000 0.149148 0.938544
0.658798 1.128588 0.023344 0.000000 -1.000000 0.000000 0.149148 0.938544
0.665555 1.128588 0.014999 0.000000 -1.000000 0.000000 0.148229 0.937336
0.675927 1.128588 0.012220 0.000000 -1.000000 0.000000 0.148229 0.935790
0.684481 1.128588 0.044143 0.000000 -0.999969 0.000000 0.152870 0.935790
0.658798 1.128588 0.023344 0.000000 -1.000000 0.000000 0.149148 0.938544
0.675927 1.128588 0.012220 0.000000 -1.000000 0.000000 0.148229 0.935790
0.691803 1.128588 0.025075 0.000000 -0.999969 0.000000 0.150548 0.934147
0.684481 1.128588 0.044143 0.000000 -1.000000 0.000000 0.152870 0.935790
0.675927 1.128588 0.012220 0.000000 -1.000000 0.000000 0.148229 0.935790
0.691803 1.128588 0.025075 0.000000 -1.000000 0.000000 0.150548 0.934147
0.675927 1.128588 0.012220 0.000000 -1.000000 0.000000 0.148229 0.935790
0.685950 1.128588 0.016069 0.000000 -1.000000 0.000000 0.149148 0.934581
0.684481 1.376587 0.044143 0.000000 1.000000 0.000000 0.148229 0.935790
0.691237 1.376587 0.035797 0.000000 1.000000 0.000000 0.149099 0.934581
0.691803 1.376587 0.025075 0.000000 1.000000 0.000000 0.150597 0.934147
0.691803 1.376587 0.025075 0.000000 1.000000 0.000000 0.150597 0.934147
0.685950 1.376587 0.016069 0.000000 0.999969 0.000000 0.152000 0.934581
0.675927 1.376587 0.012220 0.000000 1.000000 0.000000 0.152917 0.935790
0.675927 1.376587 0.012220 0.000000 1.000000 0.000000 0.152917 0.935790
0.665555 1.376587 0.014999 0.000000 1.000000 0.000000 0.152917 0.937336
0.658798 1.376587 0.023344 0.000000 1.000000 0.000000 0.152000 0.938544
0.691803 1.376587 0.025075 0.000000 1.000000 0.000000 0.150597 0.934147
0.675927 1.376587 0.012220 0.000000 1.000000 0.000000 0.152917 0.935790
0.658798 1.376587 0.023344 0.000000 1.000000 0.000000 0.152000 0.938544
0.658798 1.376587 0.023344 0.000000 1.000000 0.000000 0.152000 0.938544
0.658233 1.376587 0.034070 0.000000 0.999969 0.000000 0.150597 0.938980
0.664084 1.376587 0.043073 0.000000 0.999969 0.000000 0.149099 0.938544
0.691803 1.376587 0.025075 0.000000 1.000000 0.000000 0.150597 0.934147
0.658798 1.376587 0.023344 0.000000 1.000000 0.000000 0.152000 0.938544
0.664084 1.376587 0.043073 0.000000 1.000000 0.000000 0.149099 0.938544
0.684481 1.376587 0.044143 0.000000 0.999969 0.000000 0.148229 0.935790
0.691803 1.376587 0.025075 0.000000 1.000000 0.000000 0.150597 0.934147
0.664084 1.376587 0.043073 0.000000 1.000000 0.000000 0.149099 0.938544
0.684481 1.376587 0.044143 0.000000 1.000000 0.000000 0.148229 0.935790
0.664084 1.376587 0.043073 0.000000 1.000000 0.000000 0.149099 0.938544
0.674109 1.376587 0.046922 0.000000 1.000000 0.000000 0.148229 0.937336
0.875935 1.079995 -0.017033 0.259255 -0.002716 0.965789 0.221565 0.909286
0.876308 1.417529 -0.016181 0.259255 -0.002716 0.965789 0.266327 0.909286
0.687991 1.360051 0.034211 0.259255 -0.002716 0.965789 0.258921 0.932078
0.687745 1.137634 0.033651 0.259255 -0.002716 0.965789 0.228230 0.932160
0.919296 1.079977 -0.028673 0.259255 -0.002716 0.965789 0.221565 0.904020
0.919668 1.417511 -0.027822 0.259255 -0.002716 0.965789 0.266327 0.904020
1.352596 1.203418 -0.144648 0.259255 -0.002716 0.965789 0.238021 0.851690
1.352697 1.293697 -0.144421 0.259255 -0.002686 0.965789 0.249870 0.851607
0.872475 1.080031 -0.029918 -0.259255 0.002716 -0.965789 0.221565 0.909286
0.684286 1.137671 0.020765 -0.259255 0.002716 -0.965789 0.228230 0.932160
0.684532 1.360087 0.021325 -0.259255 0.002716 -0.965789 0.258921 0.932078
0.872849 1.417566 -0.029067 -0.259255 0.002716 -0.965789 0.266327 0.909286
0.915836 1.080013 -0.041559 -0.259255 0.002716 -0.965789 0.221565 0.904020
0.916210 1.417547 -0.040708 -0.259255 0.002716 -0.965789 0.266327 0.904020
1.349137 1.203455 -0.157533 -0.259255 0.002716 -0.965789 0.238021 0.851690
1.349238 1.293733 -0.157307 -0.259255 0.002686 -0.965789 0.249870 0.851607
0.872849 1.417566 -0.029067 -0.272469 0.959166 0.075777 0.269865 0.873082
0.684532 1.360087 0.021325 -0.272469 0.959166 0.075777 0.269865 0.851443
0.687991 1.360051 0.034211 -0.272469 0.959166 0.075777 0.271839 0.851443
0.687991 1.360051 0.034211 -0.272439 0.959166 0.075838 0.271839 0.851443
0.876308 1.417529 -0.016181 -0.272439 0.959166 0.075838 0.271921 0.873082
0.872849 1.417566 -0.029067 -0.272439 0.959166 0.075838 0.269865 0.873082
0.684286 1.137671 0.020765 -0.274575 -0.958922 0.071017 0.267561 0.932490
0.872475 1.080031 -0.029918 -0.274575 -0.958922 0.071017 0.267643 0.908875
0.875935 1.079995 -0.017033 -0.274575 -0.958922 0.071017 0.269700 0.908875
0.875935 1.079995 -0.017033 -0.274575 -0.958922 0.070956 0.269700 0.908875
0.687745 1.137634 0.033651 -0.274575 -0.958922 0.070956 0.269618 0.932490
0.684286 1.137671 0.020765 -0.274575 -0.958922 0.070956 0.267561 0.932490
0.916210 1.417547 -0.040708 0.001099 0.999969 0.002533 0.269865 0.878266
0.872849 1.417566 -0.029067 0.001099 0.999969 0.002533 0.269865 0.873082
0.876308 1.417529 -0.016181 0.001099 0.999969 0.002533 0.271921 0.873082
0.876308 1.417529 -0.016181 0.001068 0.999969 0.002503 0.271921 0.873082
0.919668 1.417511 -0.027822 0.001068 0.999969 0.002503 0.271921 0.878266
0.916210 1.417547 -0.040708 0.001068 0.999969 0.002503 0.269865 0.878266
0.872475 1.080031 -0.029918 -0.001099 -0.999969 -0.002503 0.267643 0.908875
0.915836 1.080013 -0.041559 -0.001099 -0.999969 -0.002503 0.267643 0.903691
0.919296 1.079977 -0.028673 -0.001099 -0.999969 -0.002503 0.269700 0.903691
0.919296 1.079977 -0.028673 -0.001099 -0.999969 -0.002472 0.269700 0.903691
0.875935 1.079995 -0.017033 -0.001099 -0.999969 -0.002472 0.269700 0.908875
0.872475 1.080031 -0.029918 -0.001099 -0.999969 -0.002472 0.267643 0.908875
1.349238 1.293733 -0.157307 0.257698 0.963927 -0.066439 0.270029 0.932490
0.916210 1.417547 -0.040708 0.257698 0.963927 -0.066439 0.269865 0.878266
0.919668 1.417511 -0.027822 0.257698 0.963927 -0.066439 0.271921 0.878266
0.919668 1.417511 -0.027822 0.257698 0.963927 -0.066439 0.271921 0.878266
1.352697 1.293697 -0.144421 0.257698 0.963927 -0.066439 0.272086 0.932490
1.349238 1.293733 -0.157307 0.257698 0.963927 -0.066439 0.270029 0.932490
1.349137 1.203455 -0.157533 0.965789 -0.000397 -0.259224 0.265092 0.932572
1.349238 1.293733 -0.157307 0.965789 -0.000397 -0.259224 0.265092 0.918831
1.352697 1.293697 -0.144421 0.965789 -0.000397 -0.259224 0.267067 0.918831
1.352697 1.293697 -0.144421 0.965789 -0.000397 -0.259255 0.267067 0.918831
1.352596 1.203418 -0.144648 0.965789 -0.000397 -0.259255 0.267067 0.932572
1.349137 1.203455 -0.157533 0.965789 -0.000397 -0.259255 0.265092 0.932572
0.915836 1.080013 -0.041559 0.255562 -0.964141 -0.071352 0.267643 0.903691
1.349137 1.203455 -0.157533 0.255562 -0.964141 -0.071352 0.267807 0.853829
1.352596 1.203418 -0.144648 0.255562 -0.964141 -0.071352 0.269865 0.853829
1.352596 1.203418 -0.144648 0.255562 -0.964141 -0.071291 0.269865 0.853829
0.919296 1.079977 -0.028673 0.255562 -0.964141 -0.071291 0.269700 0.903691
0.915836 1.080013 -0.041559 0.255562 -0.964141 -0.071291 0.267643 0.903691
3 0 1 2
3 2 3 0
3 4 0 3
3 3 5 4
3 6 4 5
3 5 7 6
3 8 9 10
3 10 11 8
3 12 13 14
3 14 15 12
3 16 17 18
3 18 19 16
3 20 16 19
3 19 21 20
3 22 20 21
3 21 23 22
3 24 25 26
3 26 27 24
3 28 29 30
3 30 31 28
3 32 33 34
3 35 36 32
3 37 32 36
3 36 38 37
3 39 40 41
3 41 42 43
3 43 44 45
3 41 43 45
3 45 46 47
3 47 48 49
3 45 47 49
3 41 45 49
3 39 41 49
3 39 49 50
3 51 52 53
3 54 55 56
3 57 58 59
3 60 61 62
3 63 64 65
3 66 67 68
3 69 70 71
3 72 73 74
3 75 76 77
3 78 79 80
3 81 82 83
3 84 85 86
3 87 88 89
3 90 91 92
3 93 94 95
3 96 97 98
3 99 100 101
3 102 103 104
3 105 106 107
3 108 109 110
3 111 112 113
3 114 115 116
3 117 118 119
3 120 121 122
3 123 124 125
3 125 126 123
3 127 128 129
3 129 130 127
3 131 132 133
3 133 134 131
3 135 136 137
3 137 138 135
3 139 140 141
3 141 142 139
3 143 144 145
3 145 146 143
3 147 148 149
3 149 150 147
3 151 152 153
3 154 155 151
3 156 157 158
3 158 159 156
3 160 161 162
3 162 163 160
3 164 165 166
3 167 168 169
3 170 171 172
3 173 174 175
3 176 177 178
3 179 180 181
3 182 183 184
3 185 186 187
3 188 189 190
3 191 192 193
3 194 195 196
3 197 198 199
3 200 201 202
3 203 204 205
3 206 207 208
3 209 210 211
3 212 213 214
3 214 215 212
3 216 217 213
3 213 212 216
3 218 219 217
3 217 216 218
3 220 221 222
3 222 223 220
3 224 220 223
3 223 225 224
3 226 224 225
3 225 227 226
3 228 229 230
3 231 232 233
3 234 235 236
3 237 238 239
3 240 241 242
3 243 244 245
3 246 247 248
3 249 250 251
3 252 253 254
3 255 256 257
3 258 259 260
3 261 262 263
3 264 265 266
3 267 268 269
