ply
format ascii 1.0
comment VCGLIB generated
element vertex 453
property float x
property float y
property float z
property float nx
property float ny
property float nz
property float texture_u
property float texture_v
element face 948
property list uchar int vertex_indices
end_header
-3.12216 9.180387 0.514924 0.1467789 0.9712618 -0.1873673 0.4092708 0.6250721
-4.46774 9.670385 0.570479 0.7220479 0.6309009 -0.2839208 0.3203395 0.6581184
-6.83011 11.03279 4.13688 0.2486902 0.6000802 0.7603006 0.1642073 0.7500009
-0.600095 9.589787 1.78986 -0.140048 0.9833863 0.1154896 0.5759575 0.6526826
-1.73568 9.311285 0.526885 -0.2017066 0.9672655 -0.1539864 0.5009051 0.6339
3.30513 7.253389 3.19543 0.6767838 0.4725151 0.5645291 0.8340591 0.4951122
4.00873 7.070991 1.73419 0.8887602 0.4521667 0.07517068 0.880561 0.482811
-3.01802 7.18219 3.99745 -0.0852984 0.5173521 0.851511 0.4161536 0.4903105
3.04193 8.407186 1.88068 0.7030956 0.7033179 0.104884 0.8166639 0.5729261
-6.40822 12.48909 -1.69096 0.8399877 0.5101913 0.1847312 0.1920906 0.848216
4.47046 5.828766 0.507585 0.9692945 0.2126429 -0.1234952 0.9110774 0.3990334
-3.16754 13.58949 -0.635023 0.5329059 0.1961192 0.8231334 0.4062716 0.9224288
-8.48523 9.957787 4.70177 -0.6227421 0.2726439 0.7333877 0.05481813 0.6775011
-6.885469 8.755186 5.17569 0.4428796 -0.01009774 0.8965243 0.1605485 0.5963959
0.595475 9.652386 1.78252 0.1161244 0.9844314 0.1319468 0.6549743 0.6569044
4.04629 7.064191 0.640978 0.8955442 0.4421024 -0.05045942 0.8830434 0.4823524
3.87342 6.766093 -0.463112 0.8496721 0.3695657 -0.3761362 0.8716182 0.4622482
-9.14513 9.963587 1.71026 -0.9966871 0.07867615 -0.02061159 0.01120446 0.6778923
-8.18721 7.26659 3.1016 -0.762857 -0.2847587 0.580484 0.0745147 0.4960025
-6.7218 12.16549 1.78863 -0.0241235 0.9986112 0.04683771 0.1713657 0.8263919
-7.95687 11.83749 2.99311 -0.3583901 0.8778411 0.317729 0.08973822 0.8042711
0.596007 8.800386 3.46272 0.1527712 0.6725755 0.7240879 0.6550095 0.5994442
-5.16317 11.05009 1.84804 0.8619381 0.3504685 0.3663804 0.2743776 0.7511675
-7.79781 9.804986 5.13494 -0.01219325 0.40606 0.9137651 0.1002507 0.667196
-0.590708 9.343385 2.74623 -0.1340257 0.8928546 0.4299393 0.5765779 0.6360649
-4.79133 9.480085 2.69646 0.5693074 0.528345 0.6298736 0.298953 0.6452842
-8.242701 5.831337 -0.556046 -0.8531472 -0.03522725 -0.5204795 0.07084727 0.3992068
1.744 9.319386 1.85348 0.4204375 0.8850462 0.1998138 0.7308819 0.6344463
-9.06868 8.580486 0.66804 -0.9467566 -0.08864664 -0.3095057 0.01625717 0.5846138
-2.94038 14.45299 -0.787959 -0.5053976 0.7976117 0.3292248 0.4212849 0.9806646
-7.97891 10.92599 4.26994 -0.3083317 0.6357337 0.7076541 0.08828151 0.742798
-1.8288 7.382889 4.15098 -0.2137385 0.4404694 0.8719534 0.4947507 0.5038459
-2.02326 14.73459 -1.83274 -0.01251839 0.9998437 -0.01248419 0.4818985 0.9996561
-3.77039 13.34869 -1.30391 -0.5016158 0.1236287 -0.8562111 0.3664283 0.9061888
0.582164 9.355986 2.79016 0.09640704 0.8958246 0.4338248 0.6540946 0.6369147
-4.35389 9.551386 1.75333 0.5886064 0.7775533 0.2212544 0.3278641 0.6500928
1.88699 8.536185 3.2409 0.3984358 0.640332 0.6566764 0.7403323 0.5816261
-4.40101 13.25348 0.231898 0.02108416 0.5204252 0.8536469 0.3247498 0.8997683
-8.9811 9.790086 0.705743 -0.8804451 0.1096213 -0.461302 0.02204543 0.6661911
-5.7352 11.04889 3.15196 0.7516228 0.3257607 0.5735357 0.2365714 0.7510867
4.42622 5.895257 1.76417 0.9615276 0.2213743 0.1626595 0.9081535 0.4035176
4.12343 5.767307 2.85603 0.8883614 0.2291169 0.3978938 0.8881416 0.3948885
-5.63953 12.00649 1.6878 0.5079626 0.8371941 0.2026825 0.2428944 0.8156687
-2.06135 12.52729 -0.717522 0.7366099 -0.05036421 0.67444 0.4793811 0.8507923
-7.29893 3.111162 1.81693 -0.5965746 -0.789399 0.1447345 0.1332224 0.2157538
-6.73967 12.07559 0.581389 0.06842633 0.9824478 -0.1735342 0.1701846 0.820329
-9.04864 8.411086 4.12148 -0.8560359 -0.314503 0.4102322 0.01758161 0.5731892
2.73142 8.346485 2.86191 0.5757362 0.6842803 0.4475358 0.7961418 0.5688324
4.1907 5.713857 -0.556945 0.8537796 0.2150246 -0.4741571 0.8925876 0.3912837
-7.02109 13.08029 -1.94661 0.2597742 0.9155506 0.3070577 0.1515852 0.8880875
-0.61847 8.822886 3.4787 -0.07999892 0.6998202 0.7098253 0.574743 0.6009617
3.00138 5.877856 4.21476 0.5451841 0.2517602 0.7996193 0.8139839 0.4023441
-1.75129 12.76259 -1.45489 0.2737329 -0.7103159 -0.6484764 0.4998734 0.8666613
-7.639771 13.67908 -4.11021 -0.971967 -0.1592545 -0.1729684 0.1106957 0.9284714
-8.54227 7.08859 0.339486 -0.9018828 0.05343713 -0.4286629 0.05104833 0.4839979
3.70431 7.594289 2.07229 0.7822673 0.5843685 0.2158038 0.8604414 0.5181031
-0.659732 0.8228507 4.69391 -0.008806761 -0.3905156 0.9205542 0.572016 0.06142646
0.639794 0.9200608 4.6826 0.2443331 -0.4574665 0.8550004 0.6579034 0.06798247
-5.59247 12.31059 0.656455 -0.2491912 0.9539023 0.1672546 0.2460046 0.8361778
-9.11449 8.431586 2.98442 -0.9243364 -0.3328159 0.1866438 0.01322954 0.5745717
-5.95109 9.385185 3.99626 0.6816612 0.1423387 0.7176892 0.2223029 0.638884
-1.76335 9.310487 1.79366 -0.2371233 0.9453098 0.2239689 0.4990764 0.6338462
-6.6633 11.93309 3.08703 0.1772973 0.8545745 0.4881271 0.175232 0.8107185
-4.36418 13.49379 -0.550226 -0.6467077 0.6859645 -0.3334995 0.327184 0.9159746
-5.72759 0.8743005 4.2862 -0.3621438 0.6400363 0.677647 0.2370744 0.06489632
-7.63773 12.27209 -1.68889 -0.9999275 0.006185166 -0.01033607 0.1108306 0.8335813
-4.34461 12.15499 0.615795 0.6534276 0.1475513 0.7424695 0.3284774 0.8256837
-4.27118 0.7664508 4.27004 -0.1703947 0.2018384 0.9644827 0.3333305 0.05762276
-2.54201 5.416219 5.03827 -0.6385757 0.1536408 0.7540661 0.4476137 0.3712105
-1.4179 9.176986 2.66417 -0.3101947 0.8767309 0.3675899 0.5219076 0.6248427
-8.82582 5.536868 0.696625 -0.9670794 -0.07568442 -0.2429596 0.03230811 0.3793473
-6.88695 12.32729 -0.687593 0.3279144 0.8601811 0.3905901 0.1604507 0.837304
-6.79676 10.83769 -0.757643 0.4046718 -0.09196747 -0.9098257 0.1664114 0.7368429
1.88538 7.17929 4.16902 0.2659057 0.4506478 0.85218 0.7402259 0.4901149
-3.6487 13.67249 0.0545037 -0.003296311 0.9088864 0.4170309 0.374471 0.9280264
-6.64352 8.269786 -0.987161 -0.3074243 0.2645448 -0.9140604 0.1765393 0.5636597
-6.82606 13.58978 -4.36995 0.7199429 0.6393526 0.2700194 0.1644749 0.9224489
-9.092501 11.15499 1.90382 -0.893669 0.4475996 -0.03178632 0.01468282 0.7582421
0.678622 8.134087 3.88077 0.1305541 0.511976 0.8490207 0.6604697 0.5545079
3.10139 5.856956 -1.7798 0.5636533 0.2909604 -0.7730699 0.8205937 0.4009346
0.56976 7.13899 4.35511 0.1253835 0.5105803 0.850639 0.6532748 0.487397
-7.065189 9.612987 5.02497 0.4371139 0.4551169 0.7757577 0.1486706 0.6542473
0.59746 9.635786 0.579479 0.07311247 0.9890972 -0.1278336 0.6551055 0.6557849
1.84217 0.7818202 4.2477 0.4937086 -0.4461522 0.7464584 0.7373701 0.0586593
1.47876 5.647468 5.09658 0.3407245 0.3302823 0.8802388 0.7133518 0.3868063
-0.598232 8.090886 4.02027 -0.03475459 0.4722833 0.8807614 0.5760806 0.5515944
-8.113119 8.347186 -0.359453 -0.6420433 0.03685074 -0.7657823 0.07941148 0.5688797
-7.87032 10.97739 -0.389052 -0.7900386 0.1366635 -0.5976305 0.09545838 0.7462645
0.581988 7.172589 -2.08968 0.1053714 0.4984603 -0.8604848 0.654083 0.4896629
-1.92761 8.535286 3.28061 -0.2924784 0.7356949 0.6109087 0.4882202 0.5815654
-0.593116 9.571486 0.5954 -0.1426867 0.9778922 -0.152864 0.5764188 0.6514484
-8.93322 10.82449 2.90326 -0.9071059 0.3718266 0.1972408 0.0252099 0.7359528
-0.762538 8.877286 -0.981555 -0.08446454 0.7757268 -0.6253908 0.5652214 0.6046305
-6.92263 14.44219 -5.42743 0.2062921 0.9580376 -0.1990166 0.1580925 0.9799362
-2.98757 8.975185 2.09674 0.04290471 0.8891136 0.4556712 0.418166 0.6112329
-8.48266 11.44869 3.27697 -0.6814764 0.6661837 0.3029676 0.054988 0.7780498
-8.88516 5.647227 1.79034 -0.9626392 -0.1552901 0.2218353 0.02838621 0.3867901
-3.05879 8.788385 -0.635771 0.1286251 0.842159 -0.5236638 0.4134589 0.5986348
-3.07198 8.348886 3.06166 0.004339838 0.6971978 0.7168657 0.4125872 0.5689943
-7.80612 8.615287 5.13999 -0.3377443 -0.286499 0.8965753 0.09970147 0.5869608
3.32714 7.399789 -0.7431949 0.6438141 0.5054975 -0.5744351 0.8355138 0.5049857
-6.77112 5.839176 -1.68814 -0.3997776 0.1429051 -0.9054038 0.168106 0.3997355
-7.5666 5.668167 -1.36967 -0.6164713 0.01872326 -0.7871548 0.1155316 0.3882023
-8.242201 6.061205 3.10878 -0.8067828 0.01983663 0.5905151 0.07088029 0.4147094
-8.56984 10.24029 0.192122 -0.7882871 0.1710126 -0.5910652 0.04922614 0.6965533
-2.92804 0.7274708 5.1397 -0.5556868 0.2016369 0.8065698 0.4221004 0.05499388
-1.7732 0.7886404 5.1684 0.4300982 0.1327314 0.8929715 0.4984254 0.05911926
-6.56987 13.65069 -5.6644 -0.03151737 -0.3887663 -0.9207972 0.1814069 0.9265562
-2.98523 13.64049 -1.65609 -0.4665625 0.1123087 -0.877329 0.4183207 0.9258683
-5.62502 10.05129 3.30455 0.7638932 0.3053122 0.5685523 0.2438533 0.6838069
-6.66127 9.852085 4.47044 0.6079323 0.3118579 0.7301801 0.1753662 0.6703725
-4.25379 12.09409 -0.7493531 -0.03162897 -0.7345875 -0.6777765 0.3344798 0.8215765
-5.45308 3.696032 3.97042 -0.2023539 -0.5392303 0.8174861 0.2552171 0.2551984
-4.13159 5.619226 -2.25881 -0.2358004 0.006685345 -0.9717786 0.3425562 0.3849017
-1.72876 5.767737 5.36212 -0.3579265 0.4044059 0.841632 0.5013625 0.3949175
-0.598119 5.953076 5.42643 -0.04591585 0.4541638 0.8897343 0.5760881 0.407417
4.23724 3.275632 2.95801 0.5837469 0.2532281 0.7714371 0.8956636 0.226846
2.85741 8.240887 -0.391772 0.6029837 0.6972182 -0.3876823 0.8044686 0.5617107
-3.31811 1.057441 4.51146 -0.5705845 0.1862012 0.7998516 0.3963202 0.0772476
-5.39402 8.406586 3.53731 0.5133746 0.2530906 0.819995 0.2591204 0.5728857
4.22724 4.505463 -0.579461 0.8913779 -0.0561966 -0.4497637 0.8950027 0.3097877
2.97273 0.8050208 3.04975 0.4437189 -0.7027004 0.5561707 0.8120903 0.06022398
-3.15639 6.143305 -2.36801 -0.3339323 0.3440695 -0.8775566 0.4070084 0.4202464
3.81804 7.062091 2.66947 0.8401343 0.3968565 0.3697015 0.867958 0.4822108
-2.84988 5.599198 -2.90854 -0.5526074 0.3233782 -0.7681481 0.4272661 0.3835509
-1.73189 0.9294206 4.32695 -0.007859614 -0.6427146 0.7660655 0.5011556 0.06861371
0.376754 1.325511 5.02037 0.1124633 -0.4687227 0.876157 0.6405187 0.09532668
4.32673 1.132911 2.78251 0.4345132 -0.5776767 0.6910051 0.901578 0.08233743
-2.33322 14.67389 -1.12893 0.6063267 0.3082289 0.7330505 0.4614129 0.9955624
-0.56258 2.200382 5.38818 -0.1464052 -0.3200263 0.9360282 0.5784369 0.1543294
0.529431 2.117982 5.32881 0.2659831 -0.3008955 0.9158138 0.6506094 0.1487722
-8.83219 7.12569 1.72983 -0.975756 -0.1954305 0.09852441 0.03188713 0.4865
-5.66374 1.251842 3.05809 -0.6528939 0.679118 0.3354523 0.2412943 0.09035829
-2.96243 1.981882 3.98951 -0.3016275 0.2666182 0.9153882 0.4198275 0.1395934
-0.597407 7.13969 4.40669 -0.0841001 0.4947535 0.8649544 0.5761351 0.4874442
-2.14122 2.019762 4.4641 -0.4543211 0.09138576 0.8861383 0.4741024 0.1421481
-1.61488 2.293632 5.0904 -0.4630342 -0.3276035 0.8235747 0.508889 0.1606183
-5.68305 11.18919 -0.26426 0.04994071 0.2634271 -0.9633858 0.240018 0.7605487
-9.31466 8.456686 1.79948 -0.9926825 -0.1167052 -0.03100565 0 0.5762645
-6.1862 12.39169 -2.93026 0.9020382 -0.4315265 -0.0105845 0.2067642 0.8416471
-8.55858 7.23399 2.1729 0.8300574 0.5533716 -0.06917145 0.04997034 0.4938039
3.36642 1.955432 3.50841 0.55642 -0.2731123 0.7847334 0.8381099 0.1378096
4.2771 2.153512 3.1559 0.387782 -0.06457058 0.9194866 0.898298 0.1511684
-4.34589 8.269087 3.17044 0.167274 0.5756863 0.8003778 0.3283928 0.5636125
-6.80962 12.22209 -4.26174 -0.2240614 -0.6263064 -0.746684 0.1655615 0.8302091
2.72384 6.865591 3.97058 0.4939106 0.3878213 0.7782332 0.7956408 0.4689585
-2.93932 14.40359 -1.45563 -0.7579789 0.5213218 -0.3920354 0.4213549 0.9773329
-7.62697 5.672447 3.83419 -0.6175813 0.0112403 0.7864267 0.1115417 0.388491
-1.91285 6.409513 4.56676 -0.2368701 0.584325 0.7761809 0.4891957 0.4381999
-5.3091 2.224022 2.93963 -0.7884849 -0.4569651 0.4116728 0.2647329 0.1559237
-4.31978 2.107772 3.90838 -0.429926 -0.09412756 0.8979442 0.3301184 0.1480836
-8.33055 8.114286 4.6828 -0.4492719 -0.5677175 0.68982 0.06504116 0.5531725
1.44345 9.258087 2.6297 0.3340794 0.8261212 0.4537783 0.7110181 0.6303123
-3.88913 8.926085 2.49778 0.2947193 0.7445093 0.599038 0.3585806 0.6079215
-5.94359 8.540486 3.99756 0.6161799 -0.0883704 0.7826321 0.2227986 0.5819162
-7.02332 11.97619 -3.12401 -0.4897852 -0.4846772 -0.7247058 0.1514378 0.8136253
-5.74473 11.80758 2.84508 0.6270024 0.594613 0.5032926 0.2359415 0.8022545
-4.80038 2.186603 3.62663 -0.5359612 -0.509709 0.6730099 0.2983549 0.1534001
-1.07262 14.51619 -2.77472 0.8200198 0.5298332 0.2164354 0.5447276 0.9849269
-8.822929 7.15659 0.846756 -0.9408156 -0.09563368 -0.3251466 0.03249915 0.4885839
-7.8994 11.94839 0.651862 -0.5264322 0.829544 -0.186349 0.09353648 0.8117503
-2.95675 9.157187 1.46338 0.0342298 0.9928305 0.1145256 0.4202029 0.6235074
-8.17356 11.98899 1.77332 -0.5006917 0.8642687 -0.0484516 0.07541685 0.8144885
-7.95469 6.96939 -0.620274 -0.6486648 0.1790989 -0.739701 0.08988228 0.4759589
-2.48608 8.841286 2.45429 -0.1673303 0.8598005 0.4824352 0.4513102 0.6022025
-6.64416 12.54569 -5.33713 0.2953344 -0.8473722 -0.4412913 0.176497 0.8520333
-7.84878 3.602832 1.74461 -0.7771388 -0.6214437 0.09931299 0.096882 0.2489128
-0.967101 13.87249 -2.64945 0.06584227 -0.3426944 -0.9371368 0.5517015 0.9415147
-5.66284 2.020312 0.744563 -0.9700688 -0.233391 -0.06704752 0.2413538 0.1421852
-1.84015 8.771885 -0.775134 -0.1602939 0.8551453 -0.4929833 0.4940006 0.597522
-6.95952 11.19119 -1.8032 0.00504966 -0.9291524 -0.3696626 0.1556544 0.7606835
-4.12517 8.869585 -0.958087 0.1014183 0.7493104 -0.6544069 0.3429804 0.6041111
-6.84972 11.36939 -2.8726 0.1586207 -0.7273253 -0.6677106 0.1629112 0.7727017
-5.40036 2.104302 1.77674 -0.8400294 -0.521292 0.1503505 0.2587014 0.1478496
-1.69203 3.371682 5.31499 -0.5439548 -0.2416366 0.8035701 0.50379 0.2333237
-0.607221 3.321022 5.64501 -0.05551511 -0.1684191 0.9841509 0.5754865 0.2299071
0.708728 3.282182 5.53369 0.2346866 -0.118669 0.9648005 0.6624594 0.2272877
-1.43174 8.247087 3.7836 -0.2492238 0.5746298 0.7795435 0.5209929 0.5621288
5.38923 2.125472 2.66244 0.6740076 -0.1684648 0.7192589 0.9718001 0.1492773
0.517855 5.867376 5.35873 0.2083413 0.4138097 0.8862029 0.6498443 0.4016373
-4.31038 3.293882 4.07737 -0.1813265 -0.1532476 0.9714093 0.3307397 0.2280768
-2.93069 3.357332 4.1016 -0.3648749 -0.1573408 0.9176656 0.4219253 0.2323559
-3.79555 12.74539 -1.28021 -0.4008939 -0.4024824 -0.8229775 0.3647655 0.8655013
-5.61165 3.093292 3.41979 -0.4742677 -0.4582469 0.751718 0.244737 0.2145487
-7.617069 12.10589 -0.59272 -0.61283 0.7863877 0.07767796 0.1121961 0.8223724
-5.52181 8.800586 -0.9464881 0.005065295 0.5369256 -0.8436143 0.2506746 0.5994577
1.77004 7.148289 -1.86138 0.3714551 0.4694152 -0.8010433 0.7326029 0.4880241
5.34583 3.113752 2.64336 0.5826806 0.4038034 0.7052845 0.9689317 0.2159285
-8.69152 5.991556 0.293118 -0.9269663 0.04963332 -0.3718469 0.04118419 0.4100122
-7.64257 12.72069 -2.97517 -0.8361925 -0.3676162 -0.4069895 0.1105107 0.8638355
-4.40959 9.295285 -0.327875 0.2553771 0.8248691 -0.5043547 0.3241827 0.632821
-3.12919 4.532982 4.34944 -0.4567289 -0.2484811 0.8541989 0.4088061 0.3116436
-5.49448 7.18479 -1.85625 -0.2234735 0.3104587 -0.9239454 0.2524809 0.4904858
-7.23735 7.555687 -0.943257 -0.4663463 0.2298055 -0.854231 0.1372922 0.5154997
-5.53659 5.748287 -2.11783 -0.218047 0.07200854 -0.9732782 0.2496978 0.3936057
-4.88091 3.151273 3.73959 -0.2994507 -0.5695888 0.7654396 0.2930326 0.218459
-4.73086 11.06559 0.6884689 0.9928073 -0.113014 0.03951623 0.3029496 0.7522129
-8.03913 9.513386 -0.469755 -0.5263867 0.04094284 -0.849259 0.08430151 0.64753
-4.1802 7.14339 -1.98692 -0.09894163 0.2993942 -0.9489856 0.3393435 0.4876937
-0.632139 5.866516 -3.28935 0.1834953 0.4134207 -0.8918592 0.5738396 0.4015793
-0.597054 7.16379 -2.22282 0.04298937 0.5670022 -0.8225937 0.5761584 0.4890695
-2.94827 12.37929 -0.619266 0.3502063 -0.9362638 0.02767104 0.4207634 0.8408109
-1.77953 7.178891 -2.17771 -0.04765866 0.5793396 -0.8136918 0.498007 0.4900879
-8.85261 10.33389 3.93964 -0.7947229 0.4351359 0.4231692 0.03053754 0.702866
-6.74935 9.389185 -0.863471 -0.03529444 0.1548795 -0.9873027 0.1695449 0.6391537
4.63693 3.701283 2.16754 0.7291185 0.3565235 0.5841894 0.9220796 0.2555525
-4.09565 8.266786 -1.45809 0.02207877 0.592865 -0.8049992 0.3449315 0.5634573
-1.06656 13.30409 -1.99013 0.7665675 -0.4749557 0.4321937 0.5451282 0.903181
-5.32547 12.29559 -0.281896 -0.658531 0.1826607 -0.7300494 0.263651 0.835166
0.530988 5.881286 -3.01852 0.2462939 0.4215346 -0.8727245 0.6507123 0.4025754
-7.73436 3.822262 2.66546 -0.696225 -0.6120591 0.3750392 0.1044442 0.2637116
-6.25087 11.54339 -1.50319 0.9424648 -0.3303146 0.0515001 0.20249 0.7844365
-6.88014 3.407263 3.06649 -0.4700755 -0.6772722 0.5659783 0.1609007 0.2357233
-5.45252 4.634782 -2.01707 -0.1159368 -0.2740613 -0.9546984 0.2552541 0.3185092
-4.36768 4.441602 4.28855 -0.01350097 -0.153987 0.9879806 0.3269526 0.3054808
-1.85748 4.447032 5.57353 -0.3591466 -0.1663264 0.9183405 0.4928552 0.305847
-0.599993 4.495482 5.78008 -0.01133047 0.06196066 0.9980143 0.5759642 0.3091146
0.706485 4.669173 5.58187 0.2304533 0.0725115 0.970378 0.6623111 0.3208286
-8.502689 11.15339 0.585954 -0.7867312 0.4550493 -0.417114 0.05366425 0.7581342
3.70111 7.589689 0.265294 0.7974763 0.5590478 -0.2269301 0.86023 0.5177928
-6.83084 4.583162 4.07109 -0.389508 -0.3235182 0.8623338 0.164159 0.3150279
-5.5894 4.475942 4.35335 -0.09615304 -0.2548754 0.9621815 0.2462075 0.3077968
3.81456 5.360558 -1.38675 0.7579186 0.1432872 -0.6364182 0.8677281 0.3674567
-6.42837 0.5141815 3.9624 -0.8400218 0.165329 0.5167492 0.1907588 0.04060932
-6.98696 13.40359 -3.13319 0.3532843 0.8710456 0.3412766 0.1538408 0.9098914
-6.1796 12.12409 -2.07923 0.9318112 0.2345334 -0.2769877 0.2072004 0.8235999
-6.22848 12.78599 -3.96288 0.9454781 0.2071857 -0.2512869 0.2039698 0.8682394
-6.86864 5.787036 4.21978 -0.4128595 0.1115467 0.9039383 0.1616608 0.396219
-4.9353 10.47979 1.47955 0.9332841 0.3383587 0.1203914 0.2894379 0.7127057
-7.841771 7.562589 4.17886 -0.3458745 -0.7840431 0.5154098 0.09734527 0.5159652
1.79416 4.477472 5.18862 0.4749678 0.03461058 0.8793223 0.734197 0.3079
0.532732 8.916085 -0.9971049 0.1030368 0.7621016 -0.6392062 0.6508275 0.6072471
-5.56774 5.902055 4.4207 -0.03042607 0.08798408 0.9956571 0.247639 0.4039761
-4.31924 5.761537 4.32689 -0.01574249 0.07017076 0.9974108 0.3301541 0.3944993
-2.98626 5.951236 4.44805 -0.3068016 0.318885 0.8967637 0.4182526 0.407293
2.05955 5.261299 4.92325 0.4628349 0.208012 0.8616931 0.7517371 0.3607625
1.721 9.316286 0.512593 0.4318091 0.8868415 -0.1644778 0.7293618 0.6342373
-2.90125 7.22189 -2.07479 -0.1736948 0.4706249 -0.8650678 0.423871 0.4929879
1.85443 6.031116 4.77587 0.3304838 0.3979389 0.8558185 0.7381804 0.4126801
-0.588676 8.212185 -1.60049 -0.0145636 0.5858223 -0.8103086 0.5767122 0.559775
-5.28191 12.81489 0.296711 -0.5731788 0.726923 0.3782181 0.2665299 0.8701885
3.58078 6.135935 -1.20328 0.7270559 0.2688973 -0.631731 0.8522772 0.4197493
-9.12064 9.691485 2.95307 -0.9920235 0.08373614 0.0942218 0.01282306 0.6595414
-6.7874 7.24519 4.03725 0.01394293 -0.1845369 0.9827267 0.16703 0.4945592
-4.41636 7.041791 4.01706 0.02807747 0.4147011 0.9095244 0.3237353 0.4808417
0.749586 6.384994 4.88255 1 0 0 0.6651598 0.4365463
-5.54961 6.939791 4.11405 0.04017364 0.3719442 0.9273854 0.2488373 0.4739627
-6.69044 8.121687 4.73479 0.4537849 -0.4317889 0.7795112 0.1734383 0.5536717
-5.01524 10.58259 0.258818 0.719097 -0.1129885 -0.6856626 0.2841545 0.7196386
-5.54508 9.791986 -0.485445 0.4437807 0.3538461 -0.8233175 0.2491367 0.6663193
-1.4752 14.73969 -2.62781 -0.3751489 0.1688487 -0.9114568 0.5181206 1
-2.9558 12.72828 -1.43368 -0.1337829 -0.5336556 -0.8350532 0.4202657 0.8643479
-5.61854 7.677688 3.73713 0.2077891 0.2238783 0.9522091 0.2442816 0.5237276
-4.0984 7.599588 3.70883 0.0552118 0.5168033 0.854322 0.3447497 0.5184604
-3.20055 7.596789 3.70438 0.01063992 0.6190259 0.7852984 0.4040899 0.5182716
2.50033 7.611088 3.68459 0.4586592 0.5228064 0.7185439 0.7808688 0.519236
-4.6987 11.29339 -0.222536 0.5751297 -0.5120018 -0.6380283 0.3050751 0.767576
-1.83407 0.0736207 5.07938 0.5226749 -0.6217964 0.5832497 0.4944024 0.01089719
-1.78406 13.59839 -1.81143 0.993982 -0.07014158 0.08414208 0.4977076 0.923029
-5.69472 0.04416098 4.23717 -0.1515214 -0.6468453 0.7474172 0.2392468 0.008910383
0.583339 0.06076112 4.20914 0.1472628 -0.674551 0.7233911 0.6541722 0.01002992
-4.28024 0.06574097 4.16872 0.01061335 -0.8453932 0.534039 0.3327317 0.01036577
-6.6462 7.027691 -1.48582 -0.4229741 0.2474068 -0.8717126 0.1763621 0.4798908
2.57452 1.141371 3.81185 0.6329607 -0.4243119 0.6475495 0.7857721 0.08290799
3.79451 4.721673 -1.41547 0.7693327 -0.1893284 -0.6101491 0.8664029 0.3243692
-8.44262 4.527142 1.86332 -0.8856491 -0.4014634 0.2333513 0.0576343 0.3112498
5.32504 1.309001 1.81903 0.6843429 -0.6813165 0.2597741 0.9675577 0.09421322
1.86424 1.910352 4.6215 0.4722177 -0.26686 0.8401167 0.7388287 0.1347693
0.732515 8.374287 -1.53012 0.1458797 0.5740103 -0.805749 0.6640315 0.5707074
-3.14704 12.25659 0.0976216 0.3066156 -0.9455763 0.1089608 0.4076264 0.8325359
2.86229 2.237602 4.07635 0.5893461 -0.2465413 0.769343 0.8047912 0.1568395
5.81591 2.050162 1.80254 0.9356501 -0.3267327 0.1334346 1 0.1441983
1.6864 5.543498 -2.69104 0.4128875 0.3139065 -0.8549776 0.727075 0.3797944
1.45778 2.407692 5.01691 0.4409887 -0.2527514 0.8611885 0.7119652 0.1683107
3.67248 5.731837 3.66248 0.7650213 0.1620383 0.6232864 0.8583378 0.3924963
-1.98801 13.19039 -1.12699 0.6690586 0.4404955 0.5986021 0.4842283 0.8955128
1.50294 3.323572 5.20671 0.4379299 -0.1507597 0.8862782 0.7149499 0.2300791
2.10524 3.361612 4.84346 0.5537304 -0.1541153 0.81831 0.7547567 0.2326446
2.98776 3.349362 4.19172 0.5966185 -0.1323238 0.7915408 0.8130836 0.2318184
3.68358 3.334952 3.6641 0.7171518 -0.1115411 0.6879331 0.8590714 0.2308466
5.74748 3.372182 1.71425 0.8334441 0.5118585 0.2082593 0.9954773 0.2333575
3.16842 4.400872 -1.9208 0.6594809 -0.09602453 -0.7455631 0.8250238 0.3027339
-7.60271 14.12039 -5.06937 -0.840572 0.01796493 -0.5414019 0.1131451 0.9582335
-6.55396 2.628852 1.75707 -0.4897771 -0.8569353 0.1605629 0.1824584 0.1832261
-8.06026 4.694702 3.06516 -0.7446496 -0.3538796 0.5659207 0.08290502 0.3225503
1.89749 8.700586 -0.6945651 0.4555448 0.6724442 -0.5833504 0.7410263 0.5927135
3.0684 4.504612 4.31507 0.6292752 -0.02301897 0.7768416 0.8184133 0.3097303
3.71888 4.474842 3.67937 0.7403364 -0.02290082 0.6718464 0.8614044 0.3077226
4.19366 4.509112 2.95911 0.8888744 0.06902338 0.4529218 0.8927832 0.3100338
4.6032 4.486942 1.77694 0.9139192 0.3046687 0.2681955 0.9198503 0.3085386
-7.87921 3.627732 0.685585 -0.7831126 -0.6086574 -0.1275575 0.09487085 0.2505921
-2.93987 8.141685 -1.47065 -0.02051644 0.6749411 -0.7375864 0.4213186 0.5550204
-8.69924 7.901786 0.410409 -0.9327462 -0.2555327 -0.2543377 0.04067397 0.5388412
-1.42186 13.95129 -2.59807 -0.5513192 -0.4018861 -0.7311188 0.5216459 0.9468291
1.74795 0.07131114 -0.592856 0.3456014 -0.9065098 -0.2424866 0.731143 0.01074143
1.62141 0.1347511 -1.62131 0.3437711 -0.8470862 -0.405298 0.7227798 0.01501992
1.93248 0.1332211 3.13206 0.2830772 -0.9416139 0.1822924 0.7433388 0.01491674
4.35544 0.66101 0.579916 0.4338224 -0.8810869 -0.1883724 0.9034755 0.05051167
2.26191 0.6105206 -0.7935441 0.5453047 -0.7195686 -0.429958 0.7651113 0.04710658
1.91348 0.8282008 -1.92095 0.5809093 -0.5644587 -0.5864561 0.7420831 0.06178728
4.14633 1.113011 -0.354513 0.3938761 -0.6094694 -0.6880471 0.8896552 0.08099535
4.36925 0.6696804 1.772 0.4449915 -0.8729106 0.2000246 0.9043882 0.05109641
5.12872 1.189591 0.580531 0.6788614 -0.6911837 -0.2478148 0.9545827 0.08616003
2.85777 7.068091 -1.42381 0.4735807 0.4982349 -0.7262805 0.8044925 0.4826154
3.06748 1.00124 -0.617993 0.4995062 -0.5816765 -0.641986 0.8183525 0.07345735
-1.84118 6.030585 -3.07434 -0.2230049 0.561601 -0.7967893 0.4939325 0.4126444
-3.15484 -0.01976891 -2.84081 -0.07142462 -0.8117355 -0.5796414 0.4071109 0.004598849
2.60381 1.309021 -1.65794 0.6286477 -0.567894 -0.5313177 0.7877079 0.09421457
5.541969 3.413782 0.589653 0.7716163 0.467805 -0.4310068 0.9818949 0.236163
5.20374 2.057302 -0.24816 0.6736327 -0.1990035 -0.7117701 0.9595408 0.1446798
5.67375 1.972242 0.512483 0.9386638 -0.1845436 -0.2912969 0.9906044 0.1389432
4.28049 2.082862 -0.604704 0.4317794 -0.1736316 -0.8851095 0.898522 0.1464037
-6.20037 13.29218 -5.27165 0.9991672 0.03954359 -0.01006345 0.2058277 0.9023783
3.41128 1.967762 -0.948346 0.6059829 -0.3893834 -0.6936609 0.8410747 0.1386411
2.9518 2.155642 -1.75875 0.709453 -0.2926406 -0.6411223 0.8107071 0.151312
-1.77887 8.141086 -1.57838 -0.07668912 0.6397457 -0.7647511 0.4980506 0.5549799
-4.17838 0.1260211 -2.64107 -0.7578209 -0.1568091 -0.633339 0.3394637 0.01443116
-0.518939 0.8546009 -2.73333 0.1769589 -0.480664 -0.8588642 0.5813212 0.06356774
-6.64059 -0.01350875 -0.416668 -0.6502087 -0.5005925 -0.5715207 0.176733 0.005021045
4.75414 3.671742 0.542617 0.7040626 0.5248322 -0.4783796 0.9298261 0.2535603
2.49138 4.801631 -2.45877 0.5320145 0.06050048 -0.8445711 0.7802773 0.3297617
-2.99024 0.8103108 -2.83179 -0.3725504 0.3563779 -0.8568553 0.4179895 0.06058075
2.18121 1.708652 -2.36492 0.5557573 -0.36294 -0.7479361 0.7597777 0.1211663
-2.71537 0.06608095 5.092669 -0.2328423 -0.680679 0.6945939 0.4361561 0.0103887
1.61181 8.112987 -1.45451 0.4273238 0.5203149 -0.7393693 0.7221453 0.5530849
3.1738 3.349832 -1.83532 0.6616302 -0.1142203 -0.7410797 0.8253794 0.2318501
4.18226 3.302011 -0.551555 0.73527 0.13473 -0.6642483 0.8920298 0.228625
5.14871 2.922792 -0.174794 0.5207288 0.3820997 -0.7634405 0.9559038 0.2030499
-8.93303 9.380886 4.28023 -0.8881108 0.09282233 0.4501593 0.02522244 0.638594
4.59385 4.513072 0.579632 0.9388923 0.2268719 -0.2588637 0.9192324 0.3103009
-7.054329 11.53969 -3.87319 0 0 0 0.1493883 0.7841869
-4.29617 0.8524208 -1.76288 -0.6579315 0.5701546 -0.4919856 0.3316788 0.06342071
-7.19677 14.33479 -4.74604 0.2893261 0.784986 0.5478024 0.1399743 0.9726929
-7.60529 14.31509 -4.71457 -0.3698119 0.8464242 0.3831519 0.1129746 0.9713644
3.04173 8.399486 0.573814 0.7291034 0.676293 -0.1050528 0.8166506 0.5724068
-7.71451 13.32059 -2.98798 -0.7327028 0.6286011 0.2607821 0.1057561 0.9042937
2.02668 5.836096 -2.37363 0.432862 0.3898892 -0.8127835 0.7495646 0.3995277
-2.54815 4.536972 5.10546 -0.602174 -0.1920591 0.7749192 0.4472079 0.3119127
-6.505409 0.08259096 1.62237 -0.7737777 -0.5434205 0.3255185 0.1856672 0.01150216
-6.47676 0.05792084 2.94481 -0.9515928 -0.2862909 -0.1118426 0.1875607 0.00983837
-6.44267 0.6959102 3.04476 -0.7969807 0.5976777 -0.08719636 0.1898137 0.05286539
-6.432 0.07261124 3.87914 -0.554666 -0.7549262 0.349903 0.1905189 0.01082911
-6.76 -0.04700895 0.590491 -0.6933825 -0.7164904 0.07656515 0.1688409 0.002761738
-6.79534 0.7358803 0.668394 -0.9142736 0.391001 0.1059338 0.1665053 0.05556103
-5.73497 0.8654809 2.00229 -0.8686794 0.4901227 0.07194375 0.2365866 0.06430151
-6.346321 0.6932104 1.42052 -0.6459376 0.6130121 0.4549513 0.1961816 0.05268331
-5.9413 1.263821 0.628538 -0.6747697 0.7380267 0.001565538 0.2229499 0.09116621
-2.33834 3.114161 4.50976 -0.6670347 -0.2196922 0.7118989 0.4610745 0.2159561
-6.3538 3.716502 3.79463 -0.3079938 -0.6364671 0.7071418 0.1956872 0.2565789
-1.93036 4.651282 -3.84318 -0.0286145 0.1447744 -0.9890509 0.4880385 0.319622
-4.27206 -0.01442905 -1.91302 -0.1368043 -0.985571 -0.09967151 0.3332723 0.004958978
-0.690237 0.01400103 -2.02171 0.08069585 -0.9944965 -0.06681973 0.5699999 0.006876348
-6.56787 0.6333206 -0.401793 -0.6527243 0.5659861 -0.5035978 0.1815391 0.04864424
-3.83907 0.7421802 -2.64039 -0.3942145 0.4728148 -0.7880616 0.3618892 0.05598591
-5.56585 0.8786607 -0.758834 -0.5696146 0.3820249 -0.7277336 0.2477639 0.06519037
-4.16785 0.7527603 -0.999679 0.09519758 -0.6852722 -0.7220384 0.3401597 0.05669945
-3.22294 1.015931 -1.67499 -0.7405981 -0.007639777 -0.6719049 0.4026101 0.0744481
-3.07385 2.183072 -1.8517 -0.8643313 -0.1328632 -0.4850555 0.4124637 0.153162
-4.29026 2.168972 -1.13043 -0.38566 -0.0882962 -0.9184063 0.3320694 0.1522111
-5.50285 2.215572 -0.531375 -0.5897514 -0.3158405 -0.7432618 0.2519277 0.1553538
-2.61858 2.238362 -2.82694 -0.6279269 -0.1751352 -0.758311 0.442553 0.1568908
-5.52189 8.296086 -1.33744 -0.1481491 0.4961532 -0.8555021 0.2506694 0.5654334
-1.90658 2.016952 -3.18646 -0.2213973 -0.3264209 -0.9189302 0.4896101 0.1419586
-6.87629 3.416943 -0.654941 -0.5131055 -0.6651831 -0.5424522 0.1611552 0.2363762
-7.30504 3.092002 0.552859 -0.5900714 -0.7818545 -0.2012943 0.1328185 0.2144617
-2.07234 3.277932 -3.6553 -0.4051501 -0.3061834 -0.8614553 0.4786548 0.2270011
-2.90792 3.292603 -2.90521 -0.8116211 -0.2382491 -0.5333934 0.4234302 0.2279905
-3.28056 3.196373 -1.95215 -0.6859817 -0.247169 -0.6843513 0.3988019 0.2215006
-1.77608 -0.01680918 -2.59142 0.1226361 -0.686991 -0.7162429 0.498235 0.004798458
-7.73687 3.875712 -0.409771 -0.6851526 -0.5859202 -0.4327396 0.1042783 0.2673163
1.51616 9.160385 -0.266395 0.3223538 0.8406916 -0.4351156 0.7158237 0.6237231
-8.45255 4.555722 0.530702 -0.8968512 -0.4059232 -0.1757391 0.05697803 0.3131773
-7.93517 4.535592 -0.640565 -0.7508678 -0.3598002 -0.5538424 0.09117237 0.3118196
-3.09728 4.497012 -3.12475 -0.8042614 -0.05799961 -0.5914386 0.4109151 0.3092178
-3.55144 4.730101 -2.26887 -0.6138093 -0.1522858 -0.7746272 0.380899 0.3249376
-6.814099 4.562272 -1.64278 -0.4202743 -0.2839617 -0.8618209 0.1652655 0.313619
-5.12932 -0.02729912 -1.29013 -0.705961 -0.1909321 -0.6820294 0.2766148 0.004091
1.61924 4.597902 -2.92174 0.4615927 0.08882929 -0.8826333 0.7226363 0.3160219
-1.44478 5.342739 -3.80297 0.03839659 0.3366518 -0.940846 0.5201311 0.3662549
-1.73157 0.8767405 -2.82906 -0.07035896 -0.2682074 -0.9607884 0.5011767 0.06506087
-1.93328 6.342504 -2.4792 0 0 1 0.4878455 0.4336807
-5.55479 -0.08183881 -0.619013 -0.2854806 -0.8607851 -0.4213668 0.2484949 0.0004127564
0.702627 6.334174 -2.46055 0 -1 0 0.6620561 0.4331189
-1.48892 9.156786 -0.252126 -0.2727701 0.9057585 -0.3243425 0.5172138 0.6234804
1.75205 2.071142 -2.72756 0.4306254 -0.2230279 -0.87454 0.731414 0.1456132
-0.953661 4.491042 -3.79859 0.1381671 0.07652274 -0.9874483 0.5525898 0.3088151
0.524266 0.4633615 -2.1947 0.04236139 -0.74419 -0.6666234 0.650268 0.03718194
1.75653 3.343392 -2.89388 0.4216063 -0.07191895 -0.9039225 0.73171 0.2314158
-0.57907 9.357687 -0.285105 -0.1264688 0.90024 -0.4166217 0.577347 0.6370295
0.626556 9.354686 -0.31705 0.08325689 0.9142033 -0.3966113 0.6570286 0.6368271
0.559979 0.01604094 -1.79318 -0.1077826 -0.9939018 -0.0232839 0.6526284 0.007013923
2.9824 0.1414213 0.488977 0.2734548 -0.9216278 -0.275363 0.8127294 0.01546978
0.625193 1.146231 -2.63782 0.2077525 -0.4415425 -0.8728569 0.6569384 0.08323575
1.43253 1.284841 -2.51513 0.312185 -0.4848734 -0.816969 0.7102965 0.09258383
0.604086 2.100732 -3.04314 0.2292276 -0.2774217 -0.9330016 0.6555434 0.1476088
-0.613413 2.013722 -3.2635 0.09276021 -0.2983673 -0.9499329 0.5750773 0.1417407
-3.46694 2.262402 -1.14953 -0.5168539 -0.1508296 -0.8426818 0.3864838 0.1585121
-0.684543 3.347423 -3.59406 0.1506314 -0.2265785 -0.9622746 0.5703762 0.2316876
0.56558 3.312372 -3.29199 0.256152 -0.153488 -0.9543729 0.6529986 0.2293238
-5.69732 3.066282 -0.9582191 -0.2836992 -0.5738252 -0.7682704 0.2390749 0.2127271
-4.22796 3.549442 -1.61463 -0.2714538 -0.413126 -0.8692755 0.3361869 0.2453121
-1.75719 3.604732 -3.82261 -0.06236953 -0.1752339 -0.9825493 0.4994835 0.2490409
-5.5586 3.779832 -1.61218 -0.150443 -0.5056968 -0.8494926 0.2482431 0.26085
-6.37884 3.676972 -1.38535 -0.345799 -0.5953497 -0.725246 0.1940323 0.253913
0.568561 4.455472 -3.39189 0.311415 0.08124469 -0.9467946 0.6531955 0.3064162
-0.338429 4.595112 -3.67226 0.2466222 0.1026886 -0.9636558 0.5932513 0.3158337
-2.48988 4.700042 -3.71078 -0.4418379 0.1621671 -0.8823158 0.451059 0.3229104
-4.12513 4.463782 -1.97746 -0.2321017 -0.2788366 -0.9318686 0.3429831 0.3069767
-7.35819 4.320261 -1.22023 0 1 0 0.1293058 0.2972974
-1.8062 0.0762712 -1.95401 -0.01479699 -0.9432525 0.3317467 0.4962443 0.01107595
-3.1577 0.1348712 -1.79669 0.1189999 -0.7460787 0.655138 0.4069219 0.01502803
-0.602034 0.3623714 -1.45184 0.05053856 -0.9340293 0.353603 0.5758293 0.030371
-1.77811 0.3754613 -1.54503 -0.086247 -0.9153772 0.3932507 0.4981008 0.0312538
0.7534469 0.1059608 -0.650063 -0.441783 -0.8941735 -0.07267442 0.6654149 0.01307826
0.430437 0.3901712 -0.71754 -0.2680885 -0.957912 -0.1026319 0.6440668 0.03224587
-0.593935 0.4448014 -0.592129 -0.00801949 -0.999882 0.01310349 0.5763646 0.03593021
-1.76142 0.4105513 -0.5845081 0.01654456 -0.9997394 0.01573046 0.4992039 0.03362034
-4.30308 -0.03608914 -0.565972 0.398968 -0.8744658 -0.2759239 0.3312222 0.003498187
1.89222 0.06076112 0.499769 0.05927321 -0.9982182 -0.006870656 0.740678 0.01002992
-2.99129 0.3891212 -0.582677 -0.05534041 -0.9229805 -0.3808469 0.4179201 0.03217505
0.512066 0.03398123 0.558498 -0.201369 -0.9714305 -0.1255917 0.6494617 0.008223845
0.103528 0.3091711 0.0952222 -0.3983814 -0.886889 -0.2339233 0.6224609 0.02678309
-0.5847141 0.3841912 0.590803 -0.1736024 -0.9792306 -0.104736 0.576974 0.03184257
-4.24621 -0.01855917 0.590597 0.00232601 -0.9992108 0.03965458 0.3349808 0.004680436
-1.7873 0.3816616 0.599471 0.0208701 -0.9994593 -0.02541031 0.4974935 0.03167196
2.8662 0.1341114 1.87496 0.2406823 -0.9620807 0.1283463 0.8050497 0.01497678
-5.5026 -0.08795901 0.583816 -0.05139686 -0.9985803 0.01399157 0.2519442 0
-2.84733 0.3648912 0.441853 0.01914991 -0.9994346 -0.02763769 0.4274347 0.03054094
-0.0947006 0.1237409 1.03469 -0.3872757 -0.9154758 -0.1091857 0.6093597 0.01427738
1.93224 0.06814113 1.96616 0.06059263 -0.997434 0.03813032 0.743323 0.01052764
-3.42325 -0.07409902 0.717517 -0.08419353 -0.9900591 0.1126697 0.3893713 0.0009347402
0.536022 0.009561434 1.79871 -0.2186108 -0.9568397 0.1914863 0.651045 0.006576935
-0.0385714 0.06459131 1.34171 -0.2955038 -0.9552881 0.01010729 0.6130694 0.01028824
3.34119 0.3117911 2.10082 0.2975411 -0.8807403 0.3684641 0.8364424 0.02695979
-0.589791 0.3678216 1.77062 -0.2372138 -0.9647238 0.1141828 0.5766385 0.03073858
-3.52445 0.05571117 1.78257 0.2090401 -0.977289 0.03476503 0.3826829 0.009689347
-1.78078 0.3696215 1.78114 0.02439316 -0.9995275 0.01870309 0.4979244 0.03085996
-2.61898 0.3259212 1.77044 0.1033273 -0.9945331 0.01507804 0.4425266 0.02791275
-5.63247 -0.08237907 1.75265 -0.1888705 -0.9817473 0.02236431 0.243361 0.0003763206
0.114114 0.3161015 2.23414 -0.2876632 -0.908574 0.3028916 0.6231605 0.02725049
1.00253 0.100291 2.9656 -0.1667121 -0.9793431 0.1144302 0.6818771 0.01269588
0.550127 0.4055612 2.96609 -0.2907681 -0.9287228 0.2300606 0.6519772 0.03328379
-0.596581 0.4394615 2.99252 -0.0318896 -0.9889359 0.1448753 0.5761897 0.03557008
-3.30745 0.1021712 2.92236 0.1841569 -0.9828902 -0.0036245 0.3970247 0.01282268
-2.77717 0.3756313 3.22865 0.2029509 -0.975225 0.08801792 0.4320716 0.03126527
-1.79091 0.4090212 2.96167 0.05274591 -0.9792535 0.195654 0.4972549 0.03351714
-4.19404 -0.01301904 2.99668 0.07293902 -0.995871 0.05404554 0.3384288 0.005054072
1.5243 0.1111612 4.12692 0.4195498 -0.7164374 0.5574006 0.7163616 0.01342899
-5.54301 -0.02444883 2.97952 -0.08490092 -0.9958333 0.03328341 0.2492735 0.004283228
-6.605149 2.661442 0.585548 -0.5140651 -0.8527255 -0.09271601 0.1790753 0.185424
-0.654912 0.05372133 4.53959 0.2376203 -0.3366593 0.9111516 0.5723345 0.009555149
-3.07826 0.02596083 4.32959 -0.458232 -0.6455906 0.6109307 0.4121721 0.007682936
-1.80834 0.03142133 4.58772 0.3407963 -0.8821421 0.3250896 0.4961029 0.008051201
3 164 94 98 
3 224 335 49 
3 331 350 376 
3 124 122 237 
3 61 89 69 
3 61 161 94 
3 24 89 50 
3 109 25 35 
3 27 34 152 
3 444 443 435 
3 94 35 153 
3 3 61 69 
3 24 69 89 
3 38 218 104 
3 22 42 39 
3 14 24 34 
3 290 166 371 
3 226 76 224 
3 204 197 72 
3 82 3 14 
3 13 81 23 
3 99 13 23 
3 23 110 30 
3 110 2 30 
3 166 265 371 
3 90 61 3 
3 34 24 50 
3 293 167 207 
3 80 78 85 
3 61 94 164 
3 84 238 80 
3 4 161 61 
3 132 149 64 
3 196 22 228 
3 59 46 242 
3 179 84 80 
3 265 96 371 
3 52 258 207 
3 121 127 141 
3 343 168 346 
3 232 227 220 
3 232 243 227 
3 232 246 243 
3 57 126 56 
3 57 130 126 
3 221 232 220 
3 4 61 90 
3 134 80 85 
3 176 217 175 
3 4 0 161 
3 78 21 50 
3 126 130 129 
3 56 126 129 
3 111 182 201 
3 96 70 371 
3 89 164 98 
3 123 6 55 
3 197 87 72 
3 416 419 412 
3 245 80 179 
3 21 78 36 
3 61 164 89 
3 67 132 64 
3 150 149 132 
3 384 387 325 
3 214 221 112 
3 214 233 232 
3 221 214 232 
3 244 246 232 
3 233 244 232 
3 244 252 246 
3 244 143 119 
3 252 244 119 
3 127 142 141 
3 67 150 132 
3 82 90 3 
3 112 180 214 
3 244 253 143 
3 111 201 269 
3 37 74 63 
3 133 150 67 
3 118 133 67 
3 133 180 150 
3 191 214 180 
3 181 191 180 
3 191 234 233 
3 214 191 233 
3 234 244 233 
3 234 7 244 
3 244 98 253 
3 253 98 143 
3 216 217 115 
3 181 180 133 
3 15 16 219 
3 254 98 244 
3 7 254 244 
3 74 11 63 
3 14 3 24 
3 3 69 24 
3 217 216 175 
3 85 78 50 
3 73 78 80 
3 7 98 254 
3 105 133 118 
3 1 248 196 
3 48 241 100 
3 42 156 39 
3 149 173 344 
3 135 133 105 
3 106 135 105 
3 31 7 234 
3 148 31 234 
3 89 98 7 
3 31 89 7 
3 235 84 230 
3 14 27 236 
3 106 125 135 
3 19 20 62 
3 131 54 159 
3 34 50 21 
3 82 14 236 
3 201 52 43 
3 310 308 280 
3 131 159 54 
3 271 310 280 
3 27 14 34 
3 177 89 31 
3 238 73 80 
3 130 176 175 
3 354 331 381 
3 129 130 175 
3 125 136 135 
3 251 52 201 
3 106 56 125 
3 56 129 136 
3 125 56 136 
3 129 175 174 
3 136 129 174 
3 175 216 215 
3 174 175 215 
3 115 114 215 
3 216 115 215 
3 134 85 31 
3 85 177 31 
3 50 89 177 
3 85 50 177 
3 179 80 245 
3 400 407 367 
3 263 83 121 
3 217 179 115 
3 149 132 64 
3 178 187 116 
3 142 178 116 
3 326 120 319 
3 57 83 267 
3 304 391 294 
3 355 354 359 
3 128 29 11 
3 267 273 130 
3 48 16 10 
3 301 302 266 
3 196 66 22 
3 230 84 217 
3 247 13 243 
3 110 81 13 
3 271 178 266 
3 110 13 247 
3 278 277 267 
3 48 10 329 
3 258 11 275 
3 1 196 228 
3 154 247 243 
3 154 110 247 
3 263 141 270 
3 154 60 110 
3 60 154 110 
3 154 60 110 
3 11 74 37 
3 274 5 51 
3 252 154 243 
3 119 252 243 
3 109 110 60 
3 39 2 110 
3 109 39 110 
3 32 128 29 
3 32 128 11 
3 309 300 311 
3 252 119 154 
3 73 145 255 
3 67 64 259 
3 32 29 128 
3 258 275 43 
3 154 119 60 
3 119 109 60 
3 137 256 248 
3 270 267 83 
3 235 238 84 
3 267 130 57 
3 258 32 11 
3 302 310 271 
3 51 238 235 
3 266 302 271 
3 5 36 255 
3 51 235 230 
3 51 145 73 
3 286 51 230 
3 287 274 286 
3 119 25 109 
3 10 40 289 
3 120 48 329 
3 274 51 286 
3 276 230 217 
3 10 16 15 
3 51 5 145 
3 43 11 201 
3 176 276 217 
3 143 25 119 
3 158 207 167 
3 360 321 357 
3 130 273 276 
3 122 198 237 
3 270 278 267 
3 77 218 38 
3 15 6 40 
3 280 187 178 
3 271 280 178 
3 258 207 32 
3 66 58 22 
3 279 287 278 
3 155 139 172 
3 121 141 263 
3 288 41 274 
3 287 288 274 
3 276 176 130 
3 289 288 205 
3 274 41 5 
3 288 287 279 
3 329 10 289 
3 16 100 219 
3 127 178 142 
3 273 267 276 
3 252 119 243 
3 116 279 141 
3 41 123 5 
3 116 288 279 
3 142 116 141 
3 207 158 32 
3 276 277 230 
3 101 102 163 
3 299 298 294 
3 287 286 278 
3 5 255 145 
3 131 159 70 
3 275 11 43 
3 32 158 250 
3 205 288 116 
3 73 36 78 
3 120 329 319 
3 297 391 300 
3 84 179 217 
3 17 77 38 
3 255 36 73 
3 263 270 83 
3 249 248 1 
3 286 230 277 
3 11 37 66 
3 43 52 258 
3 267 277 276 
3 279 278 270 
3 141 279 270 
3 51 73 238 
3 47 36 5 
3 201 66 269 
3 201 11 66 
3 309 310 302 
3 300 309 302 
3 182 33 251 
3 278 286 277 
3 243 246 252 
3 416 427 419 
3 96 131 70 
3 66 256 111 
3 65 335 189 
3 113 374 407 
3 144 139 155 
3 226 224 139 
3 358 400 396 
3 30 91 203 
3 226 139 144 
3 46 328 242 
3 307 304 298 
3 70 159 54 
3 103 265 284 
3 443 261 446 
3 17 38 28 
3 88 200 239 
3 72 170 211 
3 138 17 28 
3 35 1 228 
3 295 299 294 
3 18 131 140 
3 18 59 131 
3 207 258 52 
3 188 70 54 
3 104 87 197 
3 222 48 120 
3 325 326 311 
3 326 281 120 
3 54 159 292 
3 386 299 295 
3 138 59 17 
3 48 100 16 
3 59 242 17 
3 296 121 83 
3 10 15 40 
3 242 91 17 
3 225 9 211 
3 314 322 384 
3 326 325 281 
3 170 225 211 
3 17 91 77 
3 144 76 226 
3 155 9 225 
3 159 131 28 
3 172 139 170 
3 131 138 28 
3 281 264 120 
3 264 222 120 
3 139 155 225 
3 139 225 170 
3 314 325 313 
3 386 295 390 
3 292 159 28 
3 132 149 344 
3 424 427 416 
3 49 335 65 
3 314 313 304 
3 111 269 66 
3 9 71 72 
3 211 9 72 
3 306 316 353 
3 307 314 304 
3 325 311 313 
3 40 41 288 
3 289 40 288 
3 40 6 41 
3 6 123 41 
3 22 39 109 
3 165 312 76 
3 299 307 298 
3 144 165 76 
3 312 107 76 
3 376 381 331 
3 165 107 312 
3 155 172 330 
3 35 228 22 
3 45 184 160 
3 42 62 156 
3 2 39 62 
3 58 42 22 
3 49 71 9 
3 280 116 187 
3 280 205 116 
3 155 330 144 
3 280 289 205 
3 319 280 308 
3 162 77 20 
3 20 77 91 
3 329 289 280 
3 319 329 280 
3 156 62 39 
3 372 408 375 
3 190 1 0 
3 1 35 0 
3 42 19 62 
3 35 161 0 
3 190 0 97 
3 35 22 109 
3 76 53 224 
3 161 35 94 
3 49 9 155 
3 224 49 155 
3 29 63 11 
3 160 162 19 
3 76 333 53 
3 153 25 143 
3 71 49 65 
3 2 20 30 
3 62 20 2 
3 55 8 5 
3 169 0 4 
3 6 8 55 
3 35 25 153 
3 160 218 162 
3 218 77 162 
3 15 334 6 
3 334 8 6 
3 332 76 93 
3 8 47 5 
3 98 153 143 
3 94 153 98 
3 219 334 15 
3 332 333 76 
3 93 76 107 
3 100 334 219 
3 160 19 45 
3 19 162 20 
3 340 132 344 
3 45 19 42 
3 27 47 8 
3 27 36 47 
3 80 115 179 
3 45 42 58 
3 71 184 45 
3 236 27 8 
3 334 236 8 
3 332 93 333 
3 27 152 36 
3 223 64 340 
3 236 334 117 
3 152 21 36 
3 134 148 115 
3 115 148 114 
3 152 34 21 
3 5 123 55 
3 337 68 191 
3 333 93 282 
3 256 66 196 
3 135 174 347 
3 183 180 195 
3 117 285 236 
3 182 111 63 
3 354 318 352 
3 114 234 68 
3 71 65 184 
3 135 136 174 
3 191 215 337 
3 337 215 114 
3 63 33 182 
3 133 135 181 
3 135 347 181 
3 110 23 81 
3 157 180 183 
3 149 157 183 
3 227 147 220 
3 12 23 30 
3 151 99 46 
3 174 215 191 
3 99 328 46 
3 114 148 234 
3 149 150 157 
3 220 147 284 
3 79 186 336 
3 68 234 191 
3 396 357 356 
3 99 23 12 
3 328 99 12 
3 337 114 68 
3 356 358 396 
3 338 343 342 
3 223 340 339 
3 265 103 96 
3 341 223 339 
3 347 174 191 
3 182 251 201 
3 134 115 80 
3 12 30 203 
3 345 343 338 
3 147 227 103 
3 33 108 251 
3 95 20 91 
3 181 347 191 
3 345 346 343 
3 157 150 180 
3 103 227 18 
3 66 240 58 
3 345 344 346 
3 146 32 108 
3 445 125 444 
3 30 95 91 
3 124 373 374 
3 137 249 72 
3 344 345 338 
3 344 168 346 
3 12 203 328 
3 284 147 103 
3 240 66 37 
3 344 173 168 
3 314 384 322 
3 107 282 93 
3 76 53 107 
3 107 53 282 
3 282 53 333 
3 165 76 107 
3 315 202 291 
3 165 144 76 
3 407 374 367 
3 144 53 76 
3 388 389 92 
3 155 144 330 
3 144 224 53 
3 432 431 434 
3 155 189 144 
3 144 189 224 
3 189 335 53 
3 224 189 53 
3 146 29 32 
3 382 88 209 
3 331 316 350 
3 331 353 316 
3 357 367 366 
3 360 357 366 
3 367 374 373 
3 366 367 373 
3 373 407 374 
3 388 92 169 
3 170 65 155 
3 155 65 189 
3 328 203 91 
3 413 421 414 
3 356 331 358 
3 242 328 91 
3 168 343 346 
3 113 198 122 
3 124 113 122 
3 239 200 315 
3 331 356 357 
3 372 26 102 
3 375 372 102 
3 26 163 102 
3 408 372 375 
3 72 87 65 
3 170 72 65 
3 87 184 65 
3 63 108 11 
3 63 29 108 
3 370 285 231 
3 389 370 231 
3 131 18 140 
3 33 63 108 
3 368 306 321 
3 374 113 124 
3 285 324 268 
3 231 285 268 
3 336 272 186 
3 224 155 139 
3 363 369 372 
3 86 193 163 
3 208 63 111 
3 380 305 202 
3 356 357 321 
3 346 354 352 
3 346 168 354 
3 168 359 354 
3 364 290 369 
3 363 364 369 
3 290 371 372 
3 369 290 372 
3 371 70 26 
3 372 371 26 
3 70 188 26 
3 188 54 26 
3 54 163 26 
3 54 86 163 
3 54 28 86 
3 28 38 86 
3 38 197 86 
3 38 104 197 
3 104 218 87 
3 218 160 87 
3 160 184 87 
3 58 240 208 
3 240 37 63 
3 208 240 63 
3 340 64 132 
3 343 168 346 
3 400 367 357 
3 396 400 357 
3 54 292 28 
3 96 103 18 
3 346 168 343 
3 249 137 248 
3 200 209 199 
3 79 222 281 
3 327 308 309 
3 343 346 352 
3 383 388 169 
3 200 88 209 
3 285 186 324 
3 241 48 79 
3 16 100 79 
3 303 100 79 
3 323 105 451 
3 100 303 186 
3 100 16 79 
3 321 353 331 
3 236 285 370 
3 389 231 92 
3 100 285 117 
3 108 63 11 
3 186 303 79 
3 88 382 209 
3 82 236 389 
3 100 241 79 
3 45 72 71 
3 0 169 97 
3 45 137 72 
3 285 100 186 
3 137 45 58 
3 199 378 305 
3 208 137 58 
3 356 331 357 
3 305 380 202 
3 378 349 305 
3 169 92 315 
3 192 262 75 
3 361 192 75 
3 291 202 237 
3 258 293 207 
3 272 79 377 
3 324 186 268 
3 268 186 88 
3 90 389 388 
3 169 315 291 
3 97 169 291 
3 79 320 377 
3 4 383 169 
3 379 317 368 
3 200 202 315 
3 92 239 315 
3 306 353 321 
3 370 389 236 
3 48 222 79 
3 206 361 185 
3 361 206 185 
3 92 231 239 
3 356 321 331 
3 190 171 185 
3 249 190 185 
3 206 198 361 
3 198 192 361 
3 90 388 383 
3 305 124 237 
3 327 311 326 
3 4 90 383 
3 190 249 1 
3 206 361 185 
3 171 206 185 
3 202 305 237 
3 108 29 146 
3 308 310 309 
3 334 100 117 
3 90 82 389 
3 79 336 186 
3 224 53 335 
3 354 381 318 
3 231 268 239 
3 186 272 209 
3 88 186 209 
3 200 199 202 
3 327 326 319 
3 308 327 319 
3 309 311 327 
3 435 443 446 
3 199 305 202 
3 97 171 190 
3 171 97 206 
3 97 291 206 
3 237 198 206 
3 291 237 206 
3 406 124 305 
3 399 402 400 
3 373 374 407 
3 300 304 311 
3 304 313 311 
3 407 213 113 
3 208 111 256 
3 403 402 399 
3 363 403 399 
3 29 128 32 
3 403 375 402 
3 363 399 359 
3 194 192 198 
3 193 86 75 
3 400 213 407 
3 272 336 79 
3 79 281 320 
3 300 302 297 
3 294 298 304 
3 299 322 314 
3 307 299 314 
3 322 384 314 
3 377 281 325 
3 387 377 325 
3 281 377 320 
3 355 358 331 
3 101 102 262 
3 363 375 403 
3 197 204 75 
3 102 101 262 
3 299 384 322 
3 262 163 193 
3 318 343 352 
3 299 322 384 
3 299 393 322 
3 322 393 384 
3 137 208 256 
3 86 197 75 
3 186 79 336 
3 222 264 281 
3 185 361 75 
3 365 360 366 
3 386 392 393 
3 299 386 393 
3 393 392 384 
3 392 394 384 
3 394 398 387 
3 384 394 387 
3 404 377 387 
3 398 404 387 
3 404 209 377 
3 209 272 377 
3 399 400 358 
3 359 399 358 
3 101 163 262 
3 262 193 75 
3 102 101 375 
3 204 72 249 
3 31 148 134 
3 424 437 427 
3 359 358 355 
3 400 402 213 
3 204 249 185 
3 351 317 386 
3 390 351 386 
3 317 392 386 
3 392 317 394 
3 317 395 394 
3 395 397 398 
3 394 395 398 
3 397 405 404 
3 398 397 404 
3 199 209 404 
3 405 199 404 
3 268 88 239 
3 75 204 185 
3 318 352 354 
3 243 18 227 
3 397 385 405 
3 385 199 405 
3 262 192 194 
3 101 262 194 
3 18 131 96 
3 349 378 199 
3 385 349 199 
3 250 158 167 
3 293 250 167 
3 379 362 395 
3 317 379 395 
3 395 362 397 
3 362 365 397 
3 365 401 397 
3 401 349 385 
3 397 401 385 
3 375 194 213 
3 213 194 113 
3 375 101 194 
3 354 352 318 
3 342 343 318 
3 375 213 402 
3 451 261 443 
3 32 250 293 
3 258 32 293 
3 113 194 198 
3 351 409 368 
3 355 331 354 
3 339 340 344 
3 372 375 363 
3 339 344 338 
3 368 321 379 
3 360 362 379 
3 360 365 362 
3 366 365 362 
3 365 366 362 
3 406 349 401 
3 365 406 401 
3 108 258 52 
3 258 108 32 
3 305 349 406 
3 297 302 301 
3 52 251 108 
3 321 360 379 
3 384 325 314 
3 373 406 365 
3 366 373 365 
3 373 349 406 
3 349 373 406 
3 373 124 406 
3 106 105 323 
3 439 434 431 
3 18 243 229 
3 83 57 260 
3 447 83 260 
3 418 425 429 
3 439 441 434 
3 441 442 434 
3 257 106 323 
3 391 425 418 
3 435 437 444 
3 257 323 452 
3 391 418 294 
3 296 440 441 
3 440 296 441 
3 131 59 138 
3 294 413 295 
3 95 30 20 
3 428 432 434 
3 422 424 415 
3 294 420 413 
3 425 296 429 
3 414 422 415 
3 425 121 296 
3 296 440 431 
3 452 323 451 
3 296 83 447 
3 431 441 439 
3 445 444 436 
3 429 296 431 
3 450 56 106 
3 301 121 433 
3 106 257 452 
3 414 415 411 
3 390 413 386 
3 18 229 59 
3 59 229 46 
3 386 414 411 
3 301 433 425 
3 248 256 196 
3 411 416 412 
3 300 391 304 
3 422 436 424 
3 46 229 151 
3 127 121 301 
3 412 419 356 
3 295 413 390 
3 351 390 411 
3 442 56 125 
3 409 351 412 
3 247 243 13 
3 330 172 155 
3 451 118 67 
3 364 44 290 
3 290 44 166 
3 166 210 265 
3 265 210 284 
3 442 436 434 
3 229 99 151 
3 364 449 44 
3 449 283 44 
3 418 420 294 
3 363 449 364 
3 212 284 210 
3 44 210 166 
3 420 428 422 
3 44 212 210 
3 247 229 243 
3 229 247 99 
3 127 266 178 
3 56 450 260 
3 413 420 421 
3 359 168 363 
3 363 168 449 
3 415 424 416 
3 296 447 260 
3 212 220 284 
3 436 437 424 
3 351 411 412 
3 440 441 431 
3 283 212 44 
3 451 67 261 
3 168 173 449 
3 449 173 283 
3 426 342 318 
3 381 426 318 
3 212 348 220 
3 266 127 301 
3 426 338 342 
3 149 283 173 
3 149 212 283 
3 438 338 426 
3 433 121 425 
3 149 183 212 
3 414 421 422 
3 172 170 155 
3 368 317 351 
3 350 381 376 
3 67 259 261 
3 183 112 212 
3 212 112 348 
3 348 112 220 
3 432 431 434 
3 448 339 338 
3 438 448 338 
3 420 431 432 
3 112 221 220 
3 428 420 432 
3 431 432 434 
3 417 381 350 
3 422 428 434 
3 423 426 381 
3 417 423 381 
3 56 260 57 
3 451 105 118 
3 296 260 440 
3 386 413 414 
3 306 350 316 
3 448 341 339 
3 415 416 411 
3 436 444 437 
3 259 341 448 
3 297 425 391 
3 442 125 445 
3 450 106 452 
3 410 350 306 
3 341 259 223 
3 355 417 350 
3 410 355 350 
3 259 64 223 
3 410 356 350 
3 356 410 350 
3 356 355 410 
3 355 419 417 
3 247 13 99 
3 195 112 183 
3 180 112 195 
3 419 355 356 
3 301 425 297 
3 390 386 411 
3 446 259 448 
3 446 261 259 
3 434 436 422 
3 421 420 422 
3 409 410 306 
3 368 409 306 
3 412 356 410 
3 409 412 410 
3 442 445 436 
3 435 423 430 
